<svg width="40" height="40" viewBox="0 0 40 40" fill="none" xmlns="http://www.w3.org/2000/svg">
<rect width="40" height="40" rx="8" fill="white"/>
<path d="M27.1709 14.6395C26.7409 12.4695 25.1309 11.5195 22.8909 11.5195H14.1109C11.4709 11.5195 9.71094 12.8395 9.71094 15.9195V21.0695C9.71094 23.2895 10.6209 24.5895 12.1209 25.1495C12.3409 25.2295 12.5809 25.2995 12.8309 25.3395C13.2309 25.4295 13.6609 25.4695 14.1109 25.4695H22.9009C25.5409 25.4695 27.3009 24.1495 27.3009 21.0695V15.9195C27.3009 15.4495 27.2609 15.0295 27.1709 14.6395ZM13.5309 19.9995C13.5309 20.4095 13.1909 20.7495 12.7809 20.7495C12.3709 20.7495 12.0309 20.4095 12.0309 19.9995V16.9995C12.0309 16.5895 12.3709 16.2495 12.7809 16.2495C13.1909 16.2495 13.5309 16.5895 13.5309 16.9995V19.9995ZM18.5009 21.1395C17.0409 21.1395 15.8609 19.9595 15.8609 18.4995C15.8609 17.0395 17.0409 15.8595 18.5009 15.8595C19.9609 15.8595 21.1409 17.0395 21.1409 18.4995C21.1409 19.9595 19.9609 21.1395 18.5009 21.1395ZM24.9609 19.9995C24.9609 20.4095 24.6209 20.7495 24.2109 20.7495C23.8009 20.7495 23.4609 20.4095 23.4609 19.9995V16.9995C23.4609 16.5895 23.8009 16.2495 24.2109 16.2495C24.6209 16.2495 24.9609 16.5895 24.9609 16.9995V19.9995Z" fill="#2A8851"/>
<path d="M30.3017 18.9203V24.0703C30.3017 27.1503 28.5417 28.4803 25.8917 28.4803H17.1117C16.3617 28.4803 15.6917 28.3703 15.1117 28.1503C14.6417 27.9803 14.2317 27.7303 13.9017 27.4103C13.7217 27.2403 13.8617 26.9703 14.1117 26.9703H22.8917C26.5917 26.9703 28.7917 24.7703 28.7917 21.0803V15.9203C28.7917 15.6803 29.0617 15.5303 29.2317 15.7103C29.9117 16.4303 30.3017 17.4803 30.3017 18.9203Z" fill="#2A8851"/>
</svg>
