<svg width="20" height="20" viewBox="0 0 20 20" fill="none" xmlns="http://www.w3.org/2000/svg">
<path fill-rule="evenodd" clip-rule="evenodd" d="M10.0013 3.54102C10.3465 3.54102 10.6263 3.82084 10.6263 4.16602V9.37435H15.8346C16.1798 9.37435 16.4596 9.65417 16.4596 9.99935C16.4596 10.3445 16.1798 10.6243 15.8346 10.6243H10.6263V15.8327C10.6263 16.1779 10.3465 16.4577 10.0013 16.4577C9.65612 16.4577 9.3763 16.1779 9.3763 15.8327V10.6243H4.16797C3.82279 10.6243 3.54297 10.3445 3.54297 9.99935C3.54297 9.65417 3.82279 9.37435 4.16797 9.37435H9.3763V4.16602C9.3763 3.82084 9.65612 3.54102 10.0013 3.54102Z" fill="#1A201D"/>
</svg>
