<svg width="40" height="40" viewBox="0 0 40 40" fill="none" xmlns="http://www.w3.org/2000/svg">
<rect width="40" height="40" rx="8" fill="white"/>
<path d="M20.0002 22C14.9902 22 10.9102 25.36 10.9102 29.5C10.9102 29.78 11.1302 30 11.4102 30H28.5902C28.8702 30 29.0902 29.78 29.0902 29.5C29.0902 25.36 25.0102 22 20.0002 22Z" fill="#2A8851"/>
<path d="M20 10C18.82 10 17.74 10.41 16.88 11.1C15.73 12.01 15 13.42 15 15C15 15.94 15.26 16.82 15.73 17.57C16.59 19.02 18.17 20 20 20C21.26 20 22.41 19.54 23.29 18.75C23.68 18.42 24.02 18.02 24.28 17.57C24.74 16.82 25 15.94 25 15C25 12.24 22.76 10 20 10ZM22.59 14.46L19.92 16.92C19.74 17.09 19.51 17.17 19.28 17.17C19.04 17.17 18.8 17.08 18.62 16.9L17.39 15.66C17.02 15.29 17.02 14.7 17.39 14.33C17.76 13.96 18.35 13.96 18.72 14.33L19.31 14.92L21.32 13.07C21.7 12.72 22.29 12.74 22.64 13.12C22.99 13.51 22.97 14.11 22.59 14.46Z" fill="#2A8851"/>
</svg>
