<svg width="40" height="40" viewBox="0 0 40 40" fill="none" xmlns="http://www.w3.org/2000/svg">
<rect width="40" height="40" rx="8" fill="white"/>
<path d="M27.5119 13.85L21.5719 10.42C20.6019 9.86 19.4019 9.86 18.4219 10.42L12.4919 13.85C11.5219 14.41 10.9219 15.45 10.9219 16.58V23.42C10.9219 24.54 11.5219 25.58 12.4919 26.15L18.4319 29.58C19.4019 30.14 20.6019 30.14 21.5819 29.58L27.5219 26.15C28.4919 25.59 29.0919 24.55 29.0919 23.42V16.58C29.0819 15.45 28.4819 14.42 27.5119 13.85ZM20.0019 15.34C21.2919 15.34 22.3319 16.38 22.3319 17.67C22.3319 18.96 21.2919 20 20.0019 20C18.7119 20 17.6719 18.96 17.6719 17.67C17.6719 16.39 18.7119 15.34 20.0019 15.34ZM22.6819 24.66H17.3219C16.5119 24.66 16.0419 23.76 16.4919 23.09C17.1719 22.08 18.4919 21.4 20.0019 21.4C21.5119 21.4 22.8319 22.08 23.5119 23.09C23.9619 23.75 23.4819 24.66 22.6819 24.66Z" fill="#2A8851"/>
</svg>
