<svg width="224" height="86" viewBox="0 0 224 86" fill="none" xmlns="http://www.w3.org/2000/svg">
<g filter="url(#filter0_dddd_850_19419)">
<rect x="2" y="3" width="186" height="56" rx="12" fill="#EEF3FA"/>
<rect x="2.5" y="3.5" width="185" height="55" rx="11.5" stroke="#EAF3EE"/>
<rect x="18" y="19" width="24" height="24" rx="12" fill="white"/>
<path d="M33.332 25.334H26.6654C24.6654 25.334 23.332 26.334 23.332 28.6673V33.334C23.332 35.6673 24.6654 36.6673 26.6654 36.6673H33.332C35.332 36.6673 36.6654 35.6673 36.6654 33.334V28.6673C36.6654 26.334 35.332 25.334 33.332 25.334ZM26.1654 32.6673C26.1654 32.9407 25.9387 33.1673 25.6654 33.1673C25.392 33.1673 25.1654 32.9407 25.1654 32.6673V29.334C25.1654 29.0607 25.392 28.834 25.6654 28.834C25.9387 28.834 26.1654 29.0607 26.1654 29.334V32.6673ZM29.9987 33.0007C28.892 33.0007 27.9987 32.1073 27.9987 31.0007C27.9987 29.894 28.892 29.0007 29.9987 29.0007C31.1054 29.0007 31.9987 29.894 31.9987 31.0007C31.9987 32.1073 31.1054 33.0007 29.9987 33.0007ZM34.832 32.6673C34.832 32.9407 34.6054 33.1673 34.332 33.1673C34.0587 33.1673 33.832 32.9407 33.832 32.6673V29.334C33.832 29.0607 34.0587 28.834 34.332 28.834C34.6054 28.834 34.832 29.0607 34.832 29.334V32.6673Z" fill="#2A8851"/>
<path d="M51.302 36V26.2H52.492V36H51.302ZM52.38 31.702V30.624H56.58V31.702H52.38ZM52.38 27.278V26.2H57.126V27.278H52.38ZM62.8115 36L62.7415 34.852V32.304C62.7415 31.7533 62.6762 31.3007 62.5455 30.946C62.4242 30.582 62.2329 30.3113 61.9715 30.134C61.7195 29.9473 61.3835 29.854 60.9635 29.854C60.5622 29.854 60.2122 29.9333 59.9135 30.092C59.6242 30.2507 59.3862 30.498 59.1995 30.834L58.1915 30.428C58.3782 30.1013 58.6022 29.8167 58.8635 29.574C59.1249 29.3313 59.4282 29.1493 59.7735 29.028C60.1282 28.8973 60.5295 28.832 60.9775 28.832C61.6215 28.832 62.1582 28.958 62.5875 29.21C63.0169 29.462 63.3389 29.84 63.5535 30.344C63.7682 30.8387 63.8709 31.4593 63.8615 32.206L63.8475 36H62.8115ZM60.7115 36.168C59.8902 36.168 59.2462 35.9813 58.7795 35.608C58.3222 35.2253 58.0935 34.698 58.0935 34.026C58.0935 33.3167 58.3269 32.7753 58.7935 32.402C59.2695 32.0193 59.9322 31.828 60.7815 31.828H62.7835V32.766H61.0335C60.3802 32.766 59.9135 32.8733 59.6335 33.088C59.3629 33.3027 59.2275 33.6107 59.2275 34.012C59.2275 34.376 59.3629 34.6653 59.6335 34.88C59.9042 35.0853 60.2822 35.188 60.7675 35.188C61.1689 35.188 61.5189 35.0947 61.8175 34.908C62.1162 34.7213 62.3449 34.4693 62.5035 34.152C62.6622 33.8253 62.7415 33.4567 62.7415 33.046H63.4275C63.4275 33.998 63.1942 34.7587 62.7275 35.328C62.2609 35.888 61.5889 36.168 60.7115 36.168ZM68.0863 36.168C67.5729 36.168 67.1249 36.0933 66.7423 35.944C66.3596 35.7853 66.0376 35.58 65.7763 35.328C65.5243 35.076 65.3423 34.8007 65.2303 34.502L66.2103 34.096C66.3689 34.4133 66.6069 34.67 66.9243 34.866C67.2416 35.062 67.5916 35.16 67.9743 35.16C68.4129 35.16 68.7816 35.076 69.0803 34.908C69.3789 34.7307 69.5283 34.4833 69.5283 34.166C69.5283 33.8767 69.4163 33.6433 69.1923 33.466C68.9776 33.2887 68.6556 33.144 68.2263 33.032L67.5543 32.85C66.9196 32.682 66.4249 32.43 66.0703 32.094C65.7156 31.7487 65.5383 31.3613 65.5383 30.932C65.5383 30.2693 65.7529 29.756 66.1823 29.392C66.6209 29.0187 67.2696 28.832 68.1283 28.832C68.5389 28.832 68.9123 28.8927 69.2483 29.014C69.5843 29.1353 69.8736 29.308 70.1163 29.532C70.3589 29.7467 70.5363 30.0033 70.6483 30.302L69.6683 30.736C69.5469 30.4187 69.3463 30.19 69.0663 30.05C68.7863 29.91 68.4456 29.84 68.0443 29.84C67.6149 29.84 67.2789 29.9333 67.0363 30.12C66.7936 30.2973 66.6723 30.5493 66.6723 30.876C66.6723 31.0627 66.7703 31.24 66.9663 31.408C67.1716 31.5667 67.4703 31.6973 67.8623 31.8L68.5623 31.982C69.0196 32.094 69.4023 32.262 69.7103 32.486C70.0183 32.7007 70.2516 32.948 70.4103 33.228C70.5689 33.508 70.6483 33.8067 70.6483 34.124C70.6483 34.544 70.5363 34.908 70.3123 35.216C70.0883 35.524 69.7849 35.762 69.4023 35.93C69.0196 36.0887 68.5809 36.168 68.0863 36.168ZM74.7897 36.168C74.1084 36.168 73.5811 35.9907 73.2077 35.636C72.8344 35.2813 72.6477 34.782 72.6477 34.138V26.816H73.7677V34.026C73.7677 34.3807 73.8611 34.656 74.0477 34.852C74.2437 35.0387 74.5144 35.132 74.8597 35.132C74.9717 35.132 75.0791 35.118 75.1817 35.09C75.2937 35.0527 75.4384 34.9687 75.6157 34.838L76.0497 35.748C75.8071 35.9067 75.5877 36.014 75.3917 36.07C75.1957 36.1353 74.9951 36.168 74.7897 36.168ZM71.4297 29.994V29H75.8677V29.994H71.4297ZM86.0877 36L86.0317 34.698V26.2H87.1517V36H86.0877ZM83.6657 36.168C83.0404 36.168 82.4897 36.014 82.0137 35.706C81.5377 35.398 81.1644 34.9687 80.8937 34.418C80.6324 33.858 80.5017 33.2187 80.5017 32.5C80.5017 31.772 80.6324 31.1327 80.8937 30.582C81.1644 30.0313 81.5377 29.602 82.0137 29.294C82.4897 28.986 83.0404 28.832 83.6657 28.832C84.2537 28.832 84.7671 28.986 85.2057 29.294C85.6537 29.602 85.9991 30.0313 86.2417 30.582C86.4844 31.1327 86.6057 31.772 86.6057 32.5C86.6057 33.2187 86.4844 33.858 86.2417 34.418C85.9991 34.9687 85.6537 35.398 85.2057 35.706C84.7671 36.014 84.2537 36.168 83.6657 36.168ZM83.9177 35.146C84.3284 35.146 84.6924 35.034 85.0097 34.81C85.3271 34.586 85.5744 34.2733 85.7517 33.872C85.9384 33.4707 86.0317 33.0133 86.0317 32.5C86.0317 31.9867 85.9384 31.5293 85.7517 31.128C85.5744 30.7267 85.3271 30.414 85.0097 30.19C84.6924 29.966 84.3237 29.854 83.9037 29.854C83.4651 29.854 83.0731 29.966 82.7277 30.19C82.3917 30.414 82.1257 30.7267 81.9297 31.128C81.7337 31.5293 81.6357 31.9867 81.6357 32.5C81.6357 33.0133 81.7337 33.4707 81.9297 33.872C82.1257 34.2733 82.3964 34.586 82.7417 34.81C83.0871 35.034 83.4791 35.146 83.9177 35.146ZM89.1809 36L89.2089 29H90.3289L90.3009 36H89.1809ZM89.7549 27.376C89.5682 27.376 89.4049 27.306 89.2649 27.166C89.1249 27.026 89.0549 26.8627 89.0549 26.676C89.0549 26.48 89.1249 26.3167 89.2649 26.186C89.4049 26.046 89.5682 25.976 89.7549 25.976C89.9509 25.976 90.1142 26.046 90.2449 26.186C90.3849 26.3167 90.4549 26.48 90.4549 26.676C90.4549 26.8627 90.3849 27.026 90.2449 27.166C90.1142 27.306 89.9509 27.376 89.7549 27.376ZM94.8148 36.168C94.3014 36.168 93.8534 36.0933 93.4708 35.944C93.0881 35.7853 92.7661 35.58 92.5048 35.328C92.2528 35.076 92.0708 34.8007 91.9588 34.502L92.9388 34.096C93.0974 34.4133 93.3354 34.67 93.6528 34.866C93.9701 35.062 94.3201 35.16 94.7028 35.16C95.1414 35.16 95.5101 35.076 95.8088 34.908C96.1074 34.7307 96.2568 34.4833 96.2568 34.166C96.2568 33.8767 96.1448 33.6433 95.9208 33.466C95.7061 33.2887 95.3841 33.144 94.9548 33.032L94.2828 32.85C93.6481 32.682 93.1534 32.43 92.7988 32.094C92.4441 31.7487 92.2668 31.3613 92.2668 30.932C92.2668 30.2693 92.4814 29.756 92.9108 29.392C93.3494 29.0187 93.9981 28.832 94.8568 28.832C95.2674 28.832 95.6408 28.8927 95.9768 29.014C96.3128 29.1353 96.6021 29.308 96.8448 29.532C97.0874 29.7467 97.2648 30.0033 97.3768 30.302L96.3968 30.736C96.2754 30.4187 96.0748 30.19 95.7948 30.05C95.5148 29.91 95.1741 29.84 94.7728 29.84C94.3434 29.84 94.0074 29.9333 93.7648 30.12C93.5221 30.2973 93.4008 30.5493 93.4008 30.876C93.4008 31.0627 93.4988 31.24 93.6948 31.408C93.9001 31.5667 94.1988 31.6973 94.5908 31.8L95.2908 31.982C95.7481 32.094 96.1308 32.262 96.4388 32.486C96.7468 32.7007 96.9801 32.948 97.1388 33.228C97.2974 33.508 97.3768 33.8067 97.3768 34.124C97.3768 34.544 97.2648 34.908 97.0408 35.216C96.8168 35.524 96.5134 35.762 96.1308 35.93C95.7481 36.0887 95.3094 36.168 94.8148 36.168ZM98.8863 36V26.2H100.006V34.698L99.9503 36H98.8863ZM102.372 36.168C101.784 36.168 101.266 36.014 100.818 35.706C100.38 35.398 100.039 34.9687 99.7963 34.418C99.5536 33.858 99.4323 33.2187 99.4323 32.5C99.4323 31.772 99.5536 31.1327 99.7963 30.582C100.039 30.0313 100.38 29.602 100.818 29.294C101.266 28.986 101.784 28.832 102.372 28.832C102.998 28.832 103.548 28.986 104.024 29.294C104.5 29.602 104.869 30.0313 105.13 30.582C105.401 31.1327 105.536 31.772 105.536 32.5C105.536 33.2187 105.401 33.858 105.13 34.418C104.869 34.9687 104.5 35.398 104.024 35.706C103.548 36.014 102.998 36.168 102.372 36.168ZM102.12 35.146C102.559 35.146 102.946 35.034 103.282 34.81C103.628 34.586 103.898 34.2733 104.094 33.872C104.3 33.4707 104.402 33.0133 104.402 32.5C104.402 31.9867 104.304 31.5293 104.108 31.128C103.922 30.7267 103.656 30.414 103.31 30.19C102.965 29.966 102.573 29.854 102.134 29.854C101.724 29.854 101.355 29.966 101.028 30.19C100.711 30.414 100.459 30.7267 100.272 31.128C100.095 31.5293 100.006 31.9867 100.006 32.5C100.006 33.0133 100.095 33.4707 100.272 33.872C100.459 34.2733 100.711 34.586 101.028 34.81C101.346 35.034 101.71 35.146 102.12 35.146ZM111.891 36L111.821 34.712V29H112.941V36H111.891ZM106.907 33.004V29H108.027V32.584L106.907 33.004ZM108.027 32.584C108.027 33.2747 108.107 33.802 108.265 34.166C108.424 34.53 108.643 34.782 108.923 34.922C109.213 35.0527 109.535 35.118 109.889 35.118C110.496 35.118 110.967 34.8987 111.303 34.46C111.649 34.0213 111.821 33.41 111.821 32.626H112.367C112.367 33.3633 112.26 33.998 112.045 34.53C111.831 35.062 111.518 35.468 111.107 35.748C110.706 36.028 110.216 36.168 109.637 36.168C108.788 36.168 108.116 35.9067 107.621 35.384C107.136 34.8613 106.898 34.068 106.907 33.004L108.027 32.584ZM115.512 32.206C115.512 31.45 115.657 30.8387 115.946 30.372C116.235 29.896 116.604 29.546 117.052 29.322C117.509 29.0887 117.99 28.972 118.494 28.972V30.022C118.083 30.022 117.687 30.092 117.304 30.232C116.931 30.3627 116.623 30.582 116.38 30.89C116.137 31.198 116.016 31.618 116.016 32.15L115.512 32.206ZM114.896 36V29H116.016V36H114.896ZM122.076 36.168C121.563 36.168 121.115 36.0933 120.732 35.944C120.35 35.7853 120.028 35.58 119.766 35.328C119.514 35.076 119.332 34.8007 119.22 34.502L120.2 34.096C120.359 34.4133 120.597 34.67 120.914 34.866C121.232 35.062 121.582 35.16 121.964 35.16C122.403 35.16 122.772 35.076 123.07 34.908C123.369 34.7307 123.518 34.4833 123.518 34.166C123.518 33.8767 123.406 33.6433 123.182 33.466C122.968 33.2887 122.646 33.144 122.216 33.032L121.544 32.85C120.91 32.682 120.415 32.43 120.06 32.094C119.706 31.7487 119.528 31.3613 119.528 30.932C119.528 30.2693 119.743 29.756 120.172 29.392C120.611 29.0187 121.26 28.832 122.118 28.832C122.529 28.832 122.902 28.8927 123.238 29.014C123.574 29.1353 123.864 29.308 124.106 29.532C124.349 29.7467 124.526 30.0033 124.638 30.302L123.658 30.736C123.537 30.4187 123.336 30.19 123.056 30.05C122.776 29.91 122.436 29.84 122.034 29.84C121.605 29.84 121.269 29.9333 121.026 30.12C120.784 30.2973 120.662 30.5493 120.662 30.876C120.662 31.0627 120.76 31.24 120.956 31.408C121.162 31.5667 121.46 31.6973 121.852 31.8L122.552 31.982C123.01 32.094 123.392 32.262 123.7 32.486C124.008 32.7007 124.242 32.948 124.4 33.228C124.559 33.508 124.638 33.8067 124.638 34.124C124.638 34.544 124.526 34.908 124.302 35.216C124.078 35.524 123.775 35.762 123.392 35.93C123.01 36.0887 122.571 36.168 122.076 36.168ZM129.214 36.168C128.533 36.168 127.931 36.014 127.408 35.706C126.885 35.3887 126.475 34.9547 126.176 34.404C125.887 33.8533 125.742 33.2187 125.742 32.5C125.742 31.7813 125.887 31.1467 126.176 30.596C126.475 30.0453 126.881 29.616 127.394 29.308C127.917 28.9907 128.514 28.832 129.186 28.832C129.83 28.832 130.39 28.9953 130.866 29.322C131.351 29.6393 131.725 30.0873 131.986 30.666C132.247 31.2447 132.378 31.926 132.378 32.71H131.258C131.258 32.1127 131.179 31.604 131.02 31.184C130.861 30.7547 130.623 30.4233 130.306 30.19C129.998 29.9567 129.62 29.84 129.172 29.84C128.715 29.84 128.309 29.952 127.954 30.176C127.609 30.3907 127.343 30.6987 127.156 31.1C126.969 31.5013 126.876 31.9727 126.876 32.514C126.876 33.046 126.979 33.508 127.184 33.9C127.389 34.2827 127.674 34.586 128.038 34.81C128.402 35.0247 128.813 35.132 129.27 35.132C129.755 35.132 130.166 35.0153 130.502 34.782C130.838 34.5487 131.104 34.2453 131.3 33.872L132.28 34.362C132.103 34.726 131.865 35.0433 131.566 35.314C131.277 35.5847 130.931 35.7947 130.53 35.944C130.138 36.0933 129.699 36.168 129.214 36.168ZM126.484 32.71L126.498 31.744H131.692V32.71H126.484ZM133.791 36V29H134.841L134.911 30.288V36H133.791ZM138.705 36V32.416L139.825 31.996V36H138.705ZM143.633 36V32.416L144.753 31.996V36H143.633ZM138.705 32.416C138.705 31.7253 138.625 31.198 138.467 30.834C138.308 30.47 138.089 30.2227 137.809 30.092C137.529 29.952 137.211 29.882 136.857 29.882C136.241 29.882 135.76 30.1013 135.415 30.54C135.079 30.9693 134.911 31.5807 134.911 32.374H134.365C134.365 31.6367 134.472 31.002 134.687 30.47C134.901 29.938 135.209 29.532 135.611 29.252C136.021 28.972 136.516 28.832 137.095 28.832C137.944 28.832 138.611 29.0933 139.097 29.616C139.591 30.1387 139.834 30.932 139.825 31.996L138.705 32.416ZM143.633 32.416C143.633 31.7253 143.549 31.198 143.381 30.834C143.222 30.47 143.003 30.2227 142.723 30.092C142.443 29.952 142.125 29.882 141.771 29.882C141.155 29.882 140.674 30.1013 140.329 30.54C139.993 30.9693 139.825 31.5807 139.825 32.374H139.279C139.279 31.6367 139.386 31.002 139.601 30.47C139.815 29.938 140.128 29.532 140.539 29.252C140.949 28.972 141.444 28.832 142.023 28.832C142.863 28.832 143.525 29.0933 144.011 29.616C144.505 30.1387 144.753 30.932 144.753 31.996L143.633 32.416ZM149.585 36.168C148.904 36.168 148.302 36.014 147.779 35.706C147.256 35.3887 146.846 34.9547 146.547 34.404C146.258 33.8533 146.113 33.2187 146.113 32.5C146.113 31.7813 146.258 31.1467 146.547 30.596C146.846 30.0453 147.252 29.616 147.765 29.308C148.288 28.9907 148.885 28.832 149.557 28.832C150.201 28.832 150.761 28.9953 151.237 29.322C151.722 29.6393 152.096 30.0873 152.357 30.666C152.618 31.2447 152.749 31.926 152.749 32.71H151.629C151.629 32.1127 151.55 31.604 151.391 31.184C151.232 30.7547 150.994 30.4233 150.677 30.19C150.369 29.9567 149.991 29.84 149.543 29.84C149.086 29.84 148.68 29.952 148.325 30.176C147.98 30.3907 147.714 30.6987 147.527 31.1C147.34 31.5013 147.247 31.9727 147.247 32.514C147.247 33.046 147.35 33.508 147.555 33.9C147.76 34.2827 148.045 34.586 148.409 34.81C148.773 35.0247 149.184 35.132 149.641 35.132C150.126 35.132 150.537 35.0153 150.873 34.782C151.209 34.5487 151.475 34.2453 151.671 33.872L152.651 34.362C152.474 34.726 152.236 35.0433 151.937 35.314C151.648 35.5847 151.302 35.7947 150.901 35.944C150.509 36.0933 150.07 36.168 149.585 36.168ZM146.855 32.71L146.869 31.744H152.063V32.71H146.855ZM154.162 36V29H155.212L155.282 30.288V36H154.162ZM159.076 36V32.416L160.196 31.996V36H159.076ZM159.076 32.416C159.076 31.7253 158.996 31.198 158.838 30.834C158.679 30.47 158.46 30.2227 158.18 30.092C157.9 29.952 157.582 29.882 157.228 29.882C156.612 29.882 156.131 30.1013 155.786 30.54C155.45 30.9693 155.282 31.5807 155.282 32.374H154.736C154.736 31.6367 154.843 31.002 155.058 30.47C155.272 29.938 155.58 29.532 155.982 29.252C156.392 28.972 156.887 28.832 157.466 28.832C158.315 28.832 158.982 29.0933 159.468 29.616C159.962 30.1387 160.205 30.932 160.196 31.996L159.076 32.416ZM164.6 36.168C163.919 36.168 163.392 35.9907 163.018 35.636C162.645 35.2813 162.458 34.782 162.458 34.138V26.816H163.578V34.026C163.578 34.3807 163.672 34.656 163.858 34.852C164.054 35.0387 164.325 35.132 164.67 35.132C164.782 35.132 164.89 35.118 164.992 35.09C165.104 35.0527 165.249 34.9687 165.426 34.838L165.86 35.748C165.618 35.9067 165.398 36.014 165.202 36.07C165.006 36.1353 164.806 36.168 164.6 36.168ZM161.24 29.994V29H165.678V29.994H161.24Z" fill="#1A201D"/>
</g>
<defs>
<filter id="filter0_dddd_850_19419" x="0" y="0" width="224" height="86" filterUnits="userSpaceOnUse" color-interpolation-filters="sRGB">
<feFlood flood-opacity="0" result="BackgroundImageFix"/>
<feColorMatrix in="SourceAlpha" type="matrix" values="0 0 0 0 0 0 0 0 0 0 0 0 0 0 0 0 0 0 127 0" result="hardAlpha"/>
<feOffset dx="2" dy="1"/>
<feGaussianBlur stdDeviation="2"/>
<feColorMatrix type="matrix" values="0 0 0 0 0 0 0 0 0 0 0 0 0 0 0 0 0 0 0.1 0"/>
<feBlend mode="normal" in2="BackgroundImageFix" result="effect1_dropShadow_850_19419"/>
<feColorMatrix in="SourceAlpha" type="matrix" values="0 0 0 0 0 0 0 0 0 0 0 0 0 0 0 0 0 0 127 0" result="hardAlpha"/>
<feOffset dx="6" dy="4"/>
<feGaussianBlur stdDeviation="3.5"/>
<feColorMatrix type="matrix" values="0 0 0 0 0 0 0 0 0 0 0 0 0 0 0 0 0 0 0.09 0"/>
<feBlend mode="normal" in2="effect1_dropShadow_850_19419" result="effect2_dropShadow_850_19419"/>
<feColorMatrix in="SourceAlpha" type="matrix" values="0 0 0 0 0 0 0 0 0 0 0 0 0 0 0 0 0 0 127 0" result="hardAlpha"/>
<feOffset dx="14" dy="9"/>
<feGaussianBlur stdDeviation="5"/>
<feColorMatrix type="matrix" values="0 0 0 0 0 0 0 0 0 0 0 0 0 0 0 0 0 0 0.05 0"/>
<feBlend mode="normal" in2="effect2_dropShadow_850_19419" result="effect3_dropShadow_850_19419"/>
<feColorMatrix in="SourceAlpha" type="matrix" values="0 0 0 0 0 0 0 0 0 0 0 0 0 0 0 0 0 0 127 0" result="hardAlpha"/>
<feOffset dx="24" dy="15"/>
<feGaussianBlur stdDeviation="6"/>
<feColorMatrix type="matrix" values="0 0 0 0 0 0 0 0 0 0 0 0 0 0 0 0 0 0 0.01 0"/>
<feBlend mode="normal" in2="effect3_dropShadow_850_19419" result="effect4_dropShadow_850_19419"/>
<feBlend mode="normal" in="SourceGraphic" in2="effect4_dropShadow_850_19419" result="shape"/>
</filter>
</defs>
</svg>
