<svg width="243" height="86" viewBox="0 0 243 86" fill="none" xmlns="http://www.w3.org/2000/svg">
<g filter="url(#filter0_dddd_850_19428)">
<rect x="2" y="3" width="205" height="56" rx="12" fill="#FAEFEF"/>
<rect x="2.5" y="3.5" width="204" height="55" rx="11.5" stroke="#EAF3EE"/>
<rect x="18" y="19" width="24" height="24" rx="12" fill="white"/>
<path d="M33.332 25.334H26.6654C24.6654 25.334 23.332 26.334 23.332 28.6673V33.334C23.332 35.6673 24.6654 36.6673 26.6654 36.6673H33.332C35.332 36.6673 36.6654 35.6673 36.6654 33.334V28.6673C36.6654 26.334 35.332 25.334 33.332 25.334ZM26.1654 32.6673C26.1654 32.9407 25.9387 33.1673 25.6654 33.1673C25.392 33.1673 25.1654 32.9407 25.1654 32.6673V29.334C25.1654 29.0607 25.392 28.834 25.6654 28.834C25.9387 28.834 26.1654 29.0607 26.1654 29.334V32.6673ZM29.9987 33.0007C28.892 33.0007 27.9987 32.1073 27.9987 31.0007C27.9987 29.894 28.892 29.0007 29.9987 29.0007C31.1054 29.0007 31.9987 29.894 31.9987 31.0007C31.9987 32.1073 31.1054 33.0007 29.9987 33.0007ZM34.832 32.6673C34.832 32.9407 34.6054 33.1673 34.332 33.1673C34.0587 33.1673 33.832 32.9407 33.832 32.6673V29.334C33.832 29.0607 34.0587 28.834 34.332 28.834C34.6054 28.834 34.832 29.0607 34.832 29.334V32.6673Z" fill="#2A8851"/>
<path d="M58.344 36L51.582 26.858L52.506 26.2L59.268 35.328L58.344 36ZM51.302 36V26.2H52.506L52.492 27.138V36H51.302ZM58.344 36V26.2H59.534V36H58.344ZM64.9158 36.168C64.2345 36.168 63.6278 36.014 63.0958 35.706C62.5731 35.3887 62.1625 34.9547 61.8638 34.404C61.5651 33.8533 61.4158 33.2187 61.4158 32.5C61.4158 31.7813 61.5605 31.1467 61.8498 30.596C62.1485 30.0453 62.5591 29.616 63.0818 29.308C63.6138 28.9907 64.2158 28.832 64.8878 28.832C65.5785 28.832 66.1851 28.9907 66.7078 29.308C67.2398 29.616 67.6505 30.0453 67.9398 30.596C68.2385 31.1467 68.3878 31.7813 68.3878 32.5C68.3878 33.2187 68.2385 33.8533 67.9398 34.404C67.6505 34.9547 67.2445 35.3887 66.7218 35.706C66.1991 36.014 65.5971 36.168 64.9158 36.168ZM64.9158 35.132C65.3825 35.132 65.7885 35.02 66.1338 34.796C66.4791 34.572 66.7498 34.264 66.9458 33.872C67.1511 33.48 67.2538 33.0227 67.2538 32.5C67.2538 31.9773 67.1511 31.52 66.9458 31.128C66.7498 30.736 66.4745 30.428 66.1198 30.204C65.7651 29.98 65.3545 29.868 64.8878 29.868C64.4305 29.868 64.0245 29.98 63.6698 30.204C63.3245 30.428 63.0491 30.736 62.8438 31.128C62.6478 31.52 62.5498 31.9773 62.5498 32.5C62.5498 33.0133 62.6478 33.4707 62.8438 33.872C63.0491 34.264 63.3291 34.572 63.6838 34.796C64.0478 35.02 64.4585 35.132 64.9158 35.132ZM76.5239 36.168C75.8332 36.168 75.2219 36.014 74.6899 35.706C74.1579 35.3887 73.7425 34.9547 73.4439 34.404C73.1452 33.8533 72.9959 33.2187 72.9959 32.5C72.9959 31.7813 73.1405 31.1467 73.4299 30.596C73.7285 30.0453 74.1439 29.616 74.6759 29.308C75.2079 28.9907 75.8145 28.832 76.4959 28.832C77.1679 28.832 77.7699 28.986 78.3019 29.294C78.8339 29.602 79.2399 30.036 79.5199 30.596L78.4979 31.058C78.3112 30.6847 78.0405 30.3953 77.6859 30.19C77.3312 29.9753 76.9252 29.868 76.4679 29.868C76.0105 29.868 75.6045 29.98 75.2499 30.204C74.9045 30.428 74.6292 30.7407 74.4239 31.142C74.2279 31.534 74.1299 31.9867 74.1299 32.5C74.1299 33.0133 74.2279 33.4707 74.4239 33.872C74.6292 34.264 74.9092 34.572 75.2639 34.796C75.6279 35.02 76.0385 35.132 76.4959 35.132C76.9532 35.132 77.3592 35.0153 77.7139 34.782C78.0779 34.5487 78.3532 34.222 78.5399 33.802L79.5619 34.264C79.2819 34.8613 78.8759 35.328 78.3439 35.664C77.8119 36 77.2052 36.168 76.5239 36.168ZM84.0701 36.168C83.3888 36.168 82.7821 36.014 82.2501 35.706C81.7274 35.3887 81.3168 34.9547 81.0181 34.404C80.7194 33.8533 80.5701 33.2187 80.5701 32.5C80.5701 31.7813 80.7148 31.1467 81.0041 30.596C81.3028 30.0453 81.7134 29.616 82.2361 29.308C82.7681 28.9907 83.3701 28.832 84.0421 28.832C84.7328 28.832 85.3394 28.9907 85.8621 29.308C86.3941 29.616 86.8048 30.0453 87.0941 30.596C87.3928 31.1467 87.5421 31.7813 87.5421 32.5C87.5421 33.2187 87.3928 33.8533 87.0941 34.404C86.8048 34.9547 86.3988 35.3887 85.8761 35.706C85.3534 36.014 84.7514 36.168 84.0701 36.168ZM84.0701 35.132C84.5368 35.132 84.9428 35.02 85.2881 34.796C85.6334 34.572 85.9041 34.264 86.1001 33.872C86.3054 33.48 86.4081 33.0227 86.4081 32.5C86.4081 31.9773 86.3054 31.52 86.1001 31.128C85.9041 30.736 85.6288 30.428 85.2741 30.204C84.9194 29.98 84.5088 29.868 84.0421 29.868C83.5848 29.868 83.1788 29.98 82.8241 30.204C82.4788 30.428 82.2034 30.736 81.9981 31.128C81.8021 31.52 81.7041 31.9773 81.7041 32.5C81.7041 33.0133 81.8021 33.4707 81.9981 33.872C82.2034 34.264 82.4834 34.572 82.8381 34.796C83.2021 35.02 83.6128 35.132 84.0701 35.132ZM89.0972 36V26.2H90.2172V36H89.0972ZM92.1734 36V26.2H93.2934V36H92.1734ZM99.5615 36L99.4915 34.852V32.304C99.4915 31.7533 99.4262 31.3007 99.2955 30.946C99.1742 30.582 98.9829 30.3113 98.7215 30.134C98.4695 29.9473 98.1335 29.854 97.7135 29.854C97.3122 29.854 96.9622 29.9333 96.6635 30.092C96.3742 30.2507 96.1362 30.498 95.9495 30.834L94.9415 30.428C95.1282 30.1013 95.3522 29.8167 95.6135 29.574C95.8749 29.3313 96.1782 29.1493 96.5235 29.028C96.8782 28.8973 97.2795 28.832 97.7275 28.832C98.3715 28.832 98.9082 28.958 99.3375 29.21C99.7669 29.462 100.089 29.84 100.304 30.344C100.518 30.8387 100.621 31.4593 100.612 32.206L100.598 36H99.5615ZM97.4615 36.168C96.6402 36.168 95.9962 35.9813 95.5295 35.608C95.0722 35.2253 94.8435 34.698 94.8435 34.026C94.8435 33.3167 95.0769 32.7753 95.5435 32.402C96.0195 32.0193 96.6822 31.828 97.5315 31.828H99.5335V32.766H97.7835C97.1302 32.766 96.6635 32.8733 96.3835 33.088C96.1129 33.3027 95.9775 33.6107 95.9775 34.012C95.9775 34.376 96.1129 34.6653 96.3835 34.88C96.6542 35.0853 97.0322 35.188 97.5175 35.188C97.9189 35.188 98.2689 35.0947 98.5675 34.908C98.8662 34.7213 99.0949 34.4693 99.2535 34.152C99.4122 33.8253 99.4915 33.4567 99.4915 33.046H100.178C100.178 33.998 99.9442 34.7587 99.4775 35.328C99.0109 35.888 98.3389 36.168 97.4615 36.168ZM105.018 36.168C104.337 36.168 103.81 35.9907 103.436 35.636C103.063 35.2813 102.876 34.782 102.876 34.138V26.816H103.996V34.026C103.996 34.3807 104.09 34.656 104.276 34.852C104.472 35.0387 104.743 35.132 105.088 35.132C105.2 35.132 105.308 35.118 105.41 35.09C105.522 35.0527 105.667 34.9687 105.844 34.838L106.278 35.748C106.036 35.9067 105.816 36.014 105.62 36.07C105.424 36.1353 105.224 36.168 105.018 36.168ZM101.658 29.994V29H106.096V29.994H101.658ZM110.702 36.168C110.021 36.168 109.419 36.014 108.896 35.706C108.374 35.3887 107.963 34.9547 107.664 34.404C107.375 33.8533 107.23 33.2187 107.23 32.5C107.23 31.7813 107.375 31.1467 107.664 30.596C107.963 30.0453 108.369 29.616 108.882 29.308C109.405 28.9907 110.002 28.832 110.674 28.832C111.318 28.832 111.878 28.9953 112.354 29.322C112.84 29.6393 113.213 30.0873 113.474 30.666C113.736 31.2447 113.866 31.926 113.866 32.71H112.746C112.746 32.1127 112.667 31.604 112.508 31.184C112.35 30.7547 112.112 30.4233 111.794 30.19C111.486 29.9567 111.108 29.84 110.66 29.84C110.203 29.84 109.797 29.952 109.442 30.176C109.097 30.3907 108.831 30.6987 108.644 31.1C108.458 31.5013 108.364 31.9727 108.364 32.514C108.364 33.046 108.467 33.508 108.672 33.9C108.878 34.2827 109.162 34.586 109.526 34.81C109.89 35.0247 110.301 35.132 110.758 35.132C111.244 35.132 111.654 35.0153 111.99 34.782C112.326 34.5487 112.592 34.2453 112.788 33.872L113.768 34.362C113.591 34.726 113.353 35.0433 113.054 35.314C112.765 35.5847 112.42 35.7947 112.018 35.944C111.626 36.0933 111.188 36.168 110.702 36.168ZM107.972 32.71L107.986 31.744H113.18V32.71H107.972ZM115.895 32.206C115.895 31.45 116.039 30.8387 116.329 30.372C116.618 29.896 116.987 29.546 117.435 29.322C117.892 29.0887 118.373 28.972 118.877 28.972V30.022C118.466 30.022 118.069 30.092 117.687 30.232C117.313 30.3627 117.005 30.582 116.763 30.89C116.52 31.198 116.399 31.618 116.399 32.15L115.895 32.206ZM115.279 36V29H116.399V36H115.279ZM124.321 36L124.251 34.852V32.304C124.251 31.7533 124.186 31.3007 124.055 30.946C123.934 30.582 123.743 30.3113 123.481 30.134C123.229 29.9473 122.893 29.854 122.473 29.854C122.072 29.854 121.722 29.9333 121.423 30.092C121.134 30.2507 120.896 30.498 120.709 30.834L119.701 30.428C119.888 30.1013 120.112 29.8167 120.373 29.574C120.635 29.3313 120.938 29.1493 121.283 29.028C121.638 28.8973 122.039 28.832 122.487 28.832C123.131 28.832 123.668 28.958 124.097 29.21C124.527 29.462 124.849 29.84 125.063 30.344C125.278 30.8387 125.381 31.4593 125.371 32.206L125.357 36H124.321ZM122.221 36.168C121.4 36.168 120.756 35.9813 120.289 35.608C119.832 35.2253 119.603 34.698 119.603 34.026C119.603 33.3167 119.837 32.7753 120.303 32.402C120.779 32.0193 121.442 31.828 122.291 31.828H124.293V32.766H122.543C121.89 32.766 121.423 32.8733 121.143 33.088C120.873 33.3027 120.737 33.6107 120.737 34.012C120.737 34.376 120.873 34.6653 121.143 34.88C121.414 35.0853 121.792 35.188 122.277 35.188C122.679 35.188 123.029 35.0947 123.327 34.908C123.626 34.7213 123.855 34.4693 124.013 34.152C124.172 33.8253 124.251 33.4567 124.251 33.046H124.937C124.937 33.998 124.704 34.7587 124.237 35.328C123.771 35.888 123.099 36.168 122.221 36.168ZM127.146 36V26.2H128.266V36H127.146ZM134.297 32.206C134.297 31.45 134.442 30.8387 134.731 30.372C135.021 29.896 135.389 29.546 135.837 29.322C136.295 29.0887 136.775 28.972 137.279 28.972V30.022C136.869 30.022 136.472 30.092 136.089 30.232C135.716 30.3627 135.408 30.582 135.165 30.89C134.923 31.198 134.801 31.618 134.801 32.15L134.297 32.206ZM133.681 36V29H134.801V36H133.681ZM141.478 36.168C140.796 36.168 140.194 36.014 139.672 35.706C139.149 35.3887 138.738 34.9547 138.44 34.404C138.15 33.8533 138.006 33.2187 138.006 32.5C138.006 31.7813 138.15 31.1467 138.44 30.596C138.738 30.0453 139.144 29.616 139.658 29.308C140.18 28.9907 140.778 28.832 141.45 28.832C142.094 28.832 142.654 28.9953 143.13 29.322C143.615 29.6393 143.988 30.0873 144.25 30.666C144.511 31.2447 144.642 31.926 144.642 32.71H143.522C143.522 32.1127 143.442 31.604 143.284 31.184C143.125 30.7547 142.887 30.4233 142.57 30.19C142.262 29.9567 141.884 29.84 141.436 29.84C140.978 29.84 140.572 29.952 140.218 30.176C139.872 30.3907 139.606 30.6987 139.42 31.1C139.233 31.5013 139.14 31.9727 139.14 32.514C139.14 33.046 139.242 33.508 139.448 33.9C139.653 34.2827 139.938 34.586 140.302 34.81C140.666 35.0247 141.076 35.132 141.534 35.132C142.019 35.132 142.43 35.0153 142.766 34.782C143.102 34.5487 143.368 34.2453 143.564 33.872L144.544 34.362C144.366 34.726 144.128 35.0433 143.83 35.314C143.54 35.5847 143.195 35.7947 142.794 35.944C142.402 36.0933 141.963 36.168 141.478 36.168ZM138.748 32.71L138.762 31.744H143.956V32.71H138.748ZM151.178 38.8V30.302L151.234 29H152.298V38.8H151.178ZM148.812 36.168C148.187 36.168 147.636 36.014 147.16 35.706C146.684 35.398 146.311 34.9687 146.04 34.418C145.779 33.858 145.648 33.2187 145.648 32.5C145.648 31.772 145.779 31.1327 146.04 30.582C146.311 30.0313 146.684 29.602 147.16 29.294C147.636 28.986 148.187 28.832 148.812 28.832C149.4 28.832 149.914 28.986 150.352 29.294C150.8 29.602 151.146 30.0313 151.388 30.582C151.631 31.1327 151.752 31.772 151.752 32.5C151.752 33.2187 151.631 33.858 151.388 34.418C151.146 34.9687 150.8 35.398 150.352 35.706C149.914 36.014 149.4 36.168 148.812 36.168ZM149.064 35.146C149.475 35.146 149.839 35.034 150.156 34.81C150.474 34.586 150.721 34.2733 150.898 33.872C151.085 33.4707 151.178 33.0133 151.178 32.5C151.178 31.9867 151.085 31.5293 150.898 31.128C150.721 30.7267 150.474 30.414 150.156 30.19C149.839 29.966 149.47 29.854 149.05 29.854C148.612 29.854 148.22 29.966 147.874 30.19C147.538 30.414 147.272 30.7267 147.076 31.128C146.88 31.5293 146.782 31.9867 146.782 32.5C146.782 33.0133 146.88 33.4707 147.076 33.872C147.272 34.2733 147.543 34.586 147.888 34.81C148.234 35.034 148.626 35.146 149.064 35.146ZM158.95 36L158.88 34.712V29H160V36H158.95ZM153.966 33.004V29H155.086V32.584L153.966 33.004ZM155.086 32.584C155.086 33.2747 155.165 33.802 155.324 34.166C155.483 34.53 155.702 34.782 155.982 34.922C156.271 35.0527 156.593 35.118 156.948 35.118C157.555 35.118 158.026 34.8987 158.362 34.46C158.707 34.0213 158.88 33.41 158.88 32.626H159.426C159.426 33.3633 159.319 33.998 159.104 34.53C158.889 35.062 158.577 35.468 158.166 35.748C157.765 36.028 157.275 36.168 156.696 36.168C155.847 36.168 155.175 35.9067 154.68 35.384C154.195 34.8613 153.957 34.068 153.966 33.004L155.086 32.584ZM162.025 36L162.053 29H163.173L163.145 36H162.025ZM162.599 27.376C162.412 27.376 162.249 27.306 162.109 27.166C161.969 27.026 161.899 26.8627 161.899 26.676C161.899 26.48 161.969 26.3167 162.109 26.186C162.249 26.046 162.412 25.976 162.599 25.976C162.795 25.976 162.958 26.046 163.089 26.186C163.229 26.3167 163.299 26.48 163.299 26.676C163.299 26.8627 163.229 27.026 163.089 27.166C162.958 27.306 162.795 27.376 162.599 27.376ZM165.825 32.206C165.825 31.45 165.969 30.8387 166.259 30.372C166.548 29.896 166.917 29.546 167.365 29.322C167.822 29.0887 168.303 28.972 168.807 28.972V30.022C168.396 30.022 167.999 30.092 167.617 30.232C167.243 30.3627 166.935 30.582 166.693 30.89C166.45 31.198 166.329 31.618 166.329 32.15L165.825 32.206ZM165.209 36V29H166.329V36H165.209ZM173.005 36.168C172.324 36.168 171.722 36.014 171.199 35.706C170.676 35.3887 170.266 34.9547 169.967 34.404C169.678 33.8533 169.533 33.2187 169.533 32.5C169.533 31.7813 169.678 31.1467 169.967 30.596C170.266 30.0453 170.672 29.616 171.185 29.308C171.708 28.9907 172.305 28.832 172.977 28.832C173.621 28.832 174.181 28.9953 174.657 29.322C175.142 29.6393 175.516 30.0873 175.777 30.666C176.038 31.2447 176.169 31.926 176.169 32.71H175.049C175.049 32.1127 174.97 31.604 174.811 31.184C174.652 30.7547 174.414 30.4233 174.097 30.19C173.789 29.9567 173.411 29.84 172.963 29.84C172.506 29.84 172.1 29.952 171.745 30.176C171.4 30.3907 171.134 30.6987 170.947 31.1C170.76 31.5013 170.667 31.9727 170.667 32.514C170.667 33.046 170.77 33.508 170.975 33.9C171.18 34.2827 171.465 34.586 171.829 34.81C172.193 35.0247 172.604 35.132 173.061 35.132C173.546 35.132 173.957 35.0153 174.293 34.782C174.629 34.5487 174.895 34.2453 175.091 33.872L176.071 34.362C175.894 34.726 175.656 35.0433 175.357 35.314C175.068 35.5847 174.722 35.7947 174.321 35.944C173.929 36.0933 173.49 36.168 173.005 36.168ZM170.275 32.71L170.289 31.744H175.483V32.71H170.275ZM182.762 36L182.706 34.698V26.2H183.826V36H182.762ZM180.34 36.168C179.714 36.168 179.164 36.014 178.688 35.706C178.212 35.398 177.838 34.9687 177.568 34.418C177.306 33.858 177.176 33.2187 177.176 32.5C177.176 31.772 177.306 31.1327 177.568 30.582C177.838 30.0313 178.212 29.602 178.688 29.294C179.164 28.986 179.714 28.832 180.34 28.832C180.928 28.832 181.441 28.986 181.88 29.294C182.328 29.602 182.673 30.0313 182.916 30.582C183.158 31.1327 183.28 31.772 183.28 32.5C183.28 33.2187 183.158 33.858 182.916 34.418C182.673 34.9687 182.328 35.398 181.88 35.706C181.441 36.014 180.928 36.168 180.34 36.168ZM180.592 35.146C181.002 35.146 181.366 35.034 181.684 34.81C182.001 34.586 182.248 34.2733 182.426 33.872C182.612 33.4707 182.706 33.0133 182.706 32.5C182.706 31.9867 182.612 31.5293 182.426 31.128C182.248 30.7267 182.001 30.414 181.684 30.19C181.366 29.966 180.998 29.854 180.578 29.854C180.139 29.854 179.747 29.966 179.402 30.19C179.066 30.414 178.8 30.7267 178.604 31.128C178.408 31.5293 178.31 31.9867 178.31 32.5C178.31 33.0133 178.408 33.4707 178.604 33.872C178.8 34.2733 179.07 34.586 179.416 34.81C179.761 35.034 180.153 35.146 180.592 35.146Z" fill="#1A201D"/>
</g>
<defs>
<filter id="filter0_dddd_850_19428" x="0" y="0" width="243" height="86" filterUnits="userSpaceOnUse" color-interpolation-filters="sRGB">
<feFlood flood-opacity="0" result="BackgroundImageFix"/>
<feColorMatrix in="SourceAlpha" type="matrix" values="0 0 0 0 0 0 0 0 0 0 0 0 0 0 0 0 0 0 127 0" result="hardAlpha"/>
<feOffset dx="2" dy="1"/>
<feGaussianBlur stdDeviation="2"/>
<feColorMatrix type="matrix" values="0 0 0 0 0 0 0 0 0 0 0 0 0 0 0 0 0 0 0.1 0"/>
<feBlend mode="normal" in2="BackgroundImageFix" result="effect1_dropShadow_850_19428"/>
<feColorMatrix in="SourceAlpha" type="matrix" values="0 0 0 0 0 0 0 0 0 0 0 0 0 0 0 0 0 0 127 0" result="hardAlpha"/>
<feOffset dx="6" dy="4"/>
<feGaussianBlur stdDeviation="3.5"/>
<feColorMatrix type="matrix" values="0 0 0 0 0 0 0 0 0 0 0 0 0 0 0 0 0 0 0.09 0"/>
<feBlend mode="normal" in2="effect1_dropShadow_850_19428" result="effect2_dropShadow_850_19428"/>
<feColorMatrix in="SourceAlpha" type="matrix" values="0 0 0 0 0 0 0 0 0 0 0 0 0 0 0 0 0 0 127 0" result="hardAlpha"/>
<feOffset dx="14" dy="9"/>
<feGaussianBlur stdDeviation="5"/>
<feColorMatrix type="matrix" values="0 0 0 0 0 0 0 0 0 0 0 0 0 0 0 0 0 0 0.05 0"/>
<feBlend mode="normal" in2="effect2_dropShadow_850_19428" result="effect3_dropShadow_850_19428"/>
<feColorMatrix in="SourceAlpha" type="matrix" values="0 0 0 0 0 0 0 0 0 0 0 0 0 0 0 0 0 0 127 0" result="hardAlpha"/>
<feOffset dx="24" dy="15"/>
<feGaussianBlur stdDeviation="6"/>
<feColorMatrix type="matrix" values="0 0 0 0 0 0 0 0 0 0 0 0 0 0 0 0 0 0 0.01 0"/>
<feBlend mode="normal" in2="effect3_dropShadow_850_19428" result="effect4_dropShadow_850_19428"/>
<feBlend mode="normal" in="SourceGraphic" in2="effect4_dropShadow_850_19428" result="shape"/>
</filter>
</defs>
</svg>
