<svg width="273" height="81" viewBox="0 0 273 81" fill="none" xmlns="http://www.w3.org/2000/svg">
<g filter="url(#filter0_dddd_850_19436)">
<rect x="2" y="3" width="235" height="56" rx="12" fill="#DFEDE5"/>
<rect x="2.5" y="3.5" width="234" height="55" rx="11.5" stroke="#EAF3EE"/>
<rect x="18" y="19" width="24" height="24" rx="12" fill="white"/>
<path d="M33.332 25.334H26.6654C24.6654 25.334 23.332 26.334 23.332 28.6673V33.334C23.332 35.6673 24.6654 36.6673 26.6654 36.6673H33.332C35.332 36.6673 36.6654 35.6673 36.6654 33.334V28.6673C36.6654 26.334 35.332 25.334 33.332 25.334ZM26.1654 32.6673C26.1654 32.9407 25.9387 33.1673 25.6654 33.1673C25.392 33.1673 25.1654 32.9407 25.1654 32.6673V29.334C25.1654 29.0607 25.392 28.834 25.6654 28.834C25.9387 28.834 26.1654 29.0607 26.1654 29.334V32.6673ZM29.9987 33.0007C28.892 33.0007 27.9987 32.1073 27.9987 31.0007C27.9987 29.894 28.892 29.0007 29.9987 29.0007C31.1054 29.0007 31.9987 29.894 31.9987 31.0007C31.9987 32.1073 31.1054 33.0007 29.9987 33.0007ZM34.832 32.6673C34.832 32.9407 34.6054 33.1673 34.332 33.1673C34.0587 33.1673 33.832 32.9407 33.832 32.6673V29.334C33.832 29.0607 34.0587 28.834 34.332 28.834C34.6054 28.834 34.832 29.0607 34.832 29.334V32.6673Z" fill="#2A8851"/>
<path d="M51.302 36V26.2H52.492V36H51.302ZM52.38 31.702V30.624H56.58V31.702H52.38ZM52.38 27.278V26.2H57.126V27.278H52.38ZM58.5816 36V26.2H59.7016V36H58.5816ZM64.7237 36.168C64.0424 36.168 63.4404 36.014 62.9177 35.706C62.3951 35.3887 61.9844 34.9547 61.6857 34.404C61.3964 33.8533 61.2517 33.2187 61.2517 32.5C61.2517 31.7813 61.3964 31.1467 61.6857 30.596C61.9844 30.0453 62.3904 29.616 62.9037 29.308C63.4264 28.9907 64.0237 28.832 64.6957 28.832C65.3397 28.832 65.8997 28.9953 66.3757 29.322C66.8611 29.6393 67.2344 30.0873 67.4957 30.666C67.7571 31.2447 67.8877 31.926 67.8877 32.71H66.7677C66.7677 32.1127 66.6884 31.604 66.5297 31.184C66.3711 30.7547 66.1331 30.4233 65.8157 30.19C65.5077 29.9567 65.1297 29.84 64.6817 29.84C64.2244 29.84 63.8184 29.952 63.4637 30.176C63.1184 30.3907 62.8524 30.6987 62.6657 31.1C62.4791 31.5013 62.3857 31.9727 62.3857 32.514C62.3857 33.046 62.4884 33.508 62.6937 33.9C62.8991 34.2827 63.1837 34.586 63.5477 34.81C63.9117 35.0247 64.3224 35.132 64.7797 35.132C65.2651 35.132 65.6757 35.0153 66.0117 34.782C66.3477 34.5487 66.6137 34.2453 66.8097 33.872L67.7897 34.362C67.6124 34.726 67.3744 35.0433 67.0757 35.314C66.7864 35.5847 66.4411 35.7947 66.0397 35.944C65.6477 36.0933 65.2091 36.168 64.7237 36.168ZM61.9937 32.71L62.0077 31.744H67.2017V32.71H61.9937ZM68.392 36L71.248 31.982L73.264 29H74.594L71.934 32.78L69.75 36H68.392ZM73.418 36L71.262 32.78L68.574 29H69.904L71.934 31.982L74.762 36H73.418ZM75.9465 36L75.9745 29H77.0945L77.0665 36H75.9465ZM76.5205 27.376C76.3338 27.376 76.1705 27.306 76.0305 27.166C75.8905 27.026 75.8205 26.8627 75.8205 26.676C75.8205 26.48 75.8905 26.3167 76.0305 26.186C76.1705 26.046 76.3338 25.976 76.5205 25.976C76.7165 25.976 76.8798 26.046 77.0105 26.186C77.1505 26.3167 77.2205 26.48 77.2205 26.676C77.2205 26.8627 77.1505 27.026 77.0105 27.166C76.8798 27.306 76.7165 27.376 76.5205 27.376ZM79.1304 36V26.2H80.2504V34.698L80.1944 36H79.1304ZM82.6164 36.168C82.0284 36.168 81.5104 36.014 81.0624 35.706C80.6237 35.398 80.2831 34.9687 80.0404 34.418C79.7977 33.858 79.6764 33.2187 79.6764 32.5C79.6764 31.772 79.7977 31.1327 80.0404 30.582C80.2831 30.0313 80.6237 29.602 81.0624 29.294C81.5104 28.986 82.0284 28.832 82.6164 28.832C83.2417 28.832 83.7924 28.986 84.2684 29.294C84.7444 29.602 85.1131 30.0313 85.3744 30.582C85.6451 31.1327 85.7804 31.772 85.7804 32.5C85.7804 33.2187 85.6451 33.858 85.3744 34.418C85.1131 34.9687 84.7444 35.398 84.2684 35.706C83.7924 36.014 83.2417 36.168 82.6164 36.168ZM82.3644 35.146C82.8031 35.146 83.1904 35.034 83.5264 34.81C83.8717 34.586 84.1424 34.2733 84.3384 33.872C84.5437 33.4707 84.6464 33.0133 84.6464 32.5C84.6464 31.9867 84.5484 31.5293 84.3524 31.128C84.1657 30.7267 83.8997 30.414 83.5544 30.19C83.2091 29.966 82.8171 29.854 82.3784 29.854C81.9677 29.854 81.5991 29.966 81.2724 30.19C80.9551 30.414 80.7031 30.7267 80.5164 31.128C80.3391 31.5293 80.2504 31.9867 80.2504 32.5C80.2504 33.0133 80.3391 33.4707 80.5164 33.872C80.7031 34.2733 80.9551 34.586 81.2724 34.81C81.5897 35.034 81.9537 35.146 82.3644 35.146ZM87.3335 36V26.2H88.4535V36H87.3335ZM93.4757 36.168C92.7944 36.168 92.1924 36.014 91.6697 35.706C91.147 35.3887 90.7364 34.9547 90.4377 34.404C90.1484 33.8533 90.0037 33.2187 90.0037 32.5C90.0037 31.7813 90.1484 31.1467 90.4377 30.596C90.7364 30.0453 91.1424 29.616 91.6557 29.308C92.1784 28.9907 92.7757 28.832 93.4477 28.832C94.0917 28.832 94.6517 28.9953 95.1277 29.322C95.613 29.6393 95.9864 30.0873 96.2477 30.666C96.509 31.2447 96.6397 31.926 96.6397 32.71H95.5197C95.5197 32.1127 95.4404 31.604 95.2817 31.184C95.123 30.7547 94.885 30.4233 94.5677 30.19C94.2597 29.9567 93.8817 29.84 93.4337 29.84C92.9764 29.84 92.5704 29.952 92.2157 30.176C91.8704 30.3907 91.6044 30.6987 91.4177 31.1C91.231 31.5013 91.1377 31.9727 91.1377 32.514C91.1377 33.046 91.2404 33.508 91.4457 33.9C91.651 34.2827 91.9357 34.586 92.2997 34.81C92.6637 35.0247 93.0744 35.132 93.5317 35.132C94.017 35.132 94.4277 35.0153 94.7637 34.782C95.0997 34.5487 95.3657 34.2453 95.5617 33.872L96.5417 34.362C96.3644 34.726 96.1264 35.0433 95.8277 35.314C95.5384 35.5847 95.193 35.7947 94.7917 35.944C94.3997 36.0933 93.961 36.168 93.4757 36.168ZM90.7457 32.71L90.7597 31.744H95.9537V32.71H90.7457ZM102.127 32.206C102.127 31.45 102.272 30.8387 102.561 30.372C102.851 29.896 103.219 29.546 103.667 29.322C104.125 29.0887 104.605 28.972 105.109 28.972V30.022C104.699 30.022 104.302 30.092 103.919 30.232C103.546 30.3627 103.238 30.582 102.995 30.89C102.753 31.198 102.631 31.618 102.631 32.15L102.127 32.206ZM101.511 36V29H102.631V36H101.511ZM109.308 36.168C108.626 36.168 108.024 36.014 107.502 35.706C106.979 35.3887 106.568 34.9547 106.27 34.404C105.98 33.8533 105.836 33.2187 105.836 32.5C105.836 31.7813 105.98 31.1467 106.27 30.596C106.568 30.0453 106.974 29.616 107.488 29.308C108.01 28.9907 108.608 28.832 109.28 28.832C109.924 28.832 110.484 28.9953 110.96 29.322C111.445 29.6393 111.818 30.0873 112.08 30.666C112.341 31.2447 112.472 31.926 112.472 32.71H111.352C111.352 32.1127 111.272 31.604 111.114 31.184C110.955 30.7547 110.717 30.4233 110.4 30.19C110.092 29.9567 109.714 29.84 109.266 29.84C108.808 29.84 108.402 29.952 108.048 30.176C107.702 30.3907 107.436 30.6987 107.25 31.1C107.063 31.5013 106.97 31.9727 106.97 32.514C106.97 33.046 107.072 33.508 107.278 33.9C107.483 34.2827 107.768 34.586 108.132 34.81C108.496 35.0247 108.906 35.132 109.364 35.132C109.849 35.132 110.26 35.0153 110.596 34.782C110.932 34.5487 111.198 34.2453 111.394 33.872L112.374 34.362C112.196 34.726 111.958 35.0433 111.66 35.314C111.37 35.5847 111.025 35.7947 110.624 35.944C110.232 36.0933 109.793 36.168 109.308 36.168ZM106.578 32.71L106.592 31.744H111.786V32.71H106.578ZM113.954 38.8V29H115.004L115.074 30.288V38.8H113.954ZM117.44 36.168C116.852 36.168 116.334 36.014 115.886 35.706C115.448 35.398 115.107 34.9687 114.864 34.418C114.622 33.858 114.5 33.2187 114.5 32.5C114.5 31.772 114.622 31.1327 114.864 30.582C115.107 30.0313 115.448 29.602 115.886 29.294C116.334 28.986 116.852 28.832 117.44 28.832C118.066 28.832 118.616 28.986 119.092 29.294C119.568 29.602 119.937 30.0313 120.198 30.582C120.469 31.1327 120.604 31.772 120.604 32.5C120.604 33.2187 120.469 33.858 120.198 34.418C119.937 34.9687 119.568 35.398 119.092 35.706C118.616 36.014 118.066 36.168 117.44 36.168ZM117.188 35.146C117.627 35.146 118.014 35.034 118.35 34.81C118.696 34.586 118.966 34.2733 119.162 33.872C119.368 33.4707 119.47 33.0133 119.47 32.5C119.47 31.9867 119.372 31.5293 119.176 31.128C118.99 30.7267 118.724 30.414 118.378 30.19C118.033 29.966 117.641 29.854 117.202 29.854C116.792 29.854 116.423 29.966 116.096 30.19C115.779 30.414 115.527 30.7267 115.34 31.128C115.163 31.5293 115.074 31.9867 115.074 32.5C115.074 33.0133 115.163 33.4707 115.34 33.872C115.527 34.2733 115.779 34.586 116.096 34.81C116.414 35.034 116.778 35.146 117.188 35.146ZM126.468 36L126.398 34.852V32.304C126.398 31.7533 126.332 31.3007 126.202 30.946C126.08 30.582 125.889 30.3113 125.628 30.134C125.376 29.9473 125.04 29.854 124.62 29.854C124.218 29.854 123.868 29.9333 123.57 30.092C123.28 30.2507 123.042 30.498 122.856 30.834L121.848 30.428C122.034 30.1013 122.258 29.8167 122.52 29.574C122.781 29.3313 123.084 29.1493 123.43 29.028C123.784 28.8973 124.186 28.832 124.634 28.832C125.278 28.832 125.814 28.958 126.244 29.21C126.673 29.462 126.995 29.84 127.21 30.344C127.424 30.8387 127.527 31.4593 127.518 32.206L127.504 36H126.468ZM124.368 36.168C123.546 36.168 122.902 35.9813 122.436 35.608C121.978 35.2253 121.75 34.698 121.75 34.026C121.75 33.3167 121.983 32.7753 122.45 32.402C122.926 32.0193 123.588 31.828 124.438 31.828H126.44V32.766H124.69C124.036 32.766 123.57 32.8733 123.29 33.088C123.019 33.3027 122.884 33.6107 122.884 34.012C122.884 34.376 123.019 34.6653 123.29 34.88C123.56 35.0853 123.938 35.188 124.424 35.188C124.825 35.188 125.175 35.0947 125.474 34.908C125.772 34.7213 126.001 34.4693 126.16 34.152C126.318 33.8253 126.398 33.4567 126.398 33.046H127.084C127.084 33.998 126.85 34.7587 126.384 35.328C125.917 35.888 125.245 36.168 124.368 36.168ZM129.813 38.968C129.636 38.968 129.43 38.9307 129.197 38.856C128.964 38.7907 128.716 38.702 128.455 38.59L128.875 37.652C129.09 37.7453 129.276 37.8153 129.435 37.862C129.603 37.9087 129.734 37.932 129.827 37.932C130.079 37.932 130.284 37.862 130.443 37.722C130.611 37.5913 130.751 37.4 130.863 37.148L131.661 35.244L134.251 29H135.455L132.095 36.98C131.918 37.3907 131.731 37.7453 131.535 38.044C131.348 38.3427 131.12 38.5713 130.849 38.73C130.578 38.8887 130.233 38.968 129.813 38.968ZM131.353 36L128.329 29H129.519L132.123 35.23L132.459 36H131.353ZM136.552 36V29H137.602L137.672 30.288V36H136.552ZM141.466 36V32.416L142.586 31.996V36H141.466ZM146.394 36V32.416L147.514 31.996V36H146.394ZM141.466 32.416C141.466 31.7253 141.387 31.198 141.228 30.834C141.07 30.47 140.85 30.2227 140.57 30.092C140.29 29.952 139.973 29.882 139.618 29.882C139.002 29.882 138.522 30.1013 138.176 30.54C137.84 30.9693 137.672 31.5807 137.672 32.374H137.126C137.126 31.6367 137.234 31.002 137.448 30.47C137.663 29.938 137.971 29.532 138.372 29.252C138.783 28.972 139.278 28.832 139.856 28.832C140.706 28.832 141.373 29.0933 141.858 29.616C142.353 30.1387 142.596 30.932 142.586 31.996L141.466 32.416ZM146.394 32.416C146.394 31.7253 146.31 31.198 146.142 30.834C145.984 30.47 145.764 30.2227 145.484 30.092C145.204 29.952 144.887 29.882 144.532 29.882C143.916 29.882 143.436 30.1013 143.09 30.54C142.754 30.9693 142.586 31.5807 142.586 32.374H142.04C142.04 31.6367 142.148 31.002 142.362 30.47C142.577 29.938 142.89 29.532 143.3 29.252C143.711 28.972 144.206 28.832 144.784 28.832C145.624 28.832 146.287 29.0933 146.772 29.616C147.267 30.1387 147.514 30.932 147.514 31.996L146.394 32.416ZM152.347 36.168C151.665 36.168 151.063 36.014 150.541 35.706C150.018 35.3887 149.607 34.9547 149.309 34.404C149.019 33.8533 148.875 33.2187 148.875 32.5C148.875 31.7813 149.019 31.1467 149.309 30.596C149.607 30.0453 150.013 29.616 150.527 29.308C151.049 28.9907 151.647 28.832 152.319 28.832C152.963 28.832 153.523 28.9953 153.999 29.322C154.484 29.6393 154.857 30.0873 155.119 30.666C155.38 31.2447 155.511 31.926 155.511 32.71H154.391C154.391 32.1127 154.311 31.604 154.153 31.184C153.994 30.7547 153.756 30.4233 153.439 30.19C153.131 29.9567 152.753 29.84 152.305 29.84C151.847 29.84 151.441 29.952 151.087 30.176C150.741 30.3907 150.475 30.6987 150.289 31.1C150.102 31.5013 150.009 31.9727 150.009 32.514C150.009 33.046 150.111 33.508 150.317 33.9C150.522 34.2827 150.807 34.586 151.171 34.81C151.535 35.0247 151.945 35.132 152.403 35.132C152.888 35.132 153.299 35.0153 153.635 34.782C153.971 34.5487 154.237 34.2453 154.433 33.872L155.413 34.362C155.235 34.726 154.997 35.0433 154.699 35.314C154.409 35.5847 154.064 35.7947 153.663 35.944C153.271 36.0933 152.832 36.168 152.347 36.168ZM149.617 32.71L149.631 31.744H154.825V32.71H149.617ZM156.923 36V29H157.973L158.043 30.288V36H156.923ZM161.837 36V32.416L162.957 31.996V36H161.837ZM161.837 32.416C161.837 31.7253 161.758 31.198 161.599 30.834C161.441 30.47 161.221 30.2227 160.941 30.092C160.661 29.952 160.344 29.882 159.989 29.882C159.373 29.882 158.893 30.1013 158.547 30.54C158.211 30.9693 158.043 31.5807 158.043 32.374H157.497C157.497 31.6367 157.605 31.002 157.819 30.47C158.034 29.938 158.342 29.532 158.743 29.252C159.154 28.972 159.649 28.832 160.227 28.832C161.077 28.832 161.744 29.0933 162.229 29.616C162.724 30.1387 162.967 30.932 162.957 31.996L161.837 32.416ZM167.362 36.168C166.681 36.168 166.153 35.9907 165.78 35.636C165.407 35.2813 165.22 34.782 165.22 34.138V26.816H166.34V34.026C166.34 34.3807 166.433 34.656 166.62 34.852C166.816 35.0387 167.087 35.132 167.432 35.132C167.544 35.132 167.651 35.118 167.754 35.09C167.866 35.0527 168.011 34.9687 168.188 34.838L168.622 35.748C168.379 35.9067 168.16 36.014 167.964 36.07C167.768 36.1353 167.567 36.168 167.362 36.168ZM164.002 29.994V29H168.44V29.994H164.002ZM176.574 36.168C175.893 36.168 175.286 36.014 174.754 35.706C174.231 35.3887 173.821 34.9547 173.522 34.404C173.223 33.8533 173.074 33.2187 173.074 32.5C173.074 31.7813 173.219 31.1467 173.508 30.596C173.807 30.0453 174.217 29.616 174.74 29.308C175.272 28.9907 175.874 28.832 176.546 28.832C177.237 28.832 177.843 28.9907 178.366 29.308C178.898 29.616 179.309 30.0453 179.598 30.596C179.897 31.1467 180.046 31.7813 180.046 32.5C180.046 33.2187 179.897 33.8533 179.598 34.404C179.309 34.9547 178.903 35.3887 178.38 35.706C177.857 36.014 177.255 36.168 176.574 36.168ZM176.574 35.132C177.041 35.132 177.447 35.02 177.792 34.796C178.137 34.572 178.408 34.264 178.604 33.872C178.809 33.48 178.912 33.0227 178.912 32.5C178.912 31.9773 178.809 31.52 178.604 31.128C178.408 30.736 178.133 30.428 177.778 30.204C177.423 29.98 177.013 29.868 176.546 29.868C176.089 29.868 175.683 29.98 175.328 30.204C174.983 30.428 174.707 30.736 174.502 31.128C174.306 31.52 174.208 31.9773 174.208 32.5C174.208 33.0133 174.306 33.4707 174.502 33.872C174.707 34.264 174.987 34.572 175.342 34.796C175.706 35.02 176.117 35.132 176.574 35.132ZM181.671 38.8V29H182.721L182.791 30.288V38.8H181.671ZM185.157 36.168C184.569 36.168 184.051 36.014 183.603 35.706C183.164 35.398 182.824 34.9687 182.581 34.418C182.338 33.858 182.217 33.2187 182.217 32.5C182.217 31.772 182.338 31.1327 182.581 30.582C182.824 30.0313 183.164 29.602 183.603 29.294C184.051 28.986 184.569 28.832 185.157 28.832C185.782 28.832 186.333 28.986 186.809 29.294C187.285 29.602 187.654 30.0313 187.915 30.582C188.186 31.1327 188.321 31.772 188.321 32.5C188.321 33.2187 188.186 33.858 187.915 34.418C187.654 34.9687 187.285 35.398 186.809 35.706C186.333 36.014 185.782 36.168 185.157 36.168ZM184.905 35.146C185.344 35.146 185.731 35.034 186.067 34.81C186.412 34.586 186.683 34.2733 186.879 33.872C187.084 33.4707 187.187 33.0133 187.187 32.5C187.187 31.9867 187.089 31.5293 186.893 31.128C186.706 30.7267 186.44 30.414 186.095 30.19C185.75 29.966 185.358 29.854 184.919 29.854C184.508 29.854 184.14 29.966 183.813 30.19C183.496 30.414 183.244 30.7267 183.057 31.128C182.88 31.5293 182.791 31.9867 182.791 32.5C182.791 33.0133 182.88 33.4707 183.057 33.872C183.244 34.2733 183.496 34.586 183.813 34.81C184.13 35.034 184.494 35.146 184.905 35.146ZM192.505 36.168C191.823 36.168 191.296 35.9907 190.923 35.636C190.549 35.2813 190.363 34.782 190.363 34.138V26.816H191.483V34.026C191.483 34.3807 191.576 34.656 191.763 34.852C191.959 35.0387 192.229 35.132 192.575 35.132C192.687 35.132 192.794 35.118 192.897 35.09C193.009 35.0527 193.153 34.9687 193.331 34.838L193.765 35.748C193.522 35.9067 193.303 36.014 193.107 36.07C192.911 36.1353 192.71 36.168 192.505 36.168ZM189.145 29.994V29H193.583V29.994H189.145ZM195.234 36L195.262 29H196.382L196.354 36H195.234ZM195.808 27.376C195.621 27.376 195.458 27.306 195.318 27.166C195.178 27.026 195.108 26.8627 195.108 26.676C195.108 26.48 195.178 26.3167 195.318 26.186C195.458 26.046 195.621 25.976 195.808 25.976C196.004 25.976 196.167 26.046 196.298 26.186C196.438 26.3167 196.508 26.48 196.508 26.676C196.508 26.8627 196.438 27.026 196.298 27.166C196.167 27.306 196.004 27.376 195.808 27.376ZM201.512 36.168C200.83 36.168 200.224 36.014 199.692 35.706C199.169 35.3887 198.758 34.9547 198.46 34.404C198.161 33.8533 198.012 33.2187 198.012 32.5C198.012 31.7813 198.156 31.1467 198.446 30.596C198.744 30.0453 199.155 29.616 199.678 29.308C200.21 28.9907 200.812 28.832 201.484 28.832C202.174 28.832 202.781 28.9907 203.304 29.308C203.836 29.616 204.246 30.0453 204.536 30.596C204.834 31.1467 204.984 31.7813 204.984 32.5C204.984 33.2187 204.834 33.8533 204.536 34.404C204.246 34.9547 203.84 35.3887 203.318 35.706C202.795 36.014 202.193 36.168 201.512 36.168ZM201.512 35.132C201.978 35.132 202.384 35.02 202.73 34.796C203.075 34.572 203.346 34.264 203.542 33.872C203.747 33.48 203.85 33.0227 203.85 32.5C203.85 31.9773 203.747 31.52 203.542 31.128C203.346 30.736 203.07 30.428 202.716 30.204C202.361 29.98 201.95 29.868 201.484 29.868C201.026 29.868 200.62 29.98 200.266 30.204C199.92 30.428 199.645 30.736 199.44 31.128C199.244 31.52 199.146 31.9773 199.146 32.5C199.146 33.0133 199.244 33.4707 199.44 33.872C199.645 34.264 199.925 34.572 200.28 34.796C200.644 35.02 201.054 35.132 201.512 35.132ZM206.539 36V29H207.589L207.659 30.288V36H206.539ZM211.453 36V32.416L212.573 31.996V36H211.453ZM211.453 32.416C211.453 31.7253 211.373 31.198 211.215 30.834C211.056 30.47 210.837 30.2227 210.557 30.092C210.277 29.952 209.959 29.882 209.605 29.882C208.989 29.882 208.508 30.1013 208.163 30.54C207.827 30.9693 207.659 31.5807 207.659 32.374H207.113C207.113 31.6367 207.22 31.002 207.435 30.47C207.649 29.938 207.957 29.532 208.359 29.252C208.769 28.972 209.264 28.832 209.843 28.832C210.692 28.832 211.359 29.0933 211.845 29.616C212.339 30.1387 212.582 30.932 212.573 31.996L211.453 32.416ZM216.795 36.168C216.282 36.168 215.834 36.0933 215.451 35.944C215.069 35.7853 214.747 35.58 214.485 35.328C214.233 35.076 214.051 34.8007 213.939 34.502L214.919 34.096C215.078 34.4133 215.316 34.67 215.633 34.866C215.951 35.062 216.301 35.16 216.683 35.16C217.122 35.16 217.491 35.076 217.789 34.908C218.088 34.7307 218.237 34.4833 218.237 34.166C218.237 33.8767 218.125 33.6433 217.901 33.466C217.687 33.2887 217.365 33.144 216.935 33.032L216.263 32.85C215.629 32.682 215.134 32.43 214.779 32.094C214.425 31.7487 214.247 31.3613 214.247 30.932C214.247 30.2693 214.462 29.756 214.891 29.392C215.33 29.0187 215.979 28.832 216.837 28.832C217.248 28.832 217.621 28.8927 217.957 29.014C218.293 29.1353 218.583 29.308 218.825 29.532C219.068 29.7467 219.245 30.0033 219.357 30.302L218.377 30.736C218.256 30.4187 218.055 30.19 217.775 30.05C217.495 29.91 217.155 29.84 216.753 29.84C216.324 29.84 215.988 29.9333 215.745 30.12C215.503 30.2973 215.381 30.5493 215.381 30.876C215.381 31.0627 215.479 31.24 215.675 31.408C215.881 31.5667 216.179 31.6973 216.571 31.8L217.271 31.982C217.729 32.094 218.111 32.262 218.419 32.486C218.727 32.7007 218.961 32.948 219.119 33.228C219.278 33.508 219.357 33.8067 219.357 34.124C219.357 34.544 219.245 34.908 219.021 35.216C218.797 35.524 218.494 35.762 218.111 35.93C217.729 36.0887 217.29 36.168 216.795 36.168Z" fill="#1A201D"/>
</g>
<defs>
<filter id="filter0_dddd_850_19436" x="0" y="0" width="273" height="86" filterUnits="userSpaceOnUse" color-interpolation-filters="sRGB">
<feFlood flood-opacity="0" result="BackgroundImageFix"/>
<feColorMatrix in="SourceAlpha" type="matrix" values="0 0 0 0 0 0 0 0 0 0 0 0 0 0 0 0 0 0 127 0" result="hardAlpha"/>
<feOffset dx="2" dy="1"/>
<feGaussianBlur stdDeviation="2"/>
<feColorMatrix type="matrix" values="0 0 0 0 0 0 0 0 0 0 0 0 0 0 0 0 0 0 0.1 0"/>
<feBlend mode="normal" in2="BackgroundImageFix" result="effect1_dropShadow_850_19436"/>
<feColorMatrix in="SourceAlpha" type="matrix" values="0 0 0 0 0 0 0 0 0 0 0 0 0 0 0 0 0 0 127 0" result="hardAlpha"/>
<feOffset dx="6" dy="4"/>
<feGaussianBlur stdDeviation="3.5"/>
<feColorMatrix type="matrix" values="0 0 0 0 0 0 0 0 0 0 0 0 0 0 0 0 0 0 0.09 0"/>
<feBlend mode="normal" in2="effect1_dropShadow_850_19436" result="effect2_dropShadow_850_19436"/>
<feColorMatrix in="SourceAlpha" type="matrix" values="0 0 0 0 0 0 0 0 0 0 0 0 0 0 0 0 0 0 127 0" result="hardAlpha"/>
<feOffset dx="14" dy="9"/>
<feGaussianBlur stdDeviation="5"/>
<feColorMatrix type="matrix" values="0 0 0 0 0 0 0 0 0 0 0 0 0 0 0 0 0 0 0.05 0"/>
<feBlend mode="normal" in2="effect2_dropShadow_850_19436" result="effect3_dropShadow_850_19436"/>
<feColorMatrix in="SourceAlpha" type="matrix" values="0 0 0 0 0 0 0 0 0 0 0 0 0 0 0 0 0 0 127 0" result="hardAlpha"/>
<feOffset dx="24" dy="15"/>
<feGaussianBlur stdDeviation="6"/>
<feColorMatrix type="matrix" values="0 0 0 0 0 0 0 0 0 0 0 0 0 0 0 0 0 0 0.01 0"/>
<feBlend mode="normal" in2="effect3_dropShadow_850_19436" result="effect4_dropShadow_850_19436"/>
<feBlend mode="normal" in="SourceGraphic" in2="effect4_dropShadow_850_19436" result="shape"/>
</filter>
</defs>
</svg>
