<svg width="48" height="48" viewBox="0 0 48 48" fill="none" xmlns="http://www.w3.org/2000/svg">
<rect width="48" height="48" rx="24" fill="#EAF3EE"/>
<path d="M30.9352 24.5332C27.4018 24.5332 24.5352 27.3999 24.5352 30.9332C24.5352 32.1332 24.8685 33.2665 25.4685 34.2265C26.5752 36.0799 28.6018 37.3332 30.9352 37.3332C33.2685 37.3332 35.3085 36.0799 36.4018 34.2265C36.9885 33.2665 37.3352 32.1332 37.3352 30.9332C37.3352 27.3999 34.4685 24.5332 30.9352 24.5332ZM34.1085 30.0932L30.6952 33.2399C30.5085 33.4132 30.2552 33.5065 30.0152 33.5065C29.7618 33.5065 29.5085 33.4132 29.3085 33.2132L27.7352 31.6399C27.3485 31.2532 27.3485 30.6132 27.7352 30.2265C28.1218 29.8399 28.7618 29.8399 29.1485 30.2265L30.0418 31.1199L32.7485 28.6132C33.1485 28.2399 33.7885 28.2665 34.1618 28.6665C34.5352 29.0799 34.5085 29.7199 34.1085 30.0932Z" fill="#2A8851"/>
<path d="M37.3346 19.6408C37.3346 21.2275 37.0813 22.6942 36.6413 24.0542C36.5613 24.3342 36.228 24.4142 35.988 24.2408C34.5346 23.1608 32.7613 22.5875 30.9346 22.5875C26.308 22.5875 22.5346 26.3608 22.5346 30.9875C22.5346 32.4275 22.908 33.8408 23.6146 35.0942C23.828 35.4675 23.5746 35.9475 23.1746 35.8008C19.9613 34.7075 13.468 30.7208 11.3613 24.0542C10.9213 22.6942 10.668 21.2275 10.668 19.6408C10.668 15.5208 13.988 12.1875 18.0813 12.1875C20.4946 12.1875 22.6546 13.3608 24.0013 15.1608C25.348 13.3608 27.508 12.1875 29.9213 12.1875C34.0146 12.1875 37.3346 15.5208 37.3346 19.6408Z" fill="#2A8851"/>
</svg>
