<svg width="48" height="48" viewBox="0 0 48 48" fill="none" xmlns="http://www.w3.org/2000/svg">
<rect width="48" height="48" rx="24" fill="#EAF3EE"/>
<path d="M16.8946 26.666H13.3346C11.868 26.666 10.668 27.866 10.668 29.3327V35.9993C10.668 36.7327 11.268 37.3327 12.0013 37.3327H16.8946C17.628 37.3327 18.228 36.7327 18.228 35.9993V27.9993C18.228 27.266 17.628 26.666 16.8946 26.666Z" fill="#2A8851"/>
<path d="M25.7735 21.334H22.2135C20.7469 21.334 19.5469 22.534 19.5469 24.0007V36.0007C19.5469 36.734 20.1469 37.334 20.8802 37.334H27.1069C27.8402 37.334 28.4402 36.734 28.4402 36.0007V24.0007C28.4402 22.534 27.2535 21.334 25.7735 21.334Z" fill="#2A8851"/>
<path d="M34.6668 30.666H31.1068C30.3734 30.666 29.7734 31.266 29.7734 31.9993V35.9994C29.7734 36.7327 30.3734 37.3327 31.1068 37.3327H36.0001C36.7334 37.3327 37.3334 36.7327 37.3334 35.9994V33.3327C37.3334 31.866 36.1334 30.666 34.6668 30.666Z" fill="#2A8851"/>
<path d="M28.0126 14.466C28.4259 14.0527 28.5859 13.5593 28.4526 13.1327C28.3193 12.706 27.9059 12.3993 27.3193 12.306L26.0393 12.0927C25.9859 12.0927 25.8659 11.9993 25.8393 11.946L25.1326 10.5327C24.5993 9.45266 23.3859 9.45266 22.8526 10.5327L22.1459 11.946C22.1326 11.9993 22.0126 12.0927 21.9593 12.0927L20.6793 12.306C20.0926 12.3993 19.6926 12.706 19.5459 13.1327C19.4126 13.5593 19.5726 14.0527 19.9859 14.466L20.9726 15.466C21.0259 15.506 21.0659 15.666 21.0526 15.7193L20.7726 16.946C20.5593 17.866 20.9059 18.2793 21.1326 18.4393C21.3593 18.5993 21.8526 18.8127 22.6659 18.3327L23.8659 17.626C23.9193 17.586 24.0926 17.586 24.1459 17.626L25.3326 18.3327C25.7059 18.5593 26.0126 18.626 26.2526 18.626C26.5326 18.626 26.7326 18.5193 26.8526 18.4393C27.0793 18.2793 27.4259 17.866 27.2126 16.946L26.9326 15.7193C26.9193 15.6527 26.9593 15.506 27.0126 15.466L28.0126 14.466Z" fill="#2A8851"/>
</svg>
