<svg width="20" height="20" viewBox="0 0 20 20" fill="none" xmlns="http://www.w3.org/2000/svg">
<path d="M17.9677 8.94948L16.8344 7.63281C16.6177 7.38281 16.4427 6.91615 16.4427 6.58281V5.16615C16.4427 4.28281 15.7177 3.55781 14.8344 3.55781H13.4177C13.0927 3.55781 12.6177 3.38281 12.3677 3.16615L11.051 2.03281C10.476 1.54115 9.53438 1.54115 8.95104 2.03281L7.64271 3.17448C7.39271 3.38281 6.91771 3.55781 6.59271 3.55781H5.15104C4.26771 3.55781 3.54271 4.28281 3.54271 5.16615V6.59115C3.54271 6.91615 3.36771 7.38281 3.15937 7.63281L2.03438 8.95781C1.55104 9.53281 1.55104 10.4661 2.03438 11.0411L3.15937 12.3661C3.36771 12.6161 3.54271 13.0828 3.54271 13.4078V14.8328C3.54271 15.7161 4.26771 16.4411 5.15104 16.4411H6.59271C6.91771 16.4411 7.39271 16.6161 7.64271 16.8328L8.95938 17.9661C9.53438 18.4578 10.476 18.4578 11.0594 17.9661L12.376 16.8328C12.626 16.6161 13.0927 16.4411 13.426 16.4411H14.8427C15.726 16.4411 16.451 15.7161 16.451 14.8328V13.4161C16.451 13.0911 16.626 12.6161 16.8427 12.3661L17.976 11.0495C18.4594 10.4745 18.4594 9.52448 17.9677 8.94948ZM13.901 9.99948L12.926 12.9661C12.801 13.4578 12.276 13.8578 11.7427 13.8578H10.201C9.93437 13.8578 9.55938 13.7661 9.39271 13.5995L8.16771 12.6411C8.14271 13.1745 7.90104 13.3995 7.30938 13.3995H6.90938C6.29271 13.3995 6.04271 13.1578 6.04271 12.5745V8.59115C6.04271 8.00781 6.29271 7.76615 6.90938 7.76615H7.31771C7.93437 7.76615 8.18437 8.00781 8.18437 8.59115V8.89115L9.80104 6.49115C9.96771 6.23281 10.3927 6.04948 10.751 6.19115C11.1427 6.32448 11.3927 6.75781 11.3094 7.14115L11.1094 8.44115C11.0927 8.55781 11.1177 8.66615 11.1927 8.74948C11.2594 8.82448 11.3594 8.87448 11.4677 8.87448H13.0927C13.4094 8.87448 13.676 8.99948 13.8344 9.22448C13.976 9.44115 14.001 9.71615 13.901 9.99948Z" fill="white"/>
</svg>
