<svg width="48" height="48" viewBox="0 0 48 48" fill="none" xmlns="http://www.w3.org/2000/svg">
<rect width="48" height="48" rx="24" fill="#EAF3EE"/>
<path d="M27.7862 22.5328L35.3329 17.4795C36.0929 16.9728 36.2929 15.9328 35.7862 15.1861L33.3595 11.5728C32.8529 10.8128 31.8129 10.6128 31.0662 11.1195L23.5195 16.1728L27.7862 22.5328Z" fill="#2A8851"/>
<path d="M27.3609 21.8941L25.0142 23.4674L21.4542 25.8541L20.9876 26.1608L20.7742 25.8408L17.7876 21.3874L17.5742 21.0674L23.9476 16.8008L27.3609 21.8941Z" fill="#2A8851"/>
<path d="M15.5214 29.3601L20.7881 25.8401L17.8014 21.3867L12.5348 24.9067C11.9214 25.3201 11.7614 26.1467 12.1748 26.7601L13.6814 29.0001C14.0814 29.6134 14.9081 29.7734 15.5214 29.3601Z" fill="#2A8851"/>
<path d="M30.0818 37.0801C29.9485 37.1335 29.8018 37.1735 29.6685 37.1735C29.2818 37.1735 28.9218 36.9468 28.7485 36.5735L23.7751 25.5868L18.7351 36.5868C18.5618 36.9468 18.2018 37.1735 17.8151 37.1735C17.6818 37.1735 17.5351 37.1335 17.4018 37.0801C16.9085 36.8401 16.6818 36.2535 16.9085 35.7468L21.4551 25.8535L25.0151 23.4668L30.5751 35.7601C30.8018 36.2535 30.5751 36.8535 30.0818 37.0801Z" fill="#2A8851"/>
</svg>
