<svg width="190" height="13" viewBox="0 0 190 13" fill="none" xmlns="http://www.w3.org/2000/svg">
<path d="M187.449 6.91497C186.365 6.90455 185.026 6.85075 183.929 6.78936C183.608 6.77138 183.774 6.72801 183.549 6.71292C183.111 6.68332 182.645 6.69457 182.233 6.6626C182.089 6.65132 182.272 6.57784 182.121 6.56752C181.271 6.50993 180.485 6.51021 179.615 6.47148C175.408 6.28126 171.244 6.15922 166.978 6.05761C165.555 6.02433 163.844 5.90448 162.401 5.93779C162.232 5.94186 162.331 6.04274 162.299 6.05076C161.79 6.17451 161.962 5.97284 161.63 5.94337C160.307 5.82726 158.856 5.80762 157.59 5.8466C157.054 5.86359 157.589 6.07619 157.05 5.95705C157.013 5.94895 157.15 5.83535 157.003 5.82304C156.67 5.79517 156.033 5.81528 155.772 5.80636C155.267 5.78835 155.19 5.78958 154.718 5.78905C154.075 5.78757 153.305 5.7309 152.607 5.76119C152.46 5.76811 152.655 5.88958 152.42 5.91201C152.185 5.93438 151.562 5.92895 151.352 5.90147C151.141 5.87393 151.231 5.7754 151.193 5.75329C150.887 5.5656 150.162 5.83434 150.069 5.84251C148.379 5.97222 146.919 5.84069 145.331 5.8688C144.121 5.8912 142.833 5.97286 141.684 5.99593C140.314 6.02301 139.155 5.9833 137.825 6.04193C137.685 6.04805 137.854 6.20601 137.683 6.21399C135.865 6.29883 134.058 6.35979 132.245 6.33646C132.062 6.33399 132.29 6.17329 132.107 6.16181C130.988 6.09474 129.217 5.89053 128.593 6.59382C127.841 6.61476 126.934 6.64888 126.247 6.56206C125.807 6.50602 126.217 6.30859 125.689 6.41795C125.571 6.44253 125.737 6.57809 125.558 6.60398C124.81 6.71282 123.975 6.72959 123.231 6.8689C123.08 6.89758 123.132 7.02711 123.091 7.0547C122.745 7.27949 122.121 7.01139 121.989 6.99954C121.942 6.9955 121.895 6.99197 121.849 6.98889C120.896 6.92833 120.197 7.05571 119.313 7.13587C119.094 7.15565 119.369 7.31214 119.16 7.33778C118.071 7.46876 116.967 7.56361 115.892 7.5918C115.655 7.59744 115.856 7.41921 115.741 7.41389C115.238 7.39218 115.159 7.69872 114.68 7.68432C114.579 7.68165 114.622 7.54176 114.602 7.52894C114.292 7.32762 114.074 7.68167 114.001 7.69678C113.074 7.89531 112.46 7.61434 111.555 7.76204C111.448 7.78004 111.709 7.92422 111.407 7.96446C109.409 8.23173 107.256 8.43168 105.257 8.52611C104.942 8.54143 105.15 8.38542 105.128 8.37172C104.779 8.15894 104.612 8.51848 104.513 8.54309C103.724 8.72833 102.953 8.5341 102.454 8.99986C99.7324 9.21168 97.0483 9.6631 94.3395 9.8493C93.6689 9.89555 93.004 9.92481 92.3335 9.9308C92.2902 9.93161 92.3475 9.75628 92.2612 9.75862C91.2235 9.78463 91.4514 10.0202 90.8113 10.414C90.6514 10.5128 90.0863 10.1904 90.037 10.1677C89.8574 10.0836 90.0034 9.8165 89.9449 9.80292C89.4626 9.69885 89.6305 10.5085 89.0049 10.5785C88.9852 10.5794 89.0505 10.4197 88.9963 10.4106C88.8282 10.3818 88.6734 10.4595 88.5086 10.4253C88.1293 10.3458 87.9538 9.9635 87.4206 10.2554C87.3532 10.293 87.5113 10.745 86.9501 10.7831C86.7283 10.7979 85.7381 10.9103 85.4583 10.9086C85.1786 10.9072 85.353 10.7386 85.3326 10.7342C84.5681 10.6137 84.842 10.5029 84.4405 10.2493C84.0382 9.99686 84.2112 10.6789 84.0665 10.7715C83.9212 10.8639 83.3581 10.7555 83.2186 10.7121C83.079 10.6688 83.2369 10.558 83.1147 10.5377C82.3053 10.4059 82.8015 10.9144 82.5518 11.0491C81.9602 11.3671 81.4312 10.8991 80.8654 10.8997C80.7122 10.8998 80.8467 11.0051 80.7123 11.0281C80.1797 11.1171 79.8398 10.9863 79.2411 11.1832C79.1429 11.2156 78.6749 11.5621 78.3352 11.3627C78.2871 11.334 78.4061 11.1969 78.1741 11.1867C77.8275 11.1713 77.2084 11.1908 76.844 11.2597C76.5748 11.3107 76.9013 11.4966 76.5546 11.4564C76.4 11.4384 76.6738 11.2964 76.3843 11.2727C76.0962 11.2492 75.3695 11.304 75.0935 11.3258C74.8179 11.3479 74.979 11.4955 74.9574 11.5075C74.8268 11.5771 74.3002 11.6854 74.253 11.6878C71.8859 11.8464 69.6905 11.6751 67.3867 11.8066C67.2057 11.8166 67.3295 11.9764 67.302 11.9796C66.6826 12.0579 67.1636 11.6191 66.729 11.4824C66.7968 11.8095 66.5404 11.7545 66.1043 11.7951C65.8941 11.8148 66.01 11.9404 65.991 11.9535C65.6804 12.1487 65.4603 11.9012 65.4042 11.8509C65.1963 11.6656 64.9722 11.8865 64.8314 11.7622C64.6907 11.639 65.0129 11.4553 64.5953 11.4585C64.4781 11.5749 64.7893 11.8794 64.4713 11.9285C63.2693 12.1172 61.0269 11.835 60.0664 11.7739C59.1032 11.7154 58.7931 11.7208 58.2344 11.6533C57.2258 11.5283 57.5836 11.7651 56.95 11.8278C56.3139 11.8879 56.6525 11.3741 56.5691 11.2541C56.4875 11.1343 56.3835 11.2461 56.2772 11.1763C56.1713 11.1067 56.414 11.0439 56.1573 11.0042C55.9732 10.9758 55.5504 11.0479 55.2878 11.1306C55.1867 11.1635 55.1097 11.1982 55.0817 11.2298C54.8712 11.4661 55.1692 11.7552 54.4942 11.6076C54.4553 11.5989 54.5939 11.4712 54.4445 11.445C53.2417 11.2396 52.0134 11.1108 50.8247 10.8845C50.6636 10.8534 50.8257 10.7203 50.7322 10.7006C49.7551 10.493 50.0791 10.7843 49.4985 10.9955C49.6695 10.6415 49.3791 10.379 48.6404 10.285C48.1914 10.227 48.248 10.3962 47.941 10.4701C47.8489 10.4924 47.5425 10.3408 47.4742 10.4074C47.2495 10.6246 47.5149 10.9394 46.7497 10.7215C46.7167 10.7116 46.8424 10.5942 46.727 10.5698C45.9797 10.4107 45.8534 10.6495 45.0242 10.5551C44.3704 10.4803 43.2626 10.1513 42.5285 10.0066C42.6038 9.61834 41.9048 9.59849 41.5812 9.81766C41.11 9.72776 40.595 9.65524 40.1416 9.53926C39.9863 9.4996 40.1085 9.40732 40.0907 9.39196C39.8195 9.15333 39.5706 9.37237 39.4669 9.3642C38.3446 9.26536 37.476 8.91294 36.3897 8.89843C36.3511 8.89806 36.2435 9.14035 35.996 8.90157C35.9801 8.88548 36.3497 8.83596 35.8555 8.73338C35.3609 8.63019 34.4531 8.31862 33.7443 8.29842C33.5728 8.29377 33.114 8.40891 32.8063 8.18619C32.7654 8.15622 32.8284 8.09614 32.7711 8.04436C32.5855 7.87917 32.4225 8.10142 32.2173 7.84428C32.0118 7.58693 31.532 7.3341 30.8119 7.33645C30.7889 7.33619 30.5861 7.49298 30.3689 7.44526C30.0221 7.36917 29.5377 7.22873 29.1763 7.15511C29.0033 7.11989 29.09 7.25828 29.0596 7.25415C27.8785 7.07354 27.0759 6.79519 25.8339 6.48241C25.6059 6.42529 24.9165 6.4298 24.5033 6.21596C24.0492 5.98261 24.663 5.56333 23.5143 5.4489C23.0484 5.40372 22.349 5.93036 21.6065 5.41048C20.019 5.13726 18.62 4.64464 17.0155 4.38425C16.9436 4.3726 16.6819 4.48388 16.518 4.44198C16.2747 4.37973 16.1598 4.27205 15.9883 4.22588C15.2477 4.02521 14.5625 3.92661 13.8635 3.74531C13.5904 3.67486 13.7036 3.62377 13.3805 3.54083C13.0589 3.45849 12.8212 3.50203 12.4058 3.35058C12.1022 3.23812 11.7954 2.95921 11.3693 2.83292C11.3068 3.01617 11.0055 2.93805 10.477 2.85755C10.3725 2.84135 10.4673 2.93288 10.4161 2.92821C10.2053 2.90982 10.033 2.81048 9.83599 2.79815C9.78811 2.79501 9.77048 2.85607 9.73058 2.85691C9.38928 2.86542 8.91673 2.59723 8.83746 2.55245C8.5101 2.37381 8.32582 2.40952 8.07245 2.30741C7.8202 2.20613 8.22109 2.26255 7.92213 2.16423C7.32975 1.96812 6.46735 1.75851 5.84998 1.5965C5.58378 1.52717 5.74636 1.64763 5.7078 1.63943C5.1482 1.51302 4.68342 1.31102 4.32121 1.36596C4.03524 0.902431 4.01533 1.32319 3.25405 1.04187C3.19479 1.0197 3.15941 0.833236 3.40335 0.87061C3.67249 0.91442 3.95437 1.04402 4.29634 1.09068C4.37066 1.10065 4.87436 1.0558 4.91996 1.05586C5.38584 1.08877 5.39011 1.3718 5.4092 1.39253C5.64912 1.62283 6.23333 1.58003 6.36557 1.5987C7.00685 1.69803 7.55968 1.87763 8.08849 1.96258C8.44435 2.02086 8.52816 1.84016 8.80779 1.91353C9.699 2.14562 9.96448 2.50491 10.8771 2.46798C11.0721 2.45964 10.942 2.19505 11.5578 2.52342C11.5949 2.5432 12.0544 2.82323 12.3651 2.78746C12.403 2.78257 12.4183 2.7161 12.4655 2.72117C12.7824 2.7564 12.9768 2.85761 13.3262 2.91116C13.6722 2.96379 14.1163 3.02415 14.4869 3.13285C14.7158 3.19941 14.9859 3.39839 15.0913 3.45664C15.3876 3.62283 15.7706 3.54947 15.9449 3.70895C16.1181 3.86992 15.6907 3.95296 16.187 4.14842C16.2506 3.96603 16.3402 3.78415 16.4158 3.60268C17.5536 3.86437 18.6652 4.17732 19.8249 4.42248C19.9695 4.45273 19.8467 4.31304 20.0025 4.34246C20.6489 4.46393 21.1883 4.6619 21.8712 4.77488C22.4045 4.86293 22.9841 4.85949 23.5369 4.94162C23.8148 5.25391 24.6423 5.34084 25.2175 5.48222C25.4203 5.53216 25.3921 5.59627 25.533 5.64826C26.0657 5.84311 25.8563 5.56691 26.0149 5.56255C26.6982 5.54298 26.6417 6.06351 27.4051 6.20779C27.4453 6.21604 27.9978 6.03917 28.0699 6.03487C28.5271 6.00781 28.1211 6.14594 28.3882 6.22071C28.8783 6.35753 29.2033 6.49312 29.8005 6.52392C29.9746 6.5328 30.417 6.4326 30.7182 6.63459C30.7579 6.66114 30.7145 6.75177 30.7483 6.76413C31.3619 6.98044 31.4363 6.68159 31.817 6.64639C32.1971 6.61069 32.7118 6.92446 32.8131 7.0072C33.0785 7.22101 32.5726 7.03214 32.5535 7.04457C32.3286 7.1929 32.7407 7.23849 33.0483 7.31278C33.0338 7.62364 33.4718 7.68899 33.3674 7.38857C33.3552 7.3557 33.1079 7.33843 33.0483 7.31278C33.3796 7.06807 33.8626 7.11464 34.3352 7.49306C34.5565 7.67047 34.2937 7.78214 35.0539 7.86438C35.3989 7.9014 35.3079 7.66342 35.619 7.65896C36.3302 7.64795 37.1847 8.0065 37.897 8.09644C38.1557 8.12876 37.9271 7.96522 38.1052 7.98299C38.578 8.02932 38.9732 8.18965 39.4491 8.22002C39.4922 8.22256 39.4111 8.07735 39.5567 8.09949C40.6568 8.26328 41.6133 8.50005 42.7611 8.67618C43.3225 8.76274 44.3288 8.83387 44.9005 8.9286C45.9091 9.09577 47.0969 9.45698 47.9713 9.51632C48.5345 9.5542 48.4293 9.39908 48.6797 9.3324C49.1556 9.20128 49.9435 9.62648 50.0465 9.69057C50.05 9.69292 49.5621 9.6716 49.8117 9.77323C49.9439 9.94132 50.041 9.69067 50.0465 9.69057C50.1164 9.73293 51.0704 9.86833 51.2599 9.8592C51.3638 9.85472 51.3212 9.71355 51.3763 9.71383C52.6868 9.72311 53.9738 9.79567 55.2558 9.9448C55.2781 9.94908 55.2328 10.1027 55.2855 10.1108C55.3107 10.1149 55.3356 10.1186 55.3602 10.1219C56.0714 10.2185 56.5555 10.0626 57.1613 9.9816C57.7903 9.8976 58.2819 9.95469 58.6384 10.2421C59.1089 10.2259 59.7811 10.3685 60.1681 10.4528C60.5552 10.5373 60.6185 10.2249 60.6528 10.2195C61.7231 10.0432 62.3355 10.2298 63.4426 10.2615C63.9696 10.2772 65.0127 10.225 65.5828 10.181C66.0329 10.1463 66.3052 10.2168 66.7194 10.1598C66.7754 10.1521 66.7164 10.0099 66.7334 10.004C67.1929 9.8216 66.9769 10.1776 67.0737 10.2382C67.4248 10.4579 67.643 10.5752 68.2348 10.45C68.3716 10.4216 68.7562 9.90012 69.0036 9.86077C69.3261 9.81077 69.2098 9.99819 69.5476 9.94058C69.5765 9.93578 69.5665 9.82331 69.7759 9.81959C70.7485 9.80072 71.8098 9.81359 72.8198 9.74283C72.9575 9.73358 72.7712 9.5633 72.9699 9.54681C73.9025 9.46947 74.9265 9.40651 75.8431 9.42422C76.069 9.42913 75.9373 9.56713 75.9887 9.6014C76.3048 9.80863 76.7045 9.44282 76.7735 9.43087C78.4275 9.13917 79.7328 9.32967 81.4176 9.0237C81.5088 9.00672 82.1908 8.57613 82.5355 8.85431C82.559 8.87274 82.9038 9.15873 83.1607 8.91385C83.1766 8.89852 82.9646 8.75509 83.3082 8.73709C83.6514 8.71914 84.1942 8.55283 84.6799 8.68339C84.8341 8.72436 85.2186 9.00468 85.6372 8.70419C85.6644 8.68368 86.2914 8.03717 86.5762 8.40529C86.6228 8.46589 86.6259 8.88861 87.1327 8.61608C87.2295 8.56335 87.0354 8.49042 87.296 8.40269C87.6948 8.26772 88.2526 8.31879 88.7313 8.07577C88.8151 8.0329 89.1555 7.70646 89.4796 7.88776C89.5304 7.91617 89.457 8.06615 89.6172 8.06366C90.3837 8.05194 91.1503 7.86821 91.93 7.87501C92.2053 7.87723 92.094 8.1195 92.3829 8.14706C92.6704 8.17475 93.2447 8.16621 93.5283 8.02787C93.8119 7.88949 93.446 7.56734 93.8861 7.48598C93.9426 7.47554 93.9992 7.46539 94.0558 7.45551C95.9036 7.13232 97.7872 7.10961 99.6521 6.91907C99.9382 6.88988 99.6857 6.78925 100.107 6.737C101.654 6.54361 104.322 6.1131 105.701 6.23362C106.804 6.32943 105.466 6.64814 106.3 6.6434C106.703 6.64046 107.089 6.17764 107.184 6.15394C108.106 5.91768 108.777 6.03006 109.624 5.88228C109.796 5.85206 109.607 5.70317 109.754 5.67936C110.255 5.59668 110.797 5.61507 111.283 5.55083C111.501 5.52164 111.447 5.3987 111.65 5.38775C112.137 5.35994 112.559 5.37118 113.04 5.44269C113.084 5.44919 112.813 5.63577 113.169 5.60579C113.744 5.55697 114.476 5.60206 115.119 5.41826C115.311 5.36312 115.29 5.07477 115.732 5.23313C115.825 5.26622 115.746 5.62167 116.21 5.27705C116.289 5.2191 117.076 4.74195 117.504 4.9638C117.618 5.02206 117.917 5.27784 118.149 5.21237C118.181 5.20247 118.038 5.06076 118.232 5.02826C118.923 4.91619 119.643 4.87006 120.348 4.76294C120.536 4.73407 120.239 4.60028 120.521 4.56245C120.862 4.51664 121.242 4.48359 121.629 4.46012C122.113 4.4309 122.607 4.41813 123.037 4.41419C123.32 4.41196 123.135 4.55508 123.157 4.56764C123.505 4.77162 123.676 4.44997 123.785 4.42447C124.468 4.26922 124.98 4.38085 125.606 4.30385C125.779 4.28317 125.646 4.1453 125.68 4.13023C126.028 3.9822 125.78 4.2591 126.008 4.27424C126.649 4.31747 127.355 4.26598 127.99 4.2147C128.224 4.19564 127.951 4.04241 128.161 4.02741C129.411 3.93549 130.707 3.89682 131.932 3.94178C132.163 3.95054 132.024 4.08161 132.073 4.10855C132.413 4.29658 132.884 4.00586 132.993 3.97652C133.491 3.84123 133.692 3.94557 134.137 3.91137C136.316 3.74263 139.005 3.76648 141.062 3.78835C143.743 3.8173 145.818 3.92203 148.373 3.90669C148.535 3.90601 148.37 3.75689 148.51 3.75457C150.311 3.7327 152.085 3.81219 153.902 3.8046C154.05 3.80435 153.837 3.66735 154.075 3.66279C154.565 3.65257 155.175 3.6738 155.673 3.72695C155.915 3.75255 155.589 3.85689 155.833 3.88012C156.4 3.93431 157.006 3.95696 157.582 3.9509C157.828 3.94817 157.459 3.80841 157.778 3.81539C159.971 3.86026 162.109 3.91508 164.314 4.1514C164.466 4.16777 164.594 4.4135 164.916 4.37828C164.942 4.31257 164.942 4.23428 164.954 4.16357C168.133 4.24775 171.276 4.47155 174.458 4.64739C174.591 4.65492 174.365 4.53477 174.623 4.54919C176.114 4.63182 177.601 4.69333 179.113 4.88324C179.263 4.90188 179.169 5.0678 179.635 5.06836C179.719 5.06829 180.402 5.08563 180.573 5.06031C180.596 5.05638 180.479 4.97143 180.693 4.98272C181.968 5.05109 183.297 5.15782 184.554 5.28644C184.763 5.30757 184.537 5.3665 184.685 5.38193C185.665 5.48541 186.862 5.51346 187.822 5.64452C188.48 5.73236 188.2 5.82774 188.577 5.96385C188.602 5.97333 188.717 5.98528 188.81 6.002C188.904 6.01877 189.055 6.04486 189.053 6.07665C189.101 6.23953 188.878 6.40324 188.957 6.5787C188.964 6.59326 189.059 6.6005 189.122 6.60635C189.138 6.60831 189.226 6.6147 189.25 6.61901C189.278 6.62352 189.272 6.62772 189.272 6.63558C189.272 6.63559 189.272 6.6356 189.272 6.6356C189.264 6.64439 189.302 6.66042 189.179 6.67433C189.14 6.67515 189.094 6.68284 188.962 6.68891C188.812 6.69395 188.72 6.70588 188.671 6.71918C188.605 6.73786 188.719 6.80745 188.584 6.82978C188.452 6.85251 188.254 6.78901 188.058 6.81533C187.833 6.84084 187.933 6.92031 187.449 6.91497ZM61.9148 10.8221C62.274 10.9791 62.3361 10.4241 61.9437 10.5519C61.9247 10.5587 61.8963 10.8144 61.9148 10.8221ZM18.6023 4.43848C19.0269 4.69732 19.3993 4.54117 19.0992 4.34829C18.7997 4.15706 18.473 4.36061 18.6023 4.43848ZM13.7821 3.43143C14.3039 3.67344 14.4947 3.23844 13.8899 3.19482C13.8544 3.19205 13.7516 3.41742 13.7821 3.43143ZM186.946 5.8958C186.953 5.89943 187.247 5.92001 187.251 5.91716C187.411 5.85055 186.826 5.80804 186.946 5.8958ZM9.00922 2.37683C9.15757 2.47194 9.65399 2.52889 9.46397 2.40898C9.30952 2.31283 8.82261 2.25889 9.00922 2.37683ZM80.8244 10.6139C80.8308 10.6222 81.041 10.6111 81.0323 10.5619C81.0035 10.4036 80.7164 10.475 80.8244 10.6139ZM0.949556 0.290943C2.16598 0.628323 2.76781 1.08772 1.49778 0.703923C1.25377 0.631118 2.05311 0.765228 1.74886 0.655897C1.17152 0.452863 0.837106 0.535521 0.275239 0.284648C0.143708 0.232267 0.900489 0.277777 0.951811 0.291165C0.951059 0.291091 0.950308 0.291017 0.949556 0.290943ZM62.1116 11.492C62.1188 11.4996 62.4102 11.5112 62.4173 11.5039C62.5776 11.3298 61.9913 11.3068 62.1116 11.492ZM93.0883 9.67778C93.1059 9.69273 93.7798 9.62921 93.8003 9.6111C94.1144 9.26139 92.752 9.38896 93.0883 9.67778ZM42.5186 9.99435C42.1778 10.0965 41.8021 10.0512 41.5826 9.81809C41.8935 9.8805 42.2041 9.93337 42.5186 9.99435Z" fill="#1A201D"/>
</svg>
