<svg width="110" height="32" viewBox="0 0 110 32" fill="none" xmlns="http://www.w3.org/2000/svg">
<path d="M105.926 31.7812H4.07407C1.83435 31.7812 0 29.9928 0 27.809V3.9757C0 1.79197 1.83435 0.00347416 4.07407 0.00347416H105.926C108.166 0.00347416 110 1.79197 110 3.9757V27.809C110 29.9928 108.166 31.7812 105.926 31.7812Z" fill="#1A201D"/>
<path d="M105.926 0.640023C107.812 0.640023 109.347 2.13656 109.347 3.9757V27.809C109.347 29.6482 107.812 31.1447 105.926 31.1447H4.07407C2.18778 31.1447 0.65287 29.6482 0.65287 27.809V3.9757C0.65287 2.13656 2.18778 0.640023 4.07407 0.640023H105.926ZM105.926 0.00347416H4.07407C1.83435 0.00347416 0 1.79197 0 3.9757V27.809C0 29.9928 1.83435 31.7812 4.07407 31.7812H105.926C108.166 31.7812 110 29.9928 110 27.809V3.9757C110 1.79197 108.166 0.00347416 105.926 0.00347416Z" fill="#A6A6A6"/>
<path d="M8.50287 5.99442C8.26352 6.23871 8.125 6.61905 8.125 7.11161V24.6807C8.125 25.1733 8.26352 25.5536 8.50287 25.7979L8.56194 25.8516L18.6595 16.0104V15.778L8.56194 5.93683L8.50287 5.99442Z" fill="url(#paint0_linear_1846_26197)"/>
<path d="M22.0203 19.293L18.6582 16.0109V15.7785L22.0244 12.4965L22.0998 12.5392L26.0863 14.7507C27.2239 15.3783 27.2239 16.4111 26.0863 17.0427L22.0998 19.2503L22.0203 19.293Z" fill="url(#paint1_linear_1846_26197)"/>
<path d="M22.1021 19.2502L18.6606 15.8947L8.50391 25.7984C8.88178 26.1857 9.49798 26.2324 10.1987 25.8451L22.1021 19.2502Z" fill="url(#paint2_linear_1846_26197)"/>
<path d="M22.1021 12.5351L10.1987 5.94021C9.49798 5.55689 8.88178 5.60356 8.50391 5.99086L18.6606 15.8906L22.1021 12.5351Z" fill="url(#paint3_linear_1846_26197)"/>
<path d="M38.6372 8.13735C38.6372 8.80071 38.4335 9.332 38.0322 9.72823C37.5708 10.1979 36.9699 10.4343 36.2335 10.4343C35.5297 10.4343 34.9287 10.194 34.4358 9.72028C33.9418 9.23964 33.6953 8.64977 33.6953 7.94371C33.6953 7.23765 33.9418 6.64777 34.4358 6.1711C34.9287 5.69344 35.5297 5.45312 36.2335 5.45312C36.5838 5.45312 36.9179 5.52363 37.2367 5.65472C37.5545 5.78679 37.8132 5.96554 38.0006 6.186L37.5748 6.60507C37.2479 6.2287 36.8028 6.043 36.2335 6.043C35.7201 6.043 35.275 6.21778 34.8972 6.57031C34.5234 6.92384 34.336 7.38164 34.336 7.94371C34.336 8.50578 34.5234 8.96755 34.8972 9.32107C35.275 9.66964 35.7201 9.84839 36.2335 9.84839C36.7784 9.84839 37.2367 9.66964 37.5983 9.3171C37.8366 9.08373 37.9721 8.76199 38.0077 8.35086H36.2335V7.77687H38.6005C38.629 7.90101 38.6372 8.02117 38.6372 8.13735Z" fill="white" stroke="white" stroke-width="0.0977778" stroke-miterlimit="10"/>
<path d="M42.3919 6.14741H40.1685V7.65685H42.173V8.23084H40.1685V9.74028H42.3919V10.3252H39.5391V5.5625H42.3919V6.14741Z" fill="white" stroke="white" stroke-width="0.0977778" stroke-miterlimit="10"/>
<path d="M45.0421 10.3252H44.4126V6.14741H43.0488V5.5625H46.4069V6.14741H45.0421V10.3252Z" fill="white" stroke="white" stroke-width="0.0977778" stroke-miterlimit="10"/>
<path d="M48.8379 10.3252V5.5625H49.4663V10.3252H48.8379Z" fill="white" stroke="white" stroke-width="0.0977778" stroke-miterlimit="10"/>
<path d="M52.251 10.3252H51.6267V6.14741H50.2578V5.5625H53.6199V6.14741H52.251V10.3252Z" fill="white" stroke="white" stroke-width="0.0977778" stroke-miterlimit="10"/>
<path d="M59.9772 9.71234C59.4954 10.194 58.8985 10.4343 58.1866 10.4343C57.4706 10.4343 56.8737 10.194 56.392 9.71234C55.9112 9.2317 55.6719 8.64183 55.6719 7.94371C55.6719 7.24559 55.9112 6.65572 56.392 6.17508C56.8737 5.69344 57.4706 5.45312 58.1866 5.45312C58.8945 5.45312 59.4913 5.69344 59.9731 6.17905C60.4579 6.66366 60.6972 7.24956 60.6972 7.94371C60.6972 8.64183 60.4579 9.2317 59.9772 9.71234ZM56.8574 9.31313C57.22 9.66964 57.661 9.84839 58.1866 9.84839C58.7081 9.84839 59.1532 9.66964 59.5117 9.31313C59.8733 8.95662 60.0566 8.49883 60.0566 7.94371C60.0566 7.38859 59.8733 6.93079 59.5117 6.57429C59.1532 6.21778 58.7081 6.03903 58.1866 6.03903C57.661 6.03903 57.22 6.21778 56.8574 6.57429C56.4959 6.93079 56.3125 7.38859 56.3125 7.94371C56.3125 8.49883 56.4959 8.95662 56.8574 9.31313Z" fill="white" stroke="white" stroke-width="0.0977778" stroke-miterlimit="10"/>
<path d="M61.5801 10.3252V5.5625H62.344L64.7192 9.2666H64.7467L64.7192 8.351V5.5625H65.3476V10.3252H64.6917L62.2044 6.43837H62.1769L62.2044 7.35794V10.3252H61.5801Z" fill="white" stroke="white" stroke-width="0.0977778" stroke-miterlimit="10"/>
<path d="M55.5169 17.2866C53.6031 17.2866 52.0396 18.7067 52.0396 20.666C52.0396 22.6094 53.6031 24.0443 55.5169 24.0443C57.4347 24.0443 58.9981 22.6094 58.9981 20.666C58.9981 18.7067 57.4347 17.2866 55.5169 17.2866ZM55.5169 22.7136C54.4668 22.7136 53.5633 21.8686 53.5633 20.666C53.5633 19.4475 54.4668 18.6173 55.5169 18.6173C56.5669 18.6173 57.4744 19.4475 57.4744 20.666C57.4744 21.8686 56.5669 22.7136 55.5169 22.7136ZM47.9299 17.2866C46.012 17.2866 44.4527 18.7067 44.4527 20.666C44.4527 22.6094 46.012 24.0443 47.9299 24.0443C49.8468 24.0443 51.4071 22.6094 51.4071 20.666C51.4071 18.7067 49.8468 17.2866 47.9299 17.2866ZM47.9299 22.7136C46.8788 22.7136 45.9723 21.8686 45.9723 20.666C45.9723 19.4475 46.8788 18.6173 47.9299 18.6173C48.98 18.6173 49.8834 19.4475 49.8834 20.666C49.8834 21.8686 48.98 22.7136 47.9299 22.7136ZM38.9018 18.3224V19.7583H42.4187C42.3158 20.5607 42.0408 21.1506 41.6192 21.5617C41.1058 22.0582 40.3063 22.6094 38.9018 22.6094C36.7374 22.6094 35.0426 20.9063 35.0426 18.796C35.0426 16.6858 36.7374 14.9827 38.9018 14.9827C40.072 14.9827 40.9235 15.4286 41.5519 16.0066L42.5898 14.9946C41.7108 14.1764 40.5416 13.5477 38.9018 13.5477C35.9338 13.5477 33.4395 15.9023 33.4395 18.796C33.4395 21.6898 35.9338 24.0443 38.9018 24.0443C40.5059 24.0443 41.7108 23.5319 42.6581 22.5706C43.6287 21.6243 43.9312 20.2936 43.9312 19.2191C43.9312 18.8854 43.9027 18.5786 43.8518 18.3224H38.9018ZM75.819 19.4356C75.5328 18.6799 74.6497 17.2866 72.851 17.2866C71.0686 17.2866 69.5846 18.656 69.5846 20.666C69.5846 22.5587 71.0533 24.0443 73.0221 24.0443C74.6141 24.0443 75.5328 23.098 75.9106 22.5468L74.7292 21.7792C74.335 22.3413 73.7982 22.7136 73.0221 22.7136C72.2511 22.7136 71.698 22.3691 71.3436 21.6898L75.9789 19.8199L75.819 19.4356ZM71.0931 20.5607C71.0533 19.2578 72.1309 18.5905 72.903 18.5905C73.508 18.5905 74.0213 18.8854 74.1924 19.3075L71.0931 20.5607ZM67.3255 23.8388H68.8493V13.9082H67.3255V23.8388ZM64.8302 18.0393H64.7793C64.437 17.6441 63.7842 17.2866 62.9571 17.2866C61.2216 17.2866 59.6347 18.7722 59.6347 20.6769C59.6347 22.5706 61.2216 24.0443 62.9571 24.0443C63.7842 24.0443 64.437 23.6839 64.7793 23.2767H64.8302V23.7613C64.8302 25.0533 64.1223 25.7474 62.9805 25.7474C62.0496 25.7474 61.4721 25.092 61.2338 24.5409L59.9087 25.0801C60.2906 25.9758 61.302 27.0781 62.9805 27.0781C64.767 27.0781 66.2744 26.0533 66.2744 23.5597V17.4922H64.8302V18.0393ZM63.0875 22.7136C62.0374 22.7136 61.1584 21.8566 61.1584 20.6769C61.1584 19.4862 62.0374 18.6173 63.0875 18.6173C64.1223 18.6173 64.9381 19.4862 64.9381 20.6769C64.9381 21.8566 64.1223 22.7136 63.0875 22.7136ZM82.9527 13.9082H79.3084V23.8388H80.828V20.0761H82.9527C84.6404 20.0761 86.2954 18.8854 86.2954 16.9917C86.2954 15.0989 84.6363 13.9082 82.9527 13.9082ZM82.9924 18.6948H80.828V15.2896H82.9924C84.127 15.2896 84.7748 16.2081 84.7748 16.9917C84.7748 17.7603 84.127 18.6948 82.9924 18.6948ZM92.3862 17.2677C91.2882 17.2677 90.1465 17.7404 89.6769 18.7881L91.0255 19.3392C91.3157 18.7881 91.8494 18.6093 92.4137 18.6093C93.202 18.6093 94.0016 19.0711 94.0138 19.8864V19.9907C93.7388 19.8358 93.1501 19.6064 92.4259 19.6064C90.9735 19.6064 89.4936 20.3859 89.4936 21.8408C89.4936 23.1714 90.6832 24.0285 92.0205 24.0285C93.0431 24.0285 93.6074 23.5786 93.9618 23.0553H94.0138V23.8229H95.4815V20.0135C95.4815 18.2528 94.1329 17.2677 92.3862 17.2677ZM92.2029 22.7097C91.7058 22.7097 91.0132 22.4694 91.0132 21.8686C91.0132 21.0999 91.8769 20.805 92.6245 20.805C93.2937 20.805 93.6074 20.949 94.0138 21.1387C93.8946 22.0582 93.0829 22.7097 92.2029 22.7097ZM100.829 17.4852L99.0819 21.7901H99.03L97.2241 17.4852H95.5853L98.2987 23.5011L96.7505 26.8487H98.3384L102.519 17.4852H100.829ZM87.1306 23.8388H88.6543V13.9082H87.1306V23.8388Z" fill="white"/>
<defs>
<linearGradient id="paint0_linear_1846_26197" x1="17.763" y1="24.8637" x2="4.43458" y2="11.1936" gradientUnits="userSpaceOnUse">
<stop stop-color="#00A0FF"/>
<stop offset="0.0066" stop-color="#00A1FF"/>
<stop offset="0.2601" stop-color="#00BEFF"/>
<stop offset="0.5122" stop-color="#00D2FF"/>
<stop offset="0.7604" stop-color="#00DFFF"/>
<stop offset="1" stop-color="#00E3FF"/>
</linearGradient>
<linearGradient id="paint1_linear_1846_26197" x1="27.5677" y1="15.8936" x2="7.85172" y2="15.8936" gradientUnits="userSpaceOnUse">
<stop stop-color="#FFE000"/>
<stop offset="0.4087" stop-color="#FFBD00"/>
<stop offset="0.7754" stop-color="#FFA500"/>
<stop offset="1" stop-color="#FF9C00"/>
</linearGradient>
<linearGradient id="paint2_linear_1846_26197" x1="20.2307" y1="14.0706" x2="2.15631" y2="-4.4673" gradientUnits="userSpaceOnUse">
<stop stop-color="#FF3A44"/>
<stop offset="1" stop-color="#C31162"/>
</linearGradient>
<linearGradient id="paint3_linear_1846_26197" x1="5.94726" y1="31.6395" x2="14.0183" y2="23.3616" gradientUnits="userSpaceOnUse">
<stop stop-color="#32A071"/>
<stop offset="0.0685" stop-color="#2DA771"/>
<stop offset="0.4762" stop-color="#15CF74"/>
<stop offset="0.8009" stop-color="#06E775"/>
<stop offset="1" stop-color="#00F076"/>
</linearGradient>
</defs>
</svg>
