<svg width="101" height="29" viewBox="0 0 101 29" fill="none" xmlns="http://www.w3.org/2000/svg">
<path d="M99.9417 25.6586C99.9417 27.2031 98.6645 28.4541 97.0849 28.4541H3.5968C2.01792 28.4541 0.736328 27.2031 0.736328 25.6586V3.36554C0.736328 1.82182 2.01792 0.566406 3.5968 0.566406H97.0842C98.6646 0.566406 99.9409 1.82182 99.9409 3.36554L99.9417 25.6586Z" fill="#1A201D"/>
<path d="M96.7841 0.599198C98.5044 0.599198 99.9043 1.96404 99.9043 3.64133V25.3773C99.9043 27.0546 98.5044 28.4195 96.7841 28.4195H3.89524C2.17494 28.4195 0.775105 27.0546 0.775105 25.3773V3.64133C0.775105 1.96404 2.17494 0.599198 3.89524 0.599198H96.7841ZM96.7841 0.0186667H3.89524C1.85262 0.0186667 0.179688 1.64977 0.179688 3.64133V25.3773C0.179688 27.3689 1.85262 29 3.89524 29H96.7841C98.8268 29 100.5 27.3689 100.5 25.3773V3.64133C100.5 1.64977 98.8268 0.0186667 96.7841 0.0186667Z" fill="#A6A6A6"/>
<path d="M22.5701 14.3532C22.5486 12.018 24.5312 10.8819 24.6219 10.8291C23.499 9.2329 21.7587 9.01482 21.1471 8.99743C19.6854 8.84745 18.2675 9.85021 17.5229 9.85021C16.7635 9.85021 15.6169 9.01192 14.3811 9.03656C12.7908 9.06046 11.3031 9.95816 10.4872 11.3522C8.80327 14.1945 10.0591 18.3714 11.6724 20.6689C12.4794 21.7941 13.4224 23.0505 14.6568 23.0063C15.8643 22.9577 16.3154 22.2557 17.7726 22.2557C19.2165 22.2557 19.6401 23.0063 20.8989 22.978C22.1949 22.9577 23.0108 21.8478 23.7896 20.7124C24.7222 19.4227 25.0967 18.1526 25.1116 18.0874C25.0811 18.0773 22.5947 17.1521 22.5701 14.3532Z" fill="white"/>
<path d="M20.1922 7.48605C20.8417 6.69414 21.286 5.61676 21.1627 4.52344C20.2227 4.56401 19.0471 5.1574 18.3701 5.93193C17.7711 6.61444 17.2361 7.73312 17.3743 8.78514C18.4303 8.86194 19.5145 8.26565 20.1922 7.48605Z" fill="white"/>
<path d="M36.6263 7.27217C36.6263 8.12494 36.364 8.76688 35.8401 9.19798C35.3548 9.59575 34.6652 9.79499 33.772 9.79499C33.3291 9.79499 32.9501 9.77616 32.6328 9.73848V5.07901C33.0467 5.0138 33.4926 4.98047 33.9741 4.98047C34.825 4.98047 35.4663 5.16088 35.8988 5.5217C36.3833 5.92961 36.6263 6.51286 36.6263 7.27217ZM35.8052 7.29318C35.8052 6.74036 35.655 6.31651 35.3548 6.0209C35.0546 5.72601 34.6162 5.57821 34.0388 5.57821C33.7936 5.57821 33.5847 5.59415 33.4116 5.62748V9.16972C33.5075 9.18421 33.6828 9.19073 33.9377 9.19073C34.5337 9.19073 34.9937 9.02916 35.3177 8.70602C35.6417 8.38288 35.8052 7.91193 35.8052 7.29318Z" fill="white"/>
<path d="M40.9798 8.01465C40.9798 8.53993 40.8259 8.97031 40.5183 9.30794C40.1958 9.65499 39.7685 9.82815 39.2349 9.82815C38.7207 9.82815 38.3113 9.66224 38.0058 9.32895C37.7012 8.99639 37.5488 8.57689 37.5488 8.07116C37.5488 7.54225 37.7056 7.10826 38.0207 6.77135C38.3358 6.43444 38.7594 6.26562 39.2929 6.26562C39.8071 6.26562 40.2203 6.43154 40.5332 6.7641C40.8304 7.08725 40.9798 7.50458 40.9798 8.01465ZM40.172 8.03928C40.172 7.72411 40.1022 7.45386 39.9632 7.22853C39.7997 6.9561 39.5671 6.81989 39.2647 6.81989C38.9518 6.81989 38.714 6.9561 38.5505 7.22853C38.4108 7.45386 38.3417 7.72846 38.3417 8.05305C38.3417 8.36822 38.4116 8.63847 38.5505 8.8638C38.7192 9.13623 38.9541 9.27244 39.2572 9.27244C39.5545 9.27244 39.7878 9.13405 39.9558 8.85656C40.0999 8.62688 40.172 8.35445 40.172 8.03928Z" fill="white"/>
<path d="M46.8176 6.33594L45.7215 9.75139H45.0082L44.5541 8.26827C44.4389 7.89803 44.3453 7.52997 44.2725 7.1648H44.2584C44.1907 7.54011 44.0971 7.90745 43.9767 8.26827L43.4944 9.75139H42.7729L41.7422 6.33594H42.5425L42.9386 7.95962C43.0345 8.34362 43.1132 8.70951 43.1764 9.05584H43.1905C43.2485 8.77037 43.3443 8.40665 43.4796 7.96686L43.9767 6.33666H44.6113L45.0877 7.93208C45.2029 8.32116 45.2965 8.69574 45.3686 9.05656H45.3901C45.4429 8.70516 45.5224 8.33058 45.6279 7.93208L46.053 6.33666H46.8176V6.33594Z" fill="white"/>
<path d="M50.8576 9.7528H50.0789V7.79656C50.0789 7.19375 49.844 6.89235 49.3729 6.89235C49.1418 6.89235 48.9553 6.97494 48.8104 7.14086C48.667 7.30678 48.5941 7.5024 48.5941 7.72628V9.75208H47.8153V7.3133C47.8153 7.01334 47.8057 6.68803 47.7871 6.3359H48.4715L48.5079 6.86989H48.5295C48.6201 6.70397 48.7554 6.56703 48.933 6.45763C49.144 6.33011 49.3803 6.26562 49.6389 6.26562C49.9659 6.26562 50.2379 6.36851 50.4541 6.575C50.7231 6.82786 50.8576 7.20535 50.8576 7.70672V9.7528Z" fill="white"/>
<path d="M53.0026 9.75215H52.2246V4.76953H53.0026V9.75215Z" fill="white"/>
<path d="M57.5892 8.01465C57.5892 8.53993 57.4353 8.97031 57.1277 9.30794C56.8052 9.65499 56.3771 9.82815 55.8443 9.82815C55.3293 9.82815 54.9199 9.66224 54.6152 9.32895C54.3105 8.99639 54.1582 8.57689 54.1582 8.07116C54.1582 7.54225 54.315 7.10826 54.6301 6.77135C54.9452 6.43444 55.3687 6.26562 55.9015 6.26562C56.4165 6.26562 56.8289 6.43154 57.1425 6.7641C57.4398 7.08725 57.5892 7.50458 57.5892 8.01465ZM56.7806 8.03928C56.7806 7.72411 56.7108 7.45386 56.5718 7.22853C56.4091 6.9561 56.1757 6.81989 55.874 6.81989C55.5605 6.81989 55.3227 6.9561 55.1599 7.22853C55.0202 7.45386 54.9511 7.72846 54.9511 8.05305C54.9511 8.36822 55.021 8.63847 55.1599 8.8638C55.3286 9.13623 55.5634 9.27244 55.8666 9.27244C56.1639 9.27244 56.3965 9.13405 56.5644 8.85656C56.7093 8.62688 56.7806 8.35445 56.7806 8.03928Z" fill="white"/>
<path d="M61.3583 9.75063H60.659L60.601 9.35721H60.5795C60.3402 9.67093 59.9991 9.82815 59.5562 9.82815C59.2255 9.82815 58.958 9.72455 58.7566 9.51878C58.5738 9.33185 58.4824 9.09927 58.4824 8.82323C58.4824 8.4059 58.6608 8.08783 59.0197 7.86757C59.3779 7.64731 59.8817 7.53935 60.5304 7.54443V7.48067C60.5304 7.03073 60.2882 6.80613 59.8029 6.80613C59.4574 6.80613 59.1527 6.8909 58.8896 7.05899L58.7314 6.56051C59.0568 6.36416 59.4589 6.26562 59.933 6.26562C60.8485 6.26562 61.3077 6.73657 61.3077 7.67846V8.93625C61.3077 9.27751 61.3248 9.54921 61.3583 9.75063ZM60.5498 8.57689V8.05015C59.6907 8.03566 59.2612 8.26534 59.2612 8.73846C59.2612 8.91669 59.3102 9.05001 59.4106 9.13912C59.5109 9.22824 59.6387 9.27244 59.791 9.27244C59.962 9.27244 60.1217 9.21955 60.2674 9.11449C60.4138 9.00871 60.5037 8.87467 60.5371 8.7102C60.5453 8.67325 60.5498 8.62833 60.5498 8.57689Z" fill="white"/>
<path d="M65.7834 9.75215H65.0924L65.0559 9.20367H65.0344C64.8137 9.62101 64.4377 9.82967 63.9093 9.82967C63.4872 9.82967 63.1357 9.6681 62.8571 9.34496C62.5784 9.02182 62.4395 8.60231 62.4395 8.08717C62.4395 7.53435 62.5903 7.08659 62.8935 6.74461C63.187 6.42581 63.5467 6.26642 63.9747 6.26642C64.4451 6.26642 64.7743 6.42074 64.9616 6.73012H64.9764V4.76953H65.756V8.83199C65.756 9.16455 65.7649 9.47103 65.7834 9.75215ZM64.9764 8.31177V7.74229C64.9764 7.64375 64.969 7.56406 64.9549 7.5032C64.911 7.32061 64.8167 7.16701 64.6732 7.04312C64.5283 6.91922 64.3537 6.85691 64.1523 6.85691C63.8618 6.85691 63.6344 6.96921 63.4672 7.19454C63.3015 7.41987 63.2175 7.70751 63.2175 8.05891C63.2175 8.39654 63.297 8.67042 63.4568 8.88126C63.6255 9.10586 63.8528 9.21817 64.1375 9.21817C64.3931 9.21817 64.5974 9.1247 64.7528 8.93705C64.9029 8.76388 64.9764 8.55522 64.9764 8.31177Z" fill="white"/>
<path d="M72.4446 8.01465C72.4446 8.53993 72.2908 8.97031 71.9831 9.30794C71.6606 9.65499 71.2341 9.82815 70.6998 9.82815C70.1863 9.82815 69.7769 9.66224 69.4707 9.32895C69.166 8.99639 69.0137 8.57689 69.0137 8.07116C69.0137 7.54225 69.1705 7.10826 69.4855 6.77135C69.8006 6.43444 70.2242 6.26562 70.7585 6.26562C71.272 6.26562 71.6859 6.43154 71.998 6.7641C72.2953 7.08725 72.4446 7.50458 72.4446 8.01465ZM71.6376 8.03928C71.6376 7.72411 71.5677 7.45386 71.4288 7.22853C71.2646 6.9561 71.0327 6.81989 70.7295 6.81989C70.4174 6.81989 70.1796 6.9561 70.0154 7.22853C69.8757 7.45386 69.8066 7.72846 69.8066 8.05305C69.8066 8.36822 69.8764 8.63847 70.0154 8.8638C70.1841 9.13623 70.4189 9.27244 70.7221 9.27244C71.0193 9.27244 71.2534 9.13405 71.4214 8.85656C71.5648 8.62688 71.6376 8.35445 71.6376 8.03928Z" fill="white"/>
<path d="M76.6303 9.7528H75.8523V7.79656C75.8523 7.19375 75.6175 6.89235 75.1456 6.89235C74.9145 6.89235 74.728 6.97494 74.5838 7.14086C74.4396 7.30678 74.3676 7.5024 74.3676 7.72628V9.75208H73.588V7.3133C73.588 7.01334 73.5791 6.68803 73.5605 6.3359H74.2442L74.2806 6.86989H74.3022C74.3936 6.70397 74.5288 6.56703 74.7057 6.45763C74.9175 6.33011 75.153 6.26562 75.4124 6.26562C75.7386 6.26562 76.0106 6.36851 76.2268 6.575C76.4966 6.82786 76.6303 7.20535 76.6303 7.70672V9.7528Z" fill="white"/>
<path d="M81.8717 6.90374H81.0142V8.56292C81.0142 8.9846 81.1665 9.19543 81.4682 9.19543C81.6079 9.19543 81.7239 9.18384 81.8153 9.15993L81.8353 9.73594C81.6815 9.79245 81.4794 9.82071 81.2304 9.82071C80.9228 9.82071 80.6835 9.72942 80.5104 9.54683C80.3365 9.36425 80.2503 9.05705 80.2503 8.62595V6.90374H79.7383V6.33498H80.2503V5.70898L81.0135 5.48438V6.33425H81.871V6.90374H81.8717Z" fill="white"/>
<path d="M85.9954 9.75215H85.2159V7.8104C85.2159 7.19817 84.9811 6.89169 84.5107 6.89169C84.1495 6.89169 83.9028 7.0692 83.7676 7.42422C83.7445 7.49885 83.7312 7.59014 83.7312 7.69737V9.75142H82.9531V4.76953H83.7312V6.82793H83.746C83.9913 6.45335 84.3428 6.26642 84.7983 6.26642C85.1208 6.26642 85.3876 6.3693 85.5994 6.57579C85.8632 6.833 85.9954 7.21556 85.9954 7.72128V9.75215Z" fill="white"/>
<path d="M90.2472 7.88395C90.2472 8.02016 90.2368 8.13464 90.2182 8.2281H87.8826C87.893 8.56573 88.0045 8.82294 88.2207 9.00118C88.4184 9.16058 88.6733 9.24028 88.9854 9.24028C89.3309 9.24028 89.646 9.18666 89.9299 9.0787L90.0518 9.60616C89.7196 9.74672 89.3287 9.817 88.8762 9.817C88.3337 9.817 87.9064 9.66123 87.5973 9.34968C87.2866 9.03813 87.1328 8.62007 87.1328 8.09551C87.1328 7.58037 87.2762 7.15145 87.5653 6.80947C87.867 6.4443 88.275 6.26172 88.79 6.26172C89.2938 6.26172 89.6765 6.4443 89.9351 6.80947C90.1439 7.09928 90.2472 7.45792 90.2472 7.88395ZM89.5041 7.6876C89.51 7.46227 89.4587 7.2681 89.3532 7.10435C89.218 6.89351 89.0121 6.78773 88.7335 6.78773C88.4793 6.78773 88.272 6.89061 88.1137 7.09711C87.9844 7.26157 87.9079 7.45792 87.8826 7.6876H89.5041Z" fill="white"/>
<path d="M40.0442 22.8452H38.3566L37.4321 20.013H34.2189L33.3383 22.8452H31.6953L34.8788 13.2031H36.8451L40.0442 22.8452ZM37.1535 18.8248L36.3175 16.307C36.229 16.0498 36.0633 15.4441 35.8188 14.4906H35.7891C35.6918 14.9007 35.535 15.5064 35.3195 16.307L34.4983 18.8248H37.1535Z" fill="white"/>
<path d="M48.2304 19.2835C48.2304 20.466 47.9027 21.4006 47.2472 22.0868C46.6602 22.6976 45.9312 23.0026 45.061 23.0026C44.1217 23.0026 43.447 22.6736 43.036 22.0158H43.0063V25.6783H41.422V18.1815C41.422 17.4382 41.4019 16.6752 41.3633 15.8927H42.7566L42.845 16.9947H42.8748C43.4031 16.1644 44.2049 15.75 45.281 15.75C46.1222 15.75 46.8244 16.0739 47.3862 16.7223C47.9495 17.3715 48.2304 18.225 48.2304 19.2835ZM46.6163 19.3401C46.6163 18.6633 46.4603 18.1055 46.1467 17.6664C45.8041 17.2085 45.3441 16.9795 44.7675 16.9795C44.3766 16.9795 44.0214 17.1071 43.7041 17.3585C43.386 17.6121 43.178 17.9432 43.0806 18.3532C43.0316 18.5445 43.007 18.701 43.007 18.8242V19.9834C43.007 20.4892 43.1661 20.9159 43.4841 21.2644C43.8022 21.6129 44.2153 21.7868 44.7236 21.7868C45.3203 21.7868 45.7848 21.5622 46.117 21.1144C46.4499 20.666 46.6163 20.0747 46.6163 19.3401Z" fill="white"/>
<path d="M56.4328 19.2835C56.4328 20.466 56.105 21.4006 55.4489 22.0868C54.8626 22.6976 54.1336 23.0026 53.2634 23.0026C52.3241 23.0026 51.6493 22.6736 51.2391 22.0158H51.2094V25.6783H49.6251V18.1815C49.6251 17.4382 49.605 16.6752 49.5664 15.8927H50.9597L51.0482 16.9947H51.0779C51.6055 16.1644 52.4073 15.75 53.4841 15.75C54.3246 15.75 55.0268 16.0739 55.5901 16.7223C56.1511 17.3715 56.4328 18.225 56.4328 19.2835ZM54.8187 19.3401C54.8187 18.6633 54.6619 18.1055 54.3483 17.6664C54.0058 17.2085 53.5473 16.9795 52.9699 16.9795C52.5782 16.9795 52.2238 17.1071 51.9057 17.3585C51.5877 17.6121 51.3803 17.9432 51.283 18.3532C51.2347 18.5445 51.2094 18.701 51.2094 18.8242V19.9834C51.2094 20.4892 51.3684 20.9159 51.685 21.2644C52.0031 21.6122 52.4162 21.7868 52.926 21.7868C53.5227 21.7868 53.9872 21.5622 54.3193 21.1144C54.6523 20.666 54.8187 20.0747 54.8187 19.3401Z" fill="white"/>
<path d="M65.6039 20.1419C65.6039 20.9621 65.3118 21.6294 64.7255 22.1445C64.0812 22.7075 63.1843 22.9886 62.0317 22.9886C60.9676 22.9886 60.1145 22.7886 59.4688 22.388L59.8358 21.1005C60.5314 21.5106 61.2946 21.7163 62.1261 21.7163C62.7228 21.7163 63.1873 21.5845 63.5209 21.3222C63.8531 21.0599 64.0188 20.7078 64.0188 20.2687C64.0188 19.8775 63.8821 19.5478 63.6079 19.2804C63.3352 19.0131 62.8796 18.7646 62.2435 18.5349C60.5121 17.9053 59.6471 16.983 59.6471 15.7701C59.6471 14.9774 59.9503 14.3275 60.5574 13.8218C61.1623 13.3154 61.9693 13.0625 62.9785 13.0625C63.8784 13.0625 64.6259 13.2154 65.2227 13.5204L64.8266 14.7796C64.2692 14.484 63.6391 14.3362 62.9339 14.3362C62.3765 14.3362 61.9411 14.4703 61.629 14.7369C61.3652 14.9753 61.2329 15.2658 61.2329 15.61C61.2329 15.9911 61.3837 16.3062 61.6869 16.554C61.9507 16.783 62.4301 17.0308 63.1256 17.2981C63.9765 17.6321 64.6014 18.0227 65.0034 18.4704C65.404 18.9167 65.6039 19.4753 65.6039 20.1419Z" fill="white"/>
<path d="M70.8408 17.0518H69.0945V20.4274C69.0945 21.2859 69.4021 21.7149 70.0189 21.7149C70.302 21.7149 70.5369 21.691 70.7226 21.6431L70.7665 22.8162C70.4544 22.9299 70.0434 22.9871 69.5344 22.9871C68.9087 22.9871 68.4197 22.8009 68.0668 22.4293C67.7153 22.0568 67.5384 21.4323 67.5384 20.5549V17.0503H66.498V15.8911H67.5384V14.6181L69.0945 14.1602V15.8911H70.8408V17.0518Z" fill="white"/>
<path d="M78.7208 19.3111C78.7208 20.3798 78.4072 21.2572 77.7815 21.9433C77.1254 22.6497 76.2544 23.0019 75.1688 23.0019C74.1225 23.0019 73.2894 22.6635 72.6682 21.9868C72.0469 21.3101 71.7363 20.4558 71.7363 19.4263C71.7363 18.3489 72.0559 17.4664 72.6972 16.7803C73.337 16.0934 74.2005 15.75 75.2862 15.75C76.3325 15.75 77.1744 16.0884 77.8098 16.7658C78.4176 17.4229 78.7208 18.2714 78.7208 19.3111ZM77.0771 19.3611C77.0771 18.7199 76.9366 18.1699 76.652 17.7113C76.3198 17.1563 75.845 16.8795 75.2297 16.8795C74.5928 16.8795 74.1091 17.157 73.7769 17.7113C73.4923 18.1707 73.3519 18.7293 73.3519 19.3901C73.3519 20.0313 73.4923 20.5812 73.7769 21.0391C74.1195 21.5941 74.598 21.8709 75.2156 21.8709C75.8205 21.8709 76.2953 21.5883 76.6379 21.0246C76.9299 20.5573 77.0771 20.0016 77.0771 19.3611Z" fill="white"/>
<path d="M83.8698 17.2512C83.713 17.223 83.5458 17.2085 83.3705 17.2085C82.8131 17.2085 82.3821 17.4135 82.0789 17.8243C81.8151 18.1866 81.6829 18.6445 81.6829 19.1973V22.8454H80.0993L80.1141 18.0823C80.1141 17.2809 80.0941 16.5513 80.0547 15.8935H81.4347L81.4926 17.2237H81.5365C81.7037 16.7665 81.9675 16.3985 82.3286 16.1224C82.6816 15.8739 83.0628 15.75 83.4738 15.75C83.6201 15.75 83.7524 15.7601 83.8698 15.7783V17.2512Z" fill="white"/>
<path d="M90.9544 19.0414C90.9544 19.3182 90.9359 19.5515 90.8965 19.7421H86.1435C86.1621 20.4289 86.3917 20.9542 86.8331 21.3165C87.2337 21.6403 87.7516 21.8026 88.3877 21.8026C89.0915 21.8026 89.7335 21.6932 90.3109 21.4737L90.5591 22.546C89.8844 22.8329 89.0877 22.9756 88.1685 22.9756C87.0628 22.9756 86.1948 22.6583 85.5632 22.0243C84.933 21.3904 84.6172 20.539 84.6172 19.4711C84.6172 18.4227 84.9107 17.5496 85.4985 16.8533C86.1138 16.11 86.9454 15.7383 87.9917 15.7383C89.0194 15.7383 89.7974 16.11 90.3258 16.8533C90.7441 17.4438 90.9544 18.1742 90.9544 19.0414ZM89.4437 18.6408C89.4541 18.1829 89.3508 17.7873 89.136 17.4533C88.8618 17.0236 88.4405 16.8091 87.8735 16.8091C87.3556 16.8091 86.9342 17.0185 86.6124 17.4388C86.3486 17.7728 86.1918 18.1734 86.1435 18.64H89.4437V18.6408Z" fill="white"/>
</svg>
