<svg width="104" height="6" viewBox="0 0 104 6" fill="none" xmlns="http://www.w3.org/2000/svg">
<path d="M102.153 3.30515C101.585 3.44072 100.831 3.56198 100.25 3.6312C100.074 3.65239 100.156 3.58956 100.032 3.60183C99.7795 3.62666 99.5671 3.68756 99.3227 3.70575C99.2414 3.71143 99.3315 3.61747 99.2462 3.62494C98.786 3.66475 98.3487 3.75368 97.8947 3.80581C95.613 4.06426 93.3464 4.30953 91.042 4.50841C90.2678 4.57608 89.3362 4.56606 88.5551 4.68214C88.463 4.69599 88.5255 4.79077 88.5086 4.80063C88.2409 4.9531 88.3181 4.74228 88.1343 4.73156C87.4225 4.68839 86.62 4.7416 85.9407 4.83542C85.6482 4.87581 85.9561 5.06469 85.6522 4.96905C85.631 4.96256 85.699 4.84335 85.6173 4.83734C85.4279 4.82413 85.0939 4.8691 84.9515 4.87011C84.6799 4.87119 84.6349 4.87541 84.3765 4.89184C84.0169 4.91373 83.6095 4.88133 83.231 4.93175C83.1507 4.94293 83.2637 5.05862 83.136 5.08779C83.0093 5.11698 82.6612 5.12859 82.5499 5.10604C82.4351 5.08373 82.4788 4.98309 82.4576 4.96191C82.2841 4.78212 81.9042 5.06658 81.8534 5.07654C80.9283 5.24182 80.1361 5.12904 79.2731 5.16622C78.6167 5.1954 77.9136 5.27583 77.2887 5.29032C76.533 5.30727 75.9158 5.25048 75.1824 5.28059C75.1054 5.28362 75.1978 5.44527 75.1041 5.44945C74.5754 5.47313 74.0434 5.48436 73.5069 5.47341C73.0323 5.46408 72.5729 5.43802 72.1276 5.38891C72.0311 5.37806 72.1554 5.22802 72.0591 5.20812C71.441 5.0913 70.5076 4.78565 70.1289 5.44514C69.7032 5.41744 69.2228 5.38636 68.8564 5.24544C68.6146 5.15441 68.8538 4.99084 68.5556 5.05676C68.4888 5.07142 68.5716 5.22026 68.4717 5.2312C68.0499 5.2772 67.6188 5.21865 67.1897 5.28231C67.1049 5.29571 67.123 5.42975 67.0983 5.45305C66.8897 5.64194 66.5783 5.3089 66.5106 5.28251C65.9449 5.08542 65.5764 5.13698 65.0434 5.10362C64.9231 5.09583 65.0544 5.28538 64.9382 5.28446C64.3502 5.27815 63.7243 5.22062 63.1521 5.09187C63.0221 5.06251 63.1566 4.91626 63.0954 4.8942C62.8276 4.79841 62.7409 5.08857 62.4919 5.00148C62.4396 4.98343 62.4824 4.85209 62.474 4.83645C62.3349 4.58998 62.1652 4.90406 62.1234 4.90734C61.6081 4.95625 61.3072 4.57543 60.821 4.56554C60.7602 4.56436 60.8743 4.75148 60.7046 4.73773C59.5919 4.64986 58.4381 4.42402 57.3865 4.1135C57.223 4.06557 57.3631 3.95561 57.3552 3.93802C57.2244 3.66177 57.0595 3.97713 57.003 3.981C56.5579 4.00235 56.2024 3.65851 55.8502 4.01235C54.4121 3.67526 52.9627 3.61484 51.5181 3.34937C51.1619 3.2837 50.8215 3.20634 50.454 3.10635C50.4321 3.10046 50.4847 2.93646 50.4408 2.92543C49.9059 2.79147 49.9886 3.05903 49.5968 3.35152C49.4929 3.4246 49.2444 3.02412 49.2213 2.99464C49.1386 2.88569 49.2458 2.64276 49.2172 2.6209C48.9773 2.4487 48.9719 3.27275 48.63 3.2539C48.6193 3.25194 48.6727 3.1032 48.6446 3.08658C48.5573 3.03445 48.4641 3.08975 48.3772 3.03306C48.1873 2.90256 48.1421 2.50024 47.8289 2.71849C47.7888 2.74691 47.8281 3.21503 47.5236 3.17945C47.397 3.1644 46.866 3.15098 46.7216 3.11586C46.5745 3.0804 46.6814 2.93433 46.6711 2.92746C46.2749 2.71544 46.4298 2.63877 46.2334 2.33931C46.0343 2.04133 46.0709 2.73888 45.9837 2.81394C45.8878 2.88846 45.6149 2.71758 45.5418 2.6591C45.4716 2.60058 45.5634 2.50797 45.5004 2.47428C45.0795 2.25447 45.3052 2.81437 45.1618 2.92108C44.827 3.17376 44.5485 2.65355 44.2629 2.59855C44.1824 2.5836 44.2464 2.70161 44.1742 2.71131C43.8876 2.74821 43.715 2.58583 43.3757 2.72815C43.3235 2.75144 43.0314 3.05524 42.8723 2.82829C42.8487 2.79558 42.9176 2.66893 42.7971 2.63937C42.6174 2.59499 42.2866 2.56516 42.0849 2.6067C41.9362 2.63739 42.1061 2.84705 41.9188 2.78128C41.8352 2.75197 41.9907 2.63042 41.8334 2.58565C41.7379 2.55839 41.5502 2.54943 41.3809 2.54772C41.2776 2.54662 41.1825 2.54843 41.1242 2.55009C40.9753 2.55445 41.057 2.71213 41.045 2.72276C40.9724 2.7836 40.6862 2.8596 40.6607 2.85945C39.3745 2.87889 38.1927 2.62787 36.9488 2.73373C36.8509 2.74176 36.9191 2.90285 36.9042 2.90575C36.5698 2.97857 36.8267 2.54381 36.589 2.4041C36.6292 2.73175 36.4895 2.67463 36.2529 2.71483C36.1393 2.73445 36.204 2.86001 36.1939 2.87318C36.0299 3.0683 35.9076 2.82202 35.8763 2.77196C35.7608 2.58759 35.6441 2.81025 35.5654 2.68729C35.4866 2.56548 35.6575 2.37848 35.431 2.38605C35.3701 2.50383 35.5452 2.80466 35.3744 2.85738C34.729 3.05531 33.5145 2.8457 32.9908 2.83703C32.4683 2.8271 32.3022 2.853 31.9974 2.82121C31.447 2.76437 31.6551 2.97656 31.3184 3.08591C30.9808 3.19511 31.1278 2.65706 31.0747 2.54397C31.0224 2.43118 30.974 2.55095 30.9118 2.49024C30.8497 2.42964 30.9764 2.34692 30.8349 2.32874C30.6934 2.31078 30.3163 2.52841 30.271 2.64878C30.1751 2.90411 30.3581 3.16213 29.9831 3.08157C29.9615 3.07681 30.0256 2.93597 29.9432 2.9248C29.2896 2.84103 28.6125 2.86045 27.9596 2.79522C27.8698 2.7861 27.9431 2.63248 27.8908 2.62555C27.3456 2.55369 27.5507 2.79811 27.2661 3.08919C27.3164 2.715 27.1415 2.49493 26.7298 2.51321C26.4825 2.5239 26.5325 2.68257 26.378 2.80287C26.3317 2.83903 26.152 2.73737 26.1239 2.81399C26.0313 3.06406 26.2082 3.33142 25.7809 3.2396C25.7621 3.23522 25.8147 3.09903 25.7503 3.09371C25.3337 3.05917 25.2942 3.31553 24.8473 3.3644C24.4957 3.40258 23.8693 3.27717 23.4634 3.27216C23.451 2.87673 23.0766 2.98805 22.9379 3.2649C22.6777 3.26637 22.399 3.29502 22.1477 3.27062C22.0609 3.26239 22.1113 3.14793 22.0998 3.1364C21.921 2.95635 21.8218 3.22057 21.7661 3.23331C21.1593 3.3616 20.6637 3.19635 20.089 3.4131C20.0687 3.42098 20.0503 3.68019 19.8836 3.50017C19.8728 3.48788 20.058 3.36042 19.7839 3.36621C19.5087 3.37144 18.9917 3.26509 18.6194 3.40337C18.5285 3.43698 18.3075 3.65156 18.1113 3.50433C18.0851 3.48439 18.1079 3.41173 18.0696 3.37429C17.9458 3.2555 17.8983 3.50857 17.7494 3.30519C17.5993 3.1018 17.3129 2.96505 16.9379 3.1348C16.9259 3.13989 16.8468 3.3393 16.7257 3.34375C16.5322 3.3509 16.257 3.32872 16.0579 3.34311C15.9625 3.35003 16.0313 3.46366 16.0149 3.46689C15.3877 3.57191 14.901 3.49816 14.2181 3.50109C14.0951 3.50171 13.7378 3.67746 13.4825 3.57483C13.2039 3.46377 13.4407 2.90349 12.8348 3.08319C12.5939 3.15734 12.323 3.84445 11.847 3.53477C10.9935 3.68094 10.1697 3.57736 9.30749 3.75907C9.26815 3.76728 9.1559 3.9449 9.06351 3.94908C8.92631 3.95524 8.84589 3.88311 8.74889 3.88545C8.35292 3.89262 7.96183 3.988 7.57289 4.00751C7.42459 4.01529 7.46994 3.93501 7.29473 3.94486C7.12451 3.95467 7.0031 4.06339 6.75524 4.03521C6.56762 4.01348 6.36922 3.83152 6.1311 3.83089C6.13733 4.02397 5.97795 4.03345 5.67564 4.10839C5.61861 4.12273 5.68595 4.18323 5.65925 4.19335C5.55078 4.23564 5.44468 4.1897 5.34453 4.23413C5.32017 4.24479 5.3242 4.30819 5.30463 4.32038C5.13799 4.42582 4.84808 4.30525 4.78824 4.28626C4.58395 4.21021 4.50115 4.29749 4.35257 4.27346C4.20512 4.24994 4.41714 4.18752 4.24702 4.1804C3.91625 4.16444 3.41752 4.21897 3.08663 4.24608C2.943 4.25833 3.04746 4.3253 3.02717 4.32881C2.71347 4.37444 2.41917 4.32241 2.27658 4.48082C2.02825 4.12593 2.07869 4.53443 1.66793 4.49403C1.63653 4.49061 1.58111 4.32373 1.69903 4.2866C1.81732 4.24921 2.0144 4.28512 2.20049 4.22663C2.25543 4.2124 2.45724 4.02273 2.49258 4.00818C2.7386 3.90021 2.80432 4.16855 2.81865 4.18257C3.00042 4.32961 3.26449 4.11807 3.34062 4.09653C3.68533 4.00229 4.00712 4.01178 4.28694 3.93969C4.47713 3.89217 4.48061 3.69545 4.6364 3.68476C5.15921 3.64734 5.32951 3.91803 5.80367 3.62145C5.90199 3.55808 5.79177 3.34069 6.16045 3.48157C6.18345 3.48996 6.46472 3.62908 6.61518 3.50767C6.63399 3.49229 6.62791 3.42439 6.65372 3.41592C6.82573 3.36045 6.95499 3.40224 7.14136 3.35635C7.3238 3.3107 7.546 3.2466 7.76589 3.24786C7.89816 3.24833 8.07928 3.36469 8.14597 3.39159C8.33895 3.46901 8.50572 3.29507 8.62415 3.40089C8.74234 3.50847 8.54216 3.70438 8.83503 3.75701C8.83099 3.56459 8.84041 3.3656 8.84279 3.1708C9.48597 3.11246 10.1017 3.11703 10.7479 3.04737C10.8281 3.03844 10.7378 2.93628 10.8237 2.92361C11.1846 2.87024 11.4896 2.92104 11.8618 2.8536C12.1481 2.80109 12.4616 2.64813 12.7524 2.58766C12.9509 2.8186 13.3895 2.69389 13.7196 2.68682C13.835 2.68445 13.8324 2.75346 13.9155 2.76864C14.2208 2.82526 14.0649 2.61 14.1447 2.56658C14.4886 2.37945 14.5541 2.8968 14.9767 2.85044C14.9989 2.84856 15.2556 2.54324 15.2928 2.52176C15.527 2.38521 15.3406 2.61687 15.4915 2.62511C15.7636 2.64044 15.9564 2.69429 16.2713 2.58311C16.3631 2.55061 16.5762 2.34926 16.7686 2.47512C16.7939 2.49164 16.7868 2.58975 16.8065 2.59388C17.166 2.66097 17.1503 2.35407 17.342 2.23222C17.5325 2.11011 17.8529 2.29828 17.9194 2.35592C18.0932 2.50385 17.7983 2.43461 17.7905 2.45113C17.6984 2.64649 17.9199 2.59704 18.0927 2.60006C18.1366 2.90566 18.3761 2.87092 18.2719 2.60204C18.2601 2.57276 18.128 2.61154 18.0927 2.60006C18.2239 2.28735 18.4896 2.22389 18.7964 2.48815C18.9396 2.61235 18.8209 2.77835 19.2286 2.69231C19.414 2.65329 19.3286 2.44108 19.4905 2.36933C19.8593 2.20461 20.3711 2.3728 20.7537 2.31345C20.894 2.29145 20.7496 2.17894 20.8453 2.1595C21.0993 2.10716 21.331 2.18332 21.5872 2.11725C21.6104 2.11106 21.5458 1.9853 21.6262 1.97768C22.2403 1.91687 22.7638 1.964 23.4033 1.92296C23.7134 1.90302 24.2542 1.79145 24.5734 1.78536C25.1261 1.7734 25.8155 1.93325 26.2827 1.85668C26.5883 1.80686 26.5145 1.67033 26.6419 1.56632C26.8875 1.36387 27.3545 1.67111 27.4163 1.72052C27.4184 1.72216 27.1553 1.77069 27.2999 1.83556C27.3884 1.983 27.4133 1.72141 27.4163 1.72052C27.4574 1.75173 27.9863 1.75489 28.0901 1.72186C28.1465 1.70376 28.1088 1.5695 28.1383 1.56258C28.8401 1.40088 29.5472 1.32518 30.2669 1.35373C30.2796 1.35591 30.2664 1.51295 30.2963 1.51616C30.7139 1.56544 30.9729 1.36129 31.3117 1.22975C31.6504 1.09846 31.9237 1.12317 32.1352 1.38764C32.3924 1.34172 32.7668 1.44725 32.9828 1.51292C33.1986 1.57861 33.2191 1.26436 33.2378 1.25734C33.819 1.0348 34.1596 1.20098 34.7707 1.20796C35.0609 1.21164 35.6334 1.14641 35.9447 1.10164C36.1903 1.06563 36.3425 1.13649 36.5702 1.08167C36.6011 1.07433 36.5671 0.931788 36.5764 0.925991C36.8287 0.746619 36.7124 1.1013 36.7662 1.16252C36.9612 1.38538 37.081 1.50457 37.4044 1.38929C37.479 1.36306 37.6895 0.849207 37.8258 0.815758C38.0026 0.773494 37.9387 0.957879 38.1257 0.909224C38.1417 0.905233 38.1369 0.792415 38.2529 0.794676C38.7925 0.80368 39.3702 0.858662 39.93 0.838982C40.0065 0.836713 39.9072 0.657168 40.0178 0.65084C40.4621 0.625539 40.9404 0.621826 41.3809 0.672908C41.4581 0.681442 41.5339 0.69151 41.608 0.703261C41.7351 0.724056 41.6552 0.852455 41.6827 0.89026C41.8516 1.11922 42.0882 0.784365 42.1269 0.777761C43.0287 0.613518 43.7647 0.920774 44.6862 0.787833C44.7398 0.780048 45.1506 0.42343 45.3179 0.73784C45.3297 0.7587 45.4951 1.08049 45.651 0.865968C45.6606 0.852538 45.5589 0.686249 45.7435 0.706912C45.918 0.727322 46.2489 0.62554 46.5028 0.813609C46.5842 0.872823 46.7684 1.1973 47.0176 0.951344C47.0305 0.933999 47.4337 0.372244 47.5597 0.774683C47.579 0.840918 47.5398 1.2597 47.8442 1.05664C47.9022 1.01726 47.8046 0.919231 47.9549 0.866994C48.187 0.786519 48.4656 0.912173 48.7692 0.740073C48.8207 0.709464 49.0478 0.435036 49.2004 0.661069C49.2242 0.696471 49.167 0.834092 49.253 0.85477C49.6433 0.95265 50.1269 0.889796 50.5257 1.01713C50.6688 1.06214 50.5771 1.2835 50.7324 1.35661C50.8893 1.42975 51.1999 1.51407 51.3684 1.42438C51.5382 1.33472 51.3926 0.957473 51.6388 0.950217C51.6718 0.949451 51.7047 0.948993 51.7375 0.948829C52.7821 0.940165 53.8079 1.26228 54.8321 1.43777C54.9867 1.46446 54.874 1.31733 55.11 1.34891C55.9714 1.46107 57.4488 1.58781 58.1197 1.97712C58.6623 2.2887 57.9094 2.33338 58.3363 2.49375C58.5409 2.57016 58.8355 2.19514 58.8886 2.19047C59.4042 2.13863 59.7224 2.37448 60.1749 2.38364C60.2692 2.38556 60.2014 2.20579 60.2814 2.20927C60.5552 2.21972 60.8154 2.33171 61.079 2.35285C61.1966 2.36181 61.1878 2.23172 61.2904 2.2551C61.5327 2.30903 61.7587 2.39113 61.9877 2.53826C62.0086 2.55163 61.8431 2.69184 62.0256 2.71902C62.3193 2.76245 62.7007 2.92121 63.0511 2.83423C63.1583 2.80816 63.1862 2.52081 63.3955 2.74122C63.4381 2.78705 63.3548 3.12755 63.6367 2.85265C63.6828 2.80681 64.1423 2.44388 64.3449 2.72023C64.3987 2.79311 64.526 3.08593 64.6497 3.05083C64.6668 3.04505 64.6105 2.88639 64.7131 2.8792C65.0706 2.85635 65.481 2.90087 65.8424 2.87585C65.9426 2.86911 65.8024 2.70194 65.9516 2.69702C66.3694 2.68372 66.8779 2.75277 67.2804 2.82161C67.4304 2.84736 67.3217 2.9715 67.3321 2.98613C67.5011 3.22326 67.6189 2.91933 67.6792 2.90422C68.0401 2.81319 68.2999 2.9687 68.6409 2.94341C68.7347 2.93684 68.6718 2.78865 68.6907 2.77636C68.8874 2.65698 68.7369 2.91295 68.8596 2.94627C69.2041 3.04026 69.5564 3.03991 69.9063 3.03151C70.0335 3.02818 69.8928 2.85702 70.0071 2.85607C70.6912 2.84738 71.3541 2.88031 72.0223 2.98234C72.1414 3.0018 72.0664 3.12628 72.0913 3.15547C72.2625 3.35912 72.5183 3.08881 72.5776 3.06395C72.8471 2.9494 72.954 3.06138 73.1983 3.04367C73.293 3.0367 73.3901 3.03082 73.4893 3.0259C74.6084 2.9697 75.9084 3.04115 76.9246 3.07804C78.3636 3.1308 79.4828 3.22623 80.8563 3.17327C80.9429 3.1701 80.8496 3.02362 80.924 3.01914C81.8957 2.96856 82.8553 3.00449 83.8206 2.93843C83.8993 2.93338 83.7786 2.80352 83.9046 2.79122C84.1671 2.76492 84.5043 2.76402 84.7708 2.79842C84.9011 2.81484 84.7344 2.93128 84.8653 2.94525C85.1684 2.97792 85.4952 2.97581 85.8086 2.94445C85.9412 2.93097 85.7322 2.80774 85.9051 2.80067C87.071 2.74981 88.2357 2.68953 89.4297 2.7879C89.5126 2.79469 89.6039 3.03135 89.7735 2.97564C89.7812 2.90858 89.7742 2.8306 89.7742 2.75942C91.4855 2.63869 93.169 2.6203 94.8967 2.5058C94.9698 2.50107 94.8324 2.40265 94.9736 2.39331C95.7667 2.3408 96.5764 2.25612 97.4021 2.28725C97.4871 2.28971 97.466 2.46323 97.7069 2.41549C97.7521 2.40665 98.1021 2.35268 98.196 2.30807C98.2085 2.30156 98.1307 2.23073 98.2511 2.218C98.9276 2.14812 99.6557 2.09981 100.337 2.07387C100.45 2.06938 100.341 2.15489 100.421 2.15212C100.979 2.13122 101.565 2.01261 102.11 2.00779C102.473 2.00356 102.356 2.13366 102.565 2.21664C102.585 2.22994 102.82 2.19723 102.828 2.26025C102.88 2.41371 102.815 2.60311 102.882 2.76505C102.88 2.79415 103.078 2.73924 103.068 2.77251C103.068 2.77252 103.068 2.77253 103.068 2.77253C103.075 2.78081 103.061 2.79724 103.024 2.8249C103.019 2.83218 102.809 2.9032 102.753 2.94482C102.724 2.97221 102.794 3.02477 102.73 3.06536C102.67 3.10558 102.553 3.07134 102.451 3.12475C102.339 3.18049 102.388 3.24809 102.153 3.30515ZM33.9527 1.80989C34.1539 1.95503 34.1682 1.39852 33.9584 1.53898C33.9482 1.54643 33.9424 1.8028 33.9527 1.80989ZM10.125 3.3864C10.3921 3.52247 10.5525 3.27389 10.3613 3.16769C10.1706 3.06307 10.0439 3.3459 10.125 3.3864ZM7.46998 3.72899C7.77648 3.81708 7.78746 3.34711 7.47556 3.47236C7.4575 3.47951 7.45214 3.72399 7.46998 3.72899ZM101.693 2.37228C101.69 2.37609 101.861 2.35551 101.862 2.35208C101.938 2.26489 101.61 2.30255 101.693 2.37228ZM4.84198 4.06865C4.94679 4.11585 5.19624 4.02885 5.07897 3.9685C4.98724 3.92035 4.71645 4.0103 4.84198 4.06865ZM44.2595 2.31014C44.2625 2.31898 44.3734 2.32873 44.3719 2.27893C44.3673 2.1185 44.2115 2.16133 44.2595 2.31014ZM0.343924 4.48773C0.993019 4.43345 1.46705 4.68119 0.711859 4.70947C0.584646 4.71452 0.980639 4.59878 0.813494 4.58778C0.538901 4.56754 0.305274 4.75698 0.00885752 4.69276C-0.0843331 4.68575 0.338216 4.488 0.344977 4.48725C0.344622 4.48741 0.344272 4.48757 0.343924 4.48773ZM34.0843 2.47286C34.0884 2.48008 34.2464 2.48284 34.25 2.47546C34.3309 2.29657 34.0123 2.29143 34.0843 2.47286ZM50.8946 2.97715C50.9032 2.99454 51.2624 3.04078 51.2741 3.02645C51.49 2.73309 50.7612 2.63835 50.8946 2.97715ZM23.4565 3.26193C23.2917 3.42543 23.0863 3.45189 22.9387 3.26505C23.1104 3.26712 23.2832 3.26046 23.4565 3.26193Z" fill="#2A8851"/>
</svg>
