<svg width="83" height="37" viewBox="0 0 83 37" fill="none" xmlns="http://www.w3.org/2000/svg">
<g clip-path="url(#clip0_2201_34189)">
<path opacity="0.92" fill-rule="evenodd" clip-rule="evenodd" d="M14.4925 0.175781C15.879 0.175781 17.2654 0.175781 18.6519 0.175781C18.6519 9.15478 18.6519 18.134 18.6519 27.113C17.3314 27.113 16.0111 27.113 14.6906 27.113C14.7232 26.5152 14.6902 25.921 14.5915 25.3304C12.3397 27.3412 9.73172 27.9684 6.76785 27.212C2.54784 25.7263 0.435115 22.7222 0.429688 18.1999C0.791616 11.5494 4.2908 8.47937 10.9273 8.98979C12.2294 9.26134 13.3847 9.82247 14.3935 10.6734C14.4925 7.1747 14.5256 3.6756 14.4925 0.175781ZM9.14466 12.456C10.9128 12.3736 12.3983 12.9678 13.6012 14.2386C13.9761 14.8562 14.2402 15.5163 14.3935 16.2193C14.6074 17.9674 14.4753 19.6841 13.9973 21.369C12.1454 23.8567 9.80163 24.4181 6.96592 23.0526C5.0701 21.3175 4.37686 19.1717 4.88621 16.6154C5.37997 14.2396 6.79946 12.8531 9.14466 12.456Z" fill="#3F7CDB"/>
<path opacity="0.913" fill-rule="evenodd" clip-rule="evenodd" d="M65.1973 0.175781C66.5837 0.175781 67.9702 0.175781 69.3567 0.175781C69.3236 3.6756 69.3567 7.1747 69.4557 10.6734C71.5733 8.89313 73.9831 8.39796 76.6852 9.18786C79.374 10.2949 80.8595 12.3086 81.1417 15.2289C81.2407 19.1897 81.2738 23.151 81.2407 27.113C79.7883 27.113 78.3357 27.113 76.8833 27.113C76.9163 23.2172 76.8833 19.3218 76.7842 15.427C76.2982 13.6808 75.1428 12.8224 73.318 12.8521C71.4701 12.8182 70.2488 13.6767 69.6538 15.427C69.3664 19.3115 69.2674 23.2069 69.3567 27.113C67.9702 27.113 66.5837 27.113 65.1973 27.113C65.1973 18.134 65.1973 9.15478 65.1973 0.175781Z" fill="#3F7CDB"/>
<path opacity="0.865" fill-rule="evenodd" clip-rule="evenodd" d="M41.627 1.55859C43.0134 1.55859 44.3999 1.55859 45.7864 1.55859C45.7864 2.94507 45.7864 4.33154 45.7864 5.71801C44.3999 5.71801 43.0134 5.71801 41.627 5.71801C41.627 4.33154 41.627 2.94507 41.627 1.55859Z" fill="#3F7CDB"/>
<path opacity="0.907" fill-rule="evenodd" clip-rule="evenodd" d="M26.7727 8.89124C29.1617 8.80904 31.5386 8.90808 33.9031 9.18834C35.6395 10.5279 37.257 12.0134 38.7557 13.6449C39.0083 14.084 39.2064 14.5463 39.3499 15.0313C39.5355 17.4222 39.4696 19.799 39.1519 22.1618C37.7131 23.9973 36.1286 25.7139 34.3983 27.3115C34.1576 28.2129 34.0257 29.1373 34.0021 30.0845C33.8169 30.5999 33.4539 30.897 32.9128 30.9758C30.7806 31.1643 28.6678 31.0984 26.5746 30.7777C26.2678 30.5373 26.0368 30.2402 25.8814 29.8864C25.8154 29.0282 25.7492 28.1698 25.6833 27.3115C24.2309 25.8591 22.7782 24.4065 21.3258 22.954C21.0733 22.5149 20.8752 22.0526 20.7316 21.5676C20.546 19.1767 20.612 16.7999 20.9297 14.4371C21.1521 13.8926 21.4492 13.3975 21.821 12.9516C23.0692 11.9017 24.2576 10.7792 25.3862 9.58448C25.8665 9.34422 26.3288 9.11328 26.7727 8.89124ZM27.763 12.8526C29.4301 12.7722 31.0808 12.8712 32.7147 13.1497C33.4739 14.041 34.2333 14.9323 34.9925 15.8236C35.1246 17.4741 35.1246 19.1248 34.9925 20.7753C34.1907 21.6428 33.4644 22.567 32.8137 23.5482C32.6246 24.6911 32.8555 25.7474 33.507 26.7173C31.1961 26.9814 28.8854 26.9814 26.5746 26.7173C26.9781 25.936 27.2423 25.1106 27.3669 24.2415C27.3441 23.7004 27.1791 23.2052 26.8717 22.756C26.2042 22.1548 25.61 21.4947 25.0891 20.7753C24.957 19.1248 24.957 17.4741 25.0891 15.8236C25.8128 14.6713 26.7041 13.6809 27.763 12.8526Z" fill="#3F7CDB"/>
<path opacity="0.908" fill-rule="evenodd" clip-rule="evenodd" d="M53.9066 8.88599C55.6536 8.78121 57.3702 8.9462 59.0564 9.38116C61.2213 10.3755 62.4428 12.059 62.7206 14.4319C62.8197 18.6569 62.8528 22.8822 62.8197 27.1082C61.3672 27.1082 59.9146 27.1082 58.4622 27.1082C58.4943 26.7067 58.4612 26.3106 58.3632 25.9198C55.6776 27.8296 52.8715 27.9946 49.9453 26.415C47.8161 24.3333 47.387 21.9234 48.6578 19.1855C49.9607 17.6055 51.6443 16.7804 53.7086 16.7097C55.2931 16.5974 56.8776 16.4983 58.4622 16.4126C58.5826 13.1345 57.064 11.9792 53.9066 12.9464C53.0714 13.6032 52.6093 14.4614 52.5202 15.5213C51.1394 15.4757 49.753 15.4426 48.3607 15.4222C48.6466 11.9024 50.4951 9.72362 53.9066 8.88599ZM56.8776 19.7797C57.4719 19.7797 58.0661 19.7797 58.6603 19.7797C58.686 22.4942 57.3324 23.8807 54.5999 23.9391C52.3288 23.8486 51.6687 22.7923 52.6192 20.77C53.1451 20.4624 53.7062 20.2313 54.3028 20.0768C55.1978 20.0421 56.0563 19.9431 56.8776 19.7797Z" fill="#3F7CDB"/>
<path opacity="0.91" fill-rule="evenodd" clip-rule="evenodd" d="M41.6251 9.08594C43.0115 9.08594 44.398 9.08594 45.7845 9.08594C45.8774 16.6204 45.7783 24.147 45.4874 31.6656C44.8401 33.9634 43.3546 35.383 41.0309 35.9241C39.7781 36.0231 38.5237 36.056 37.2676 36.0231C37.2676 34.7688 37.2676 33.5142 37.2676 32.2598C38.6129 32.4615 39.8341 32.1973 40.9318 31.4676C41.2412 30.9809 41.4393 30.4527 41.526 29.883C41.6251 22.9511 41.6581 16.0187 41.6251 9.08594Z" fill="#3F7CDB"/>
</g>
<defs>
<clipPath id="clip0_2201_34189">
<rect width="82" height="36.0483" fill="white" transform="translate(0.330078 0.0742188)"/>
</clipPath>
</defs>
</svg>
