<svg width="84" height="106" viewBox="0 0 84 106" fill="none" xmlns="http://www.w3.org/2000/svg">
<path d="M82.0307 104.411C74.4828 95.0397 67.2014 85.4246 58.9574 76.6227C54.3627 71.717 49.7671 66.831 45.3217 61.8002C40.4988 56.3422 28.4183 42.8863 15.9264 46.2921C13.4059 46.9793 6.50166 46.9982 1.72602 58.7921C-1.79925 67.4982 5.5 66 9.12053 68.9775C8.5 76.6227 8.00119 74.4985 9.1216 78.9976C13.5012 89.4985 16.5 86 22.727 87.2938C33 89.4281 35.7013 92.5 40.0003 77.2944C48 49 46.5715 39.2179 53.4875 30.8959C58.903 24.3795 65.1409 18.066 71.4541 11.9256C74.8805 8.59295 78.1633 4.85051 81.9588 1.79345" stroke="#E09297" stroke-width="2" stroke-linecap="round" stroke-dasharray="5 5"/>
</svg>
