<svg width="1440" height="20" viewBox="0 0 1440 20" fill="none" xmlns="http://www.w3.org/2000/svg">
<path d="M17.6348 0.0156257C22.5024 0.0156257 26.4491 4.484 26.4492 9.99609C26.4492 15.5083 22.5025 19.9775 17.6348 19.9775C17.6328 19.9775 17.6309 19.9766 17.6289 19.9766V0.0156257C17.6309 0.0156242 17.6328 0.0156257 17.6348 0.0156257Z" fill="#E46159"/>
<path d="M8.82949 -1.92974e-07C3.9531 -8.63972e-08 8.63983e-08 3.9531 1.92976e-07 8.8295L4.37117e-07 20L7.66272 20C13.1848 20 17.6614 15.5234 17.6614 10.0013L17.6614 8.83187C17.6614 3.95416 13.7072 -2.99579e-07 8.82949 -1.92974e-07Z" fill="#E46159"/>
<path d="M51.3184 0.0156257C56.186 0.0156257 60.1326 4.484 60.1328 9.99609C60.1328 15.5083 56.1861 19.9775 51.3184 19.9775C51.3164 19.9775 51.3145 19.9766 51.3125 19.9766V0.0156257C51.3145 0.0156242 51.3164 0.0156257 51.3184 0.0156257Z" fill="#E09297"/>
<path d="M42.5111 -1.92974e-07C37.6347 -8.63972e-08 33.6816 3.9531 33.6816 8.8295L33.6816 20L41.3444 20C46.8665 20 51.343 15.5234 51.343 10.0013L51.343 8.83187C51.343 3.95416 47.3888 -2.99579e-07 42.5111 -1.92974e-07Z" fill="#E09297"/>
<path d="M118.256 0.0156257C123.123 0.0156257 127.07 4.484 127.07 9.99609C127.07 15.5083 123.124 19.9775 118.256 19.9775C118.254 19.9775 118.252 19.9766 118.25 19.9766V0.0156257C118.252 0.0156242 118.254 0.0156257 118.256 0.0156257Z" fill="#2A8851"/>
<path d="M109.449 -1.92974e-07C104.572 -8.63972e-08 100.619 3.9531 100.619 8.8295L100.619 20L108.282 20C113.804 20 118.281 15.5234 118.281 10.0013L118.281 8.83187C118.281 3.95416 114.326 -2.99579e-07 109.449 -1.92974e-07Z" fill="#2A8851"/>
<path d="M151.939 0.0156257C156.807 0.0156257 160.754 4.484 160.754 9.99609C160.754 15.5083 156.807 19.9775 151.939 19.9775C151.937 19.9775 151.936 19.9766 151.934 19.9766V0.0156257C151.936 0.0156242 151.937 0.0156257 151.939 0.0156257Z" fill="#E46159"/>
<path d="M143.132 -1.92974e-07C138.256 -8.63972e-08 134.303 3.9531 134.303 8.8295L134.303 20L141.965 20C147.488 20 151.964 15.5234 151.964 10.0013L151.964 8.83187C151.964 3.95416 148.01 -2.99579e-07 143.132 -1.92974e-07Z" fill="#E46159"/>
<path d="M185.619 0.0156257C190.487 0.0156257 194.433 4.484 194.434 9.99609C194.434 15.5083 190.487 19.9775 185.619 19.9775C185.617 19.9775 185.615 19.9766 185.613 19.9766V0.0156257C185.615 0.0156242 185.617 0.0156257 185.619 0.0156257Z" fill="#E09297"/>
<path d="M176.814 -1.92974e-07C171.937 -8.63972e-08 167.984 3.9531 167.984 8.8295L167.984 20L175.647 20C181.169 20 185.646 15.5234 185.646 10.0013L185.646 8.83187C185.646 3.95416 181.692 -2.99579e-07 176.814 -1.92974e-07Z" fill="#E09297"/>
<path d="M84.5723 0.0156257C89.4399 0.0156257 93.3866 4.484 93.3867 9.99609C93.3867 15.5083 89.44 19.9775 84.5723 19.9775C84.5703 19.9775 84.5684 19.9766 84.5664 19.9766V0.0156257C84.5684 0.0156242 84.5703 0.0156257 84.5723 0.0156257Z" fill="#5285D1"/>
<path d="M75.767 -1.92974e-07C70.8906 -8.63972e-08 66.9375 3.9531 66.9375 8.8295L66.9375 20L74.6002 20C80.1223 20 84.5989 15.5234 84.5989 10.0013L84.5989 8.83187C84.5989 3.95416 80.6447 -2.99579e-07 75.767 -1.92974e-07Z" fill="#5285D1"/>
<path d="M256.65 0.0156257C261.518 0.0156257 265.465 4.484 265.465 9.99609C265.465 15.5083 261.518 19.9775 256.65 19.9775C256.648 19.9775 256.646 19.9766 256.645 19.9766V0.0156257C256.646 0.0156242 256.648 0.0156257 256.65 0.0156257Z" fill="#2A8851"/>
<path d="M247.845 -1.92974e-07C242.969 -8.63972e-08 239.016 3.9531 239.016 8.8295L239.016 20L246.678 20C252.2 20 256.677 15.5234 256.677 10.0013L256.677 8.83187C256.677 3.95416 252.723 -2.99579e-07 247.845 -1.92974e-07Z" fill="#2A8851"/>
<path d="M290.334 0.0156257C295.202 0.0156257 299.148 4.484 299.148 9.99609C299.148 15.5083 295.202 19.9775 290.334 19.9775C290.332 19.9775 290.33 19.9766 290.328 19.9766V0.0156257C290.33 0.0156242 290.332 0.0156257 290.334 0.0156257Z" fill="#E46159"/>
<path d="M281.529 -1.92974e-07C276.652 -8.63972e-08 272.699 3.9531 272.699 8.8295L272.699 20L280.362 20C285.884 20 290.361 15.5234 290.361 10.0013L290.361 8.83187C290.361 3.95416 286.406 -2.99579e-07 281.529 -1.92974e-07Z" fill="#E46159"/>
<path d="M324.018 0.0156257C328.885 0.0156257 332.832 4.484 332.832 9.99609C332.832 15.5083 328.885 19.9775 324.018 19.9775C324.016 19.9775 324.014 19.9766 324.012 19.9766V0.0156257C324.014 0.0156242 324.016 0.0156257 324.018 0.0156257Z" fill="#E09297"/>
<path d="M315.21 -1.92974e-07C310.334 -8.63972e-08 306.381 3.9531 306.381 8.8295L306.381 20L314.044 20C319.566 20 324.042 15.5234 324.042 10.0013L324.042 8.83187C324.042 3.95416 320.088 -2.99579e-07 315.21 -1.92974e-07Z" fill="#E09297"/>
<path d="M222.971 0.0156257C227.838 0.0156257 231.785 4.484 231.785 9.99609C231.785 15.5083 227.838 19.9775 222.971 19.9775C222.969 19.9775 222.967 19.9766 222.965 19.9766V0.0156257C222.967 0.0156242 222.969 0.0156257 222.971 0.0156257Z" fill="#5285D1"/>
<path d="M214.163 -1.92974e-07C209.287 -8.63972e-08 205.334 3.9531 205.334 8.8295L205.334 20L212.997 20C218.519 20 222.995 15.5234 222.995 10.0013L222.995 8.83187C222.995 3.95416 219.041 -2.99579e-07 214.163 -1.92974e-07Z" fill="#5285D1"/>
<path d="M395.049 0.0156257C399.916 0.0156257 403.863 4.484 403.863 9.99609C403.863 15.5083 399.917 19.9775 395.049 19.9775C395.047 19.9775 395.045 19.9766 395.043 19.9766V0.0156257C395.045 0.0156242 395.047 0.0156257 395.049 0.0156257Z" fill="#2A8851"/>
<path d="M386.242 -1.92974e-07C381.365 -8.63972e-08 377.412 3.9531 377.412 8.8295L377.412 20L385.075 20C390.597 20 395.073 15.5234 395.073 10.0013L395.073 8.83187C395.073 3.95416 391.119 -2.99579e-07 386.242 -1.92974e-07Z" fill="#2A8851"/>
<path d="M428.732 0.0156257C433.6 0.0156257 437.547 4.484 437.547 9.99609C437.547 15.5083 433.6 19.9775 428.732 19.9775C428.73 19.9775 428.729 19.9766 428.727 19.9766V0.0156257C428.729 0.0156242 428.73 0.0156257 428.732 0.0156257Z" fill="#E46159"/>
<path d="M419.925 -1.92974e-07C415.049 -8.63972e-08 411.096 3.9531 411.096 8.8295L411.096 20L418.758 20C424.281 20 428.757 15.5234 428.757 10.0013L428.757 8.83187C428.757 3.95416 424.803 -2.99579e-07 419.925 -1.92974e-07Z" fill="#E46159"/>
<path d="M462.412 0.0156257C467.28 0.0156257 471.226 4.484 471.227 9.99609C471.227 15.5083 467.28 19.9775 462.412 19.9775C462.41 19.9775 462.408 19.9766 462.406 19.9766V0.0156257C462.408 0.0156242 462.41 0.0156257 462.412 0.0156257Z" fill="#E09297"/>
<path d="M453.607 -1.92974e-07C448.73 -8.63972e-08 444.777 3.9531 444.777 8.8295L444.777 20L452.44 20C457.962 20 462.439 15.5234 462.439 10.0013L462.439 8.83187C462.439 3.95416 458.485 -2.99579e-07 453.607 -1.92974e-07Z" fill="#E09297"/>
<path d="M361.365 0.0156257C366.233 0.0156257 370.18 4.484 370.18 9.99609C370.18 15.5083 366.233 19.9775 361.365 19.9775C361.363 19.9775 361.361 19.9766 361.359 19.9766V0.0156257C361.361 0.0156242 361.363 0.0156257 361.365 0.0156257Z" fill="#5285D1"/>
<path d="M352.56 -1.92974e-07C347.684 -8.63972e-08 343.73 3.9531 343.73 8.8295L343.73 20L351.393 20C356.915 20 361.392 15.5234 361.392 10.0013L361.392 8.83187C361.392 3.95416 357.438 -2.99579e-07 352.56 -1.92974e-07Z" fill="#5285D1"/>
<path d="M533.443 0.0156257C538.311 0.0156257 542.258 4.484 542.258 9.99609C542.258 15.5083 538.311 19.9775 533.443 19.9775C533.441 19.9775 533.439 19.9766 533.438 19.9766V0.0156257C533.439 0.0156242 533.441 0.0156257 533.443 0.0156257Z" fill="#2A8851"/>
<path d="M524.638 -1.92974e-07C519.762 -8.63972e-08 515.809 3.9531 515.809 8.8295L515.809 20L523.471 20C528.993 20 533.47 15.5234 533.47 10.0013L533.47 8.83187C533.47 3.95416 529.516 -2.99579e-07 524.638 -1.92974e-07Z" fill="#2A8851"/>
<path d="M567.127 0.0156257C571.995 0.0156257 575.941 4.484 575.941 9.99609C575.941 15.5083 571.995 19.9775 567.127 19.9775C567.125 19.9775 567.123 19.9766 567.121 19.9766V0.0156257C567.123 0.0156242 567.125 0.0156257 567.127 0.0156257Z" fill="#E46159"/>
<path d="M558.322 -1.92974e-07C553.445 -8.63972e-08 549.492 3.9531 549.492 8.8295L549.492 20L557.155 20C562.677 20 567.154 15.5234 567.154 10.0013L567.154 8.83187C567.154 3.95416 563.199 -2.99579e-07 558.322 -1.92974e-07Z" fill="#E46159"/>
<path d="M600.811 0.0156257C605.678 0.0156257 609.625 4.484 609.625 9.99609C609.625 15.5083 605.678 19.9775 600.811 19.9775C600.809 19.9775 600.807 19.9766 600.805 19.9766V0.0156257C600.807 0.0156242 600.809 0.0156257 600.811 0.0156257Z" fill="#E09297"/>
<path d="M592.003 -1.92974e-07C587.127 -8.63972e-08 583.174 3.9531 583.174 8.8295L583.174 20L590.837 20C596.359 20 600.835 15.5234 600.835 10.0013L600.835 8.83187C600.835 3.95416 596.881 -2.99579e-07 592.003 -1.92974e-07Z" fill="#E09297"/>
<path d="M499.764 0.0156257C504.631 0.0156257 508.578 4.484 508.578 9.99609C508.578 15.5083 504.631 19.9775 499.764 19.9775C499.762 19.9775 499.76 19.9766 499.758 19.9766V0.0156257C499.76 0.0156242 499.762 0.0156257 499.764 0.0156257Z" fill="#5285D1"/>
<path d="M490.956 -1.92974e-07C486.08 -8.63972e-08 482.127 3.9531 482.127 8.8295L482.127 20L489.79 20C495.312 20 499.788 15.5234 499.788 10.0013L499.788 8.83187C499.788 3.95416 495.834 -2.99579e-07 490.956 -1.92974e-07Z" fill="#5285D1"/>
<path d="M671.842 0.0156257C676.709 0.0156257 680.656 4.484 680.656 9.99609C680.656 15.5083 676.709 19.9775 671.842 19.9775C671.84 19.9775 671.838 19.9766 671.836 19.9766V0.0156257C671.838 0.0156242 671.84 0.0156257 671.842 0.0156257Z" fill="#2A8851"/>
<path d="M663.035 -1.92974e-07C658.158 -8.63972e-08 654.205 3.9531 654.205 8.8295L654.205 20L661.868 20C667.39 20 671.866 15.5234 671.866 10.0013L671.866 8.83187C671.866 3.95416 667.912 -2.99579e-07 663.035 -1.92974e-07Z" fill="#2A8851"/>
<path d="M705.525 0.0156257C710.393 0.0156257 714.34 4.484 714.34 9.99609C714.34 15.5083 710.393 19.9775 705.525 19.9775C705.523 19.9775 705.521 19.9766 705.52 19.9766V0.0156257C705.521 0.0156242 705.523 0.0156257 705.525 0.0156257Z" fill="#E46159"/>
<path d="M696.718 -1.92974e-07C691.842 -8.63972e-08 687.889 3.9531 687.889 8.8295L687.889 20L695.551 20C701.073 20 705.55 15.5234 705.55 10.0013L705.55 8.83187C705.55 3.95416 701.596 -2.99579e-07 696.718 -1.92974e-07Z" fill="#E46159"/>
<path d="M739.205 0.0156257C744.073 0.0156257 748.019 4.484 748.02 9.99609C748.02 15.5083 744.073 19.9775 739.205 19.9775C739.203 19.9775 739.201 19.9766 739.199 19.9766V0.0156257C739.201 0.0156242 739.203 0.0156257 739.205 0.0156257Z" fill="#E09297"/>
<path d="M730.4 -1.92974e-07C725.523 -8.63972e-08 721.57 3.9531 721.57 8.8295L721.57 20L729.233 20C734.755 20 739.232 15.5234 739.232 10.0013L739.232 8.83187C739.232 3.95416 735.278 -2.99579e-07 730.4 -1.92974e-07Z" fill="#E09297"/>
<path d="M638.158 0.0156257C643.026 0.0156257 646.972 4.484 646.973 9.99609C646.973 15.5083 643.026 19.9775 638.158 19.9775C638.156 19.9775 638.154 19.9766 638.152 19.9766V0.0156257C638.154 0.0156242 638.156 0.0156257 638.158 0.0156257Z" fill="#5285D1"/>
<path d="M629.353 -1.92974e-07C624.477 -8.63972e-08 620.523 3.9531 620.523 8.8295L620.523 20L628.186 20C633.708 20 638.185 15.5234 638.185 10.0013L638.185 8.83187C638.185 3.95416 634.231 -2.99579e-07 629.353 -1.92974e-07Z" fill="#5285D1"/>
<path d="M810.236 0.0156257C815.104 0.0156257 819.051 4.484 819.051 9.99609C819.051 15.5083 815.104 19.9775 810.236 19.9775C810.234 19.9775 810.232 19.9766 810.23 19.9766V0.0156257C810.232 0.0156242 810.234 0.0156257 810.236 0.0156257Z" fill="#2A8851"/>
<path d="M801.431 -1.92974e-07C796.555 -8.63972e-08 792.602 3.9531 792.602 8.8295L792.602 20L800.264 20C805.786 20 810.263 15.5234 810.263 10.0013L810.263 8.83187C810.263 3.95416 806.309 -2.99579e-07 801.431 -1.92974e-07Z" fill="#2A8851"/>
<path d="M843.92 0.0156257C848.788 0.0156257 852.734 4.484 852.734 9.99609C852.734 15.5083 848.788 19.9775 843.92 19.9775C843.918 19.9775 843.916 19.9766 843.914 19.9766V0.0156257C843.916 0.0156242 843.918 0.0156257 843.92 0.0156257Z" fill="#E46159"/>
<path d="M835.115 -1.92974e-07C830.238 -8.63972e-08 826.285 3.9531 826.285 8.8295L826.285 20L833.948 20C839.47 20 843.947 15.5234 843.947 10.0013L843.947 8.83187C843.947 3.95416 839.992 -2.99579e-07 835.115 -1.92974e-07Z" fill="#E46159"/>
<path d="M877.604 0.0156257C882.471 0.0156257 886.418 4.484 886.418 9.99609C886.418 15.5083 882.471 19.9775 877.604 19.9775C877.602 19.9775 877.6 19.9766 877.598 19.9766V0.0156257C877.6 0.0156242 877.602 0.0156257 877.604 0.0156257Z" fill="#E09297"/>
<path d="M868.796 -1.92974e-07C863.92 -8.63972e-08 859.967 3.9531 859.967 8.8295L859.967 20L867.63 20C873.152 20 877.628 15.5234 877.628 10.0013L877.628 8.83187C877.628 3.95416 873.674 -2.99579e-07 868.796 -1.92974e-07Z" fill="#E09297"/>
<path d="M776.557 0.0156257C781.424 0.0156257 785.371 4.484 785.371 9.99609C785.371 15.5083 781.424 19.9775 776.557 19.9775C776.555 19.9775 776.553 19.9766 776.551 19.9766V0.0156257C776.553 0.0156242 776.555 0.0156257 776.557 0.0156257Z" fill="#5285D1"/>
<path d="M767.749 -1.92974e-07C762.873 -8.63972e-08 758.92 3.9531 758.92 8.8295L758.92 20L766.583 20C772.105 20 776.581 15.5234 776.581 10.0013L776.581 8.83187C776.581 3.95416 772.627 -2.99579e-07 767.749 -1.92974e-07Z" fill="#5285D1"/>
<path d="M948.635 0.0156257C953.502 0.0156257 957.449 4.484 957.449 9.99609C957.449 15.5083 953.502 19.9775 948.635 19.9775C948.633 19.9775 948.631 19.9766 948.629 19.9766V0.0156257C948.631 0.0156242 948.633 0.0156257 948.635 0.0156257Z" fill="#2A8851"/>
<path d="M939.828 -1.92974e-07C934.951 -8.63972e-08 930.998 3.9531 930.998 8.8295L930.998 20L938.661 20C944.183 20 948.659 15.5234 948.659 10.0013L948.659 8.83187C948.659 3.95416 944.705 -2.99579e-07 939.828 -1.92974e-07Z" fill="#2A8851"/>
<path d="M982.318 0.0156257C987.186 0.0156257 991.133 4.484 991.133 9.99609C991.133 15.5083 987.186 19.9775 982.318 19.9775C982.316 19.9775 982.314 19.9766 982.312 19.9766V0.0156257C982.314 0.0156242 982.316 0.0156257 982.318 0.0156257Z" fill="#E46159"/>
<path d="M973.511 -1.92974e-07C968.635 -8.63972e-08 964.682 3.9531 964.682 8.8295L964.682 20L972.344 20C977.866 20 982.343 15.5234 982.343 10.0013L982.343 8.83187C982.343 3.95416 978.389 -2.99579e-07 973.511 -1.92974e-07Z" fill="#E46159"/>
<path d="M1016 0.0156257C1020.87 0.0156257 1024.81 4.484 1024.81 9.99609C1024.81 15.5083 1020.87 19.9775 1016 19.9775C1016 19.9775 1015.99 19.9766 1015.99 19.9766V0.0156257C1015.99 0.0156242 1016 0.0156257 1016 0.0156257Z" fill="#E09297"/>
<path d="M1007.19 -1.92974e-07C1002.32 -8.63972e-08 998.363 3.9531 998.363 8.8295L998.363 20L1006.03 20C1011.55 20 1016.02 15.5234 1016.02 10.0013L1016.02 8.83187C1016.02 3.95416 1012.07 -2.99579e-07 1007.19 -1.92974e-07Z" fill="#E09297"/>
<path d="M914.951 0.0156257C919.819 0.0156257 923.765 4.484 923.766 9.99609C923.766 15.5083 919.819 19.9775 914.951 19.9775C914.949 19.9775 914.947 19.9766 914.945 19.9766V0.0156257C914.947 0.0156242 914.949 0.0156257 914.951 0.0156257Z" fill="#5285D1"/>
<path d="M906.146 -1.92974e-07C901.27 -8.63972e-08 897.316 3.9531 897.316 8.8295L897.316 20L904.979 20C910.501 20 914.978 15.5234 914.978 10.0013L914.978 8.83187C914.978 3.95416 911.024 -2.99579e-07 906.146 -1.92974e-07Z" fill="#5285D1"/>
<path d="M1087.03 0.0156257C1091.9 0.0156257 1095.84 4.484 1095.84 9.99609C1095.84 15.5083 1091.9 19.9775 1087.03 19.9775C1087.03 19.9775 1087.03 19.9766 1087.02 19.9766V0.0156257C1087.03 0.0156242 1087.03 0.0156257 1087.03 0.0156257Z" fill="#2A8851"/>
<path d="M1078.22 -1.92974e-07C1073.35 -8.63972e-08 1069.39 3.9531 1069.39 8.8295L1069.39 20L1077.06 20C1082.58 20 1087.06 15.5234 1087.06 10.0013L1087.06 8.83187C1087.06 3.95416 1083.1 -2.99579e-07 1078.22 -1.92974e-07Z" fill="#2A8851"/>
<path d="M1120.71 0.0156257C1125.58 0.0156257 1129.53 4.484 1129.53 9.99609C1129.53 15.5083 1125.58 19.9775 1120.71 19.9775C1120.71 19.9775 1120.71 19.9766 1120.71 19.9766V0.0156257C1120.71 0.0156242 1120.71 0.0156257 1120.71 0.0156257Z" fill="#E46159"/>
<path d="M1111.91 -1.92974e-07C1107.03 -8.63972e-08 1103.08 3.9531 1103.08 8.8295L1103.08 20L1110.74 20C1116.26 20 1120.74 15.5234 1120.74 10.0013L1120.74 8.83187C1120.74 3.95416 1116.79 -2.99579e-07 1111.91 -1.92974e-07Z" fill="#E46159"/>
<path d="M1154.4 0.0156257C1159.26 0.0156257 1163.21 4.484 1163.21 9.99609C1163.21 15.5083 1159.26 19.9775 1154.4 19.9775C1154.39 19.9775 1154.39 19.9766 1154.39 19.9766V0.0156257C1154.39 0.0156242 1154.39 0.0156257 1154.4 0.0156257Z" fill="#E09297"/>
<path d="M1145.59 -1.92974e-07C1140.71 -8.63972e-08 1136.76 3.9531 1136.76 8.8295L1136.76 20L1144.42 20C1149.94 20 1154.42 15.5234 1154.42 10.0013L1154.42 8.83187C1154.42 3.95416 1150.47 -2.99579e-07 1145.59 -1.92974e-07Z" fill="#E09297"/>
<path d="M1053.35 0.0156257C1058.22 0.0156257 1062.16 4.484 1062.16 9.99609C1062.16 15.5083 1058.22 19.9775 1053.35 19.9775C1053.35 19.9775 1053.35 19.9766 1053.34 19.9766V0.0156257C1053.35 0.0156242 1053.35 0.0156257 1053.35 0.0156257Z" fill="#5285D1"/>
<path d="M1044.54 -1.92974e-07C1039.67 -8.63972e-08 1035.71 3.9531 1035.71 8.8295L1035.71 20L1043.38 20C1048.9 20 1053.37 15.5234 1053.37 10.0013L1053.37 8.83187C1053.37 3.95416 1049.42 -2.99579e-07 1044.54 -1.92974e-07Z" fill="#5285D1"/>
<path d="M1225.43 0.0156257C1230.3 0.0156257 1234.24 4.484 1234.24 9.99609C1234.24 15.5083 1230.3 19.9775 1225.43 19.9775C1225.43 19.9775 1225.42 19.9766 1225.42 19.9766V0.0156257C1225.42 0.0156242 1225.43 0.0156257 1225.43 0.0156257Z" fill="#2A8851"/>
<path d="M1216.62 -1.92974e-07C1211.74 -8.63972e-08 1207.79 3.9531 1207.79 8.8295L1207.79 20L1215.45 20C1220.98 20 1225.45 15.5234 1225.45 10.0013L1225.45 8.83187C1225.45 3.95416 1221.5 -2.99579e-07 1216.62 -1.92974e-07Z" fill="#2A8851"/>
<path d="M1259.11 0.0156257C1263.98 0.0156257 1267.93 4.484 1267.93 9.99609C1267.93 15.5083 1263.98 19.9775 1259.11 19.9775C1259.11 19.9775 1259.11 19.9766 1259.11 19.9766V0.0156257C1259.11 0.0156242 1259.11 0.0156257 1259.11 0.0156257Z" fill="#E46159"/>
<path d="M1250.3 -1.92974e-07C1245.43 -8.63972e-08 1241.47 3.9531 1241.47 8.8295L1241.47 20L1249.14 20C1254.66 20 1259.14 15.5234 1259.14 10.0013L1259.14 8.83187C1259.14 3.95416 1255.18 -2.99579e-07 1250.3 -1.92974e-07Z" fill="#E46159"/>
<path d="M1292.79 0.0156257C1297.66 0.0156257 1301.61 4.484 1301.61 9.99609C1301.61 15.5083 1297.66 19.9775 1292.79 19.9775C1292.79 19.9775 1292.79 19.9766 1292.79 19.9766V0.0156257C1292.79 0.0156242 1292.79 0.0156257 1292.79 0.0156257Z" fill="#E09297"/>
<path d="M1283.99 -1.92974e-07C1279.11 -8.63972e-08 1275.16 3.9531 1275.16 8.8295L1275.16 20L1282.82 20C1288.34 20 1292.82 15.5234 1292.82 10.0013L1292.82 8.83187C1292.82 3.95416 1288.86 -2.99579e-07 1283.99 -1.92974e-07Z" fill="#E09297"/>
<path d="M1191.74 0.0156257C1196.61 0.0156257 1200.56 4.484 1200.56 9.99609C1200.56 15.5083 1196.61 19.9775 1191.74 19.9775C1191.74 19.9775 1191.74 19.9766 1191.74 19.9766V0.0156257C1191.74 0.0156242 1191.74 0.0156257 1191.74 0.0156257Z" fill="#5285D1"/>
<path d="M1182.94 -1.92974e-07C1178.06 -8.63972e-08 1174.11 3.9531 1174.11 8.8295L1174.11 20L1181.77 20C1187.29 20 1191.77 15.5234 1191.77 10.0013L1191.77 8.83187C1191.77 3.95416 1187.82 -2.99579e-07 1182.94 -1.92974e-07Z" fill="#5285D1"/>
<path d="M1363.82 0.0156257C1368.69 0.0156257 1372.64 4.484 1372.64 9.99609C1372.64 15.5083 1368.69 19.9775 1363.82 19.9775C1363.82 19.9775 1363.82 19.9766 1363.82 19.9766V0.0156257C1363.82 0.0156242 1363.82 0.0156257 1363.82 0.0156257Z" fill="#2A8851"/>
<path d="M1355.02 -1.92974e-07C1350.14 -8.63972e-08 1346.19 3.9531 1346.19 8.8295L1346.19 20L1353.85 20C1359.37 20 1363.85 15.5234 1363.85 10.0013L1363.85 8.83187C1363.85 3.95416 1359.89 -2.99579e-07 1355.02 -1.92974e-07Z" fill="#2A8851"/>
<path d="M1397.51 0.0156257C1402.37 0.0156257 1406.32 4.484 1406.32 9.99609C1406.32 15.5083 1402.37 19.9775 1397.51 19.9775C1397.5 19.9775 1397.5 19.9766 1397.5 19.9766V0.0156257C1397.5 0.0156242 1397.5 0.0156257 1397.51 0.0156257Z" fill="#E46159"/>
<path d="M1388.7 -1.92974e-07C1383.82 -8.63972e-08 1379.87 3.9531 1379.87 8.8295L1379.87 20L1387.53 20C1393.06 20 1397.53 15.5234 1397.53 10.0013L1397.53 8.83187C1397.53 3.95416 1393.58 -2.99579e-07 1388.7 -1.92974e-07Z" fill="#E46159"/>
<path d="M1431.19 0.0156257C1436.06 0.0156257 1440 4.484 1440 9.99609C1440 15.5083 1436.06 19.9775 1431.19 19.9775C1431.19 19.9775 1431.19 19.9766 1431.18 19.9766V0.0156257C1431.19 0.0156242 1431.19 0.0156257 1431.19 0.0156257Z" fill="#E09297"/>
<path d="M1422.38 -1.92974e-07C1417.51 -8.63972e-08 1413.55 3.9531 1413.55 8.8295L1413.55 20L1421.22 20C1426.74 20 1431.21 15.5234 1431.21 10.0013L1431.21 8.83187C1431.21 3.95416 1427.26 -2.99579e-07 1422.38 -1.92974e-07Z" fill="#E09297"/>
<path d="M1330.14 0.0156257C1335.01 0.0156257 1338.96 4.484 1338.96 9.99609C1338.96 15.5083 1335.01 19.9775 1330.14 19.9775C1330.14 19.9775 1330.14 19.9766 1330.14 19.9766V0.0156257C1330.14 0.0156242 1330.14 0.0156257 1330.14 0.0156257Z" fill="#5285D1"/>
<path d="M1321.34 -1.92974e-07C1316.46 -8.63972e-08 1312.51 3.9531 1312.51 8.8295L1312.51 20L1320.17 20C1325.69 20 1330.17 15.5234 1330.17 10.0013L1330.17 8.83187C1330.17 3.95416 1326.21 -2.99579e-07 1321.34 -1.92974e-07Z" fill="#5285D1"/>
</svg>
