<svg width="100" height="30" viewBox="0 0 100 30" fill="none" xmlns="http://www.w3.org/2000/svg">
<path d="M95.5067 29.5195H3.67333C1.65392 29.5195 0 27.907 0 25.938V4.44903C0 2.4801 1.65392 0.867531 3.67333 0.867531H95.5067C97.5261 0.867531 99.18 2.4801 99.18 4.44903V25.938C99.18 27.907 97.5261 29.5195 95.5067 29.5195Z" fill="#1A201D"/>
<path d="M95.5067 1.44147C97.2074 1.44147 98.5913 2.7908 98.5913 4.44903V25.938C98.5913 27.5963 97.2074 28.9456 95.5067 28.9456H3.67333C1.97258 28.9456 0.588651 27.5963 0.588651 25.938V4.44903C0.588651 2.7908 1.97258 1.44147 3.67333 1.44147H95.5067ZM95.5067 0.867531H3.67333C1.65392 0.867531 0 2.4801 0 4.44903V25.938C0 27.907 1.65392 29.5195 3.67333 29.5195H95.5067C97.5261 29.5195 99.18 27.907 99.18 25.938V4.44903C99.18 2.4801 97.5261 0.867531 95.5067 0.867531Z" fill="#A6A6A6"/>
<path d="M7.66492 6.26795C7.44911 6.48822 7.32422 6.83114 7.32422 7.27525V23.1162C7.32422 23.5603 7.44911 23.9033 7.66492 24.1235L7.71818 24.1719L16.8225 15.2987V15.0892L7.71818 6.21602L7.66492 6.26795Z" fill="url(#paint0_linear_2054_25631)"/>
<path d="M19.8537 18.2578L16.8223 15.2986V15.0891L19.8574 12.1299L19.9253 12.1684L23.5197 14.1624C24.5454 14.7282 24.5454 15.6594 23.5197 16.2289L19.9253 18.2193L19.8537 18.2578Z" fill="url(#paint1_linear_2054_25631)"/>
<path d="M19.9247 18.2183L16.8217 15.1928L7.66406 24.1224C8.00476 24.4716 8.56036 24.5136 9.19217 24.1644L19.9247 18.2183Z" fill="url(#paint2_linear_2054_25631)"/>
<path d="M19.9247 12.1659L9.19217 6.21975C8.56036 5.87414 8.00476 5.91622 7.66406 6.26541L16.8217 15.1914L19.9247 12.1659Z" fill="url(#paint3_linear_2054_25631)"/>
<path d="M34.8386 8.20535C34.8386 8.80346 34.6549 9.28249 34.2931 9.63975C33.8771 10.0633 33.3353 10.2764 32.6713 10.2764C32.0367 10.2764 31.4949 10.0597 31.0504 9.63258C30.605 9.19922 30.3828 8.66737 30.3828 8.03076C30.3828 7.39415 30.605 6.86229 31.0504 6.43251C31.4949 6.00184 32.0367 5.78516 32.6713 5.78516C32.9872 5.78516 33.2884 5.84873 33.5759 5.96692C33.8624 6.086 34.0956 6.24717 34.2646 6.44594L33.8807 6.82379C33.586 6.48444 33.1846 6.31701 32.6713 6.31701C32.2085 6.31701 31.8071 6.47459 31.4664 6.79245C31.1294 7.11121 30.9604 7.52397 30.9604 8.03076C30.9604 8.53754 31.1294 8.95389 31.4664 9.27264C31.8071 9.58692 32.2085 9.74808 32.6713 9.74808C33.1626 9.74808 33.5759 9.58692 33.9019 9.26906C34.1168 9.05865 34.2389 8.76855 34.271 8.39786H32.6713V7.88033H34.8055C34.8312 7.99226 34.8386 8.1006 34.8386 8.20535Z" fill="white" stroke="white" stroke-width="0.08816" stroke-miterlimit="10"/>
<path d="M38.2226 6.41019H36.2179V7.77116H38.0252V8.28868H36.2179V9.64965H38.2226V10.177H35.6504V5.88281H38.2226V6.41019Z" fill="white" stroke="white" stroke-width="0.08816" stroke-miterlimit="10"/>
<path d="M40.6116 10.177H40.0441V6.41019H38.8145V5.88281H41.8422V6.41019H40.6116V10.177Z" fill="white" stroke="white" stroke-width="0.08816" stroke-miterlimit="10"/>
<path d="M44.0352 10.177V5.88281H44.6018V10.177H44.0352Z" fill="white" stroke="white" stroke-width="0.08816" stroke-miterlimit="10"/>
<path d="M47.1116 10.177H46.5487V6.41019H45.3145V5.88281H48.3459V6.41019H47.1116V10.177Z" fill="white" stroke="white" stroke-width="0.08816" stroke-miterlimit="10"/>
<path d="M54.081 9.62542C53.6466 10.0597 53.1085 10.2764 52.4666 10.2764C51.821 10.2764 51.2829 10.0597 50.8485 9.62542C50.415 9.19206 50.1992 8.66021 50.1992 8.03076C50.1992 7.40131 50.415 6.86946 50.8485 6.43609C51.2829 6.00184 51.821 5.78516 52.4666 5.78516C53.1048 5.78516 53.643 6.00184 54.0773 6.43968C54.5145 6.87662 54.7303 7.40489 54.7303 8.03076C54.7303 8.66021 54.5145 9.19206 54.081 9.62542ZM51.2682 9.26548C51.5951 9.58692 51.9927 9.74808 52.4666 9.74808C52.9368 9.74808 53.3381 9.58692 53.6613 9.26548C53.9873 8.94404 54.1526 8.53127 54.1526 8.03076C54.1526 7.53024 53.9873 7.11747 53.6613 6.79603C53.3381 6.4746 52.9368 6.31343 52.4666 6.31343C51.9927 6.31343 51.5951 6.4746 51.2682 6.79603C50.9422 7.11747 50.7769 7.53024 50.7769 8.03076C50.7769 8.53127 50.9422 8.94404 51.2682 9.26548Z" fill="white" stroke="white" stroke-width="0.08816" stroke-miterlimit="10"/>
<path d="M55.5254 10.177V5.88281H56.2141L58.3557 9.22256H58.3805L58.3557 8.39702V5.88281H58.9223V10.177H58.3309L56.0883 6.67253H56.0635L56.0883 7.50165V10.177H55.5254Z" fill="white" stroke="white" stroke-width="0.08816" stroke-miterlimit="10"/>
<path d="M50.0581 16.4489C48.3326 16.4489 46.9229 17.7293 46.9229 19.4959C46.9229 21.2482 48.3326 22.542 50.0581 22.542C51.7874 22.542 53.197 21.2482 53.197 19.4959C53.197 17.7293 51.7874 16.4489 50.0581 16.4489ZM50.0581 21.3422C49.1113 21.3422 48.2968 20.5802 48.2968 19.4959C48.2968 18.3973 49.1113 17.6488 50.0581 17.6488C51.0049 17.6488 51.8232 18.3973 51.8232 19.4959C51.8232 20.5802 51.0049 21.3422 50.0581 21.3422ZM43.2175 16.4489C41.4882 16.4489 40.0823 17.7293 40.0823 19.4959C40.0823 21.2482 41.4882 22.542 43.2175 22.542C44.9458 22.542 46.3527 21.2482 46.3527 19.4959C46.3527 17.7293 44.9458 16.4489 43.2175 16.4489ZM43.2175 21.3422C42.2697 21.3422 41.4524 20.5802 41.4524 19.4959C41.4524 18.3973 42.2697 17.6488 43.2175 17.6488C44.1643 17.6488 44.9788 18.3973 44.9788 19.4959C44.9788 20.5802 44.1643 21.3422 43.2175 21.3422ZM35.0774 17.3828V18.6775H38.2484C38.1556 19.401 37.9077 19.9329 37.5275 20.3035C37.0646 20.7512 36.3437 21.2482 35.0774 21.2482C33.1259 21.2482 31.5978 19.7126 31.5978 17.8099C31.5978 15.9072 33.1259 14.3717 35.0774 14.3717C36.1325 14.3717 36.9003 14.7737 37.4669 15.2948L38.4026 14.3824C37.6101 13.6446 36.5559 13.0779 35.0774 13.0779C32.4013 13.0779 30.1523 15.2008 30.1523 17.8099C30.1523 20.419 32.4013 22.542 35.0774 22.542C36.5237 22.542 37.6101 22.08 38.4642 21.2132C39.3393 20.3599 39.6121 19.1601 39.6121 18.1913C39.6121 17.8905 39.5864 17.6138 39.5405 17.3828H35.0774ZM68.3633 18.3865C68.1052 17.7052 67.309 16.4489 65.6872 16.4489C64.0802 16.4489 62.7421 17.6837 62.7421 19.4959C62.7421 21.2025 64.0664 22.542 65.8415 22.542C67.2769 22.542 68.1052 21.6887 68.4459 21.1917L67.3806 20.4996C67.0253 21.0064 66.5413 21.3422 65.8415 21.3422C65.1463 21.3422 64.6477 21.0315 64.3281 20.419L68.5074 18.733L68.3633 18.3865ZM64.1022 19.401C64.0664 18.2263 65.038 17.6246 65.7341 17.6246C66.2796 17.6246 66.7424 17.8905 66.8967 18.271L64.1022 19.401ZM60.7053 22.3566H62.0791V13.4029H60.7053V22.3566ZM58.4554 17.1276H58.4094C58.1009 16.7713 57.5122 16.4489 56.7666 16.4489C55.2017 16.4489 53.771 17.7884 53.771 19.5058C53.771 21.2132 55.2017 22.542 56.7666 22.542C57.5122 22.542 58.1009 22.217 58.4094 21.8498H58.4554V22.2868C58.4554 23.4517 57.8171 24.0775 56.7877 24.0775C55.9483 24.0775 55.4276 23.4866 55.2127 22.9897L54.018 23.4758C54.3624 24.2835 55.2743 25.2773 56.7877 25.2773C58.3984 25.2773 59.7576 24.3533 59.7576 22.105V16.6343H58.4554V17.1276ZM56.8841 21.3422C55.9373 21.3422 55.1448 20.5695 55.1448 19.5058C55.1448 18.4322 55.9373 17.6488 56.8841 17.6488C57.8171 17.6488 58.5527 18.4322 58.5527 19.5058C58.5527 20.5695 57.8171 21.3422 56.8841 21.3422ZM74.7953 13.4029H71.5095V22.3566H72.8796V18.9641H74.7953C76.3169 18.9641 77.8092 17.8905 77.8092 16.183C77.8092 14.4764 76.3133 13.4029 74.7953 13.4029ZM74.8311 17.7186H72.8796V14.6484H74.8311C75.8541 14.6484 76.4382 15.4766 76.4382 16.183C76.4382 16.876 75.8541 17.7186 74.8311 17.7186ZM83.3009 16.4319C82.3109 16.4319 81.2814 16.8581 80.8581 17.8028L82.074 18.2997C82.3357 17.8028 82.8169 17.6416 83.3257 17.6416C84.0365 17.6416 84.7573 18.0579 84.7684 18.793V18.8871C84.5204 18.7474 83.9896 18.5405 83.3367 18.5405C82.0271 18.5405 80.6928 19.2434 80.6928 20.5551C80.6928 21.7549 81.7654 22.5276 82.9712 22.5276C83.8932 22.5276 84.4019 22.122 84.7215 21.6502H84.7684V22.3423H86.0917V18.9076C86.0917 17.3201 84.8758 16.4319 83.3009 16.4319ZM83.1356 21.3386C82.6874 21.3386 82.063 21.1219 82.063 20.5802C82.063 19.8872 82.8417 19.6213 83.5158 19.6213C84.1191 19.6213 84.402 19.7511 84.7684 19.9221C84.6609 20.7512 83.929 21.3386 83.1356 21.3386ZM90.9129 16.628L89.338 20.5095H89.2912L87.6629 16.628H86.1854L88.6318 22.0522L87.2359 25.0705H88.6676L92.4374 16.628H90.9129ZM78.5623 22.3566H79.9361V13.4029H78.5623V22.3566Z" fill="white"/>
<defs>
<linearGradient id="paint0_linear_2054_25631" x1="16.0142" y1="23.2812" x2="3.9968" y2="10.9557" gradientUnits="userSpaceOnUse">
<stop stop-color="#00A0FF"/>
<stop offset="0.0066" stop-color="#00A1FF"/>
<stop offset="0.2601" stop-color="#00BEFF"/>
<stop offset="0.5122" stop-color="#00D2FF"/>
<stop offset="0.7604" stop-color="#00DFFF"/>
<stop offset="1" stop-color="#00E3FF"/>
</linearGradient>
<linearGradient id="paint1_linear_2054_25631" x1="24.8554" y1="15.1928" x2="7.07875" y2="15.1928" gradientUnits="userSpaceOnUse">
<stop stop-color="#FFE000"/>
<stop offset="0.4087" stop-color="#FFBD00"/>
<stop offset="0.7754" stop-color="#FFA500"/>
<stop offset="1" stop-color="#FF9C00"/>
</linearGradient>
<linearGradient id="paint2_linear_2054_25631" x1="18.2374" y1="13.5481" x2="1.94084" y2="-3.16631" gradientUnits="userSpaceOnUse">
<stop stop-color="#FF3A44"/>
<stop offset="1" stop-color="#C31162"/>
</linearGradient>
<linearGradient id="paint3_linear_2054_25631" x1="5.3589" y1="29.3912" x2="12.636" y2="21.9275" gradientUnits="userSpaceOnUse">
<stop stop-color="#32A071"/>
<stop offset="0.0685" stop-color="#2DA771"/>
<stop offset="0.4762" stop-color="#15CF74"/>
<stop offset="0.8009" stop-color="#06E775"/>
<stop offset="1" stop-color="#00F076"/>
</linearGradient>
</defs>
</svg>
