<svg width="110" height="33" viewBox="0 0 110 33" fill="none" xmlns="http://www.w3.org/2000/svg">
<path d="M109.389 28.8962C109.389 30.5897 107.989 31.9614 106.257 31.9614H3.74781C2.01658 31.9614 0.611328 30.5897 0.611328 28.8962V4.45204C0.611328 2.75936 2.01658 1.38281 3.74781 1.38281H106.256C107.989 1.38281 109.388 2.75936 109.388 4.45204L109.389 28.8962Z" fill="#1A201D"/>
<path d="M105.926 1.41737C107.812 1.41737 109.347 2.9139 109.347 4.75304V28.5864C109.347 30.4255 107.812 31.922 105.926 31.922H4.07407C2.18778 31.922 0.65287 30.4255 0.65287 28.5864V4.75304C0.65287 2.9139 2.18778 1.41737 4.07407 1.41737H105.926ZM105.926 0.780818H4.07407C1.83435 0.780818 0 2.56931 0 4.75304V28.5864C0 30.7701 1.83435 32.5586 4.07407 32.5586H105.926C108.166 32.5586 110 30.7701 110 28.5864V4.75304C110 2.56931 108.166 0.780818 105.926 0.780818Z" fill="#A6A6A6"/>
<path d="M24.5495 16.5009C24.5259 13.9404 26.6998 12.6947 26.7992 12.6367C25.5681 10.8865 23.6598 10.6474 22.9892 10.6284C21.3864 10.4639 19.8318 11.5634 19.0153 11.5634C18.1826 11.5634 16.9253 10.6442 15.5703 10.6712C13.8266 10.6975 12.1953 11.6818 11.3006 13.2103C9.45428 16.3269 10.8313 20.9069 12.6003 23.4261C13.4852 24.6598 14.5192 26.0374 15.8726 25.9889C17.1966 25.9357 17.6912 25.1659 19.2891 25.1659C20.8723 25.1659 21.3367 25.9889 22.717 25.9579C24.1381 25.9357 25.0327 24.7186 25.8866 23.4737C26.9092 22.0596 27.3199 20.667 27.3362 20.5955C27.3028 20.5843 24.5764 19.5698 24.5495 16.5009Z" fill="white"/>
<path d="M21.9421 8.97114C22.6543 8.10281 23.1415 6.92147 23.0063 5.72266C21.9755 5.76715 20.6865 6.4178 19.9442 7.26706C19.2875 8.01542 18.7008 9.24204 18.8524 10.3956C20.0102 10.4798 21.199 9.82596 21.9421 8.97114Z" fill="white"/>
<path d="M39.9667 8.73939C39.9667 9.67445 39.6791 10.3783 39.1046 10.851C38.5726 11.2872 37.8164 11.5056 36.837 11.5056C36.3514 11.5056 35.9358 11.485 35.5879 11.4437V6.33461C36.0417 6.26311 36.5306 6.22656 37.0586 6.22656C37.9916 6.22656 38.6948 6.42438 39.169 6.82001C39.7003 7.26728 39.9667 7.90681 39.9667 8.73939ZM39.0663 8.76243C39.0663 8.15627 38.9017 7.69152 38.5726 7.36738C38.2434 7.04405 37.7626 6.88198 37.1295 6.88198C36.8606 6.88198 36.6317 6.89946 36.4418 6.936V10.82C36.5469 10.8359 36.7392 10.8431 37.0187 10.8431C37.6722 10.8431 38.1766 10.6659 38.5318 10.3116C38.8871 9.95727 39.0663 9.44089 39.0663 8.76243Z" fill="white"/>
<path d="M44.7405 9.55451C44.7405 10.1305 44.5719 10.6024 44.2345 10.9726C43.8809 11.3531 43.4124 11.543 42.8273 11.543C42.2635 11.543 41.8145 11.3611 41.4796 10.9956C41.1456 10.631 40.9785 10.171 40.9785 9.61647C40.9785 9.03653 41.1504 8.56066 41.4959 8.19124C41.8414 7.82182 42.3059 7.63672 42.8909 7.63672C43.4547 7.63672 43.9078 7.81865 44.2508 8.1833C44.5767 8.53762 44.7405 8.99522 44.7405 9.55451ZM43.8548 9.58152C43.8548 9.23593 43.7782 8.93961 43.6259 8.69253C43.4466 8.39382 43.1916 8.24447 42.8599 8.24447C42.5169 8.24447 42.2561 8.39382 42.0769 8.69253C41.9237 8.93961 41.8479 9.2407 41.8479 9.59661C41.8479 9.9422 41.9245 10.2385 42.0769 10.4856C42.2618 10.7843 42.5193 10.9337 42.8518 10.9337C43.1777 10.9337 43.4336 10.7819 43.6177 10.4777C43.7758 10.2258 43.8548 9.9271 43.8548 9.58152Z" fill="white"/>
<path d="M51.1414 7.71094L49.9395 11.4559H49.1573L48.6594 9.82972C48.5331 9.42376 48.4305 9.02018 48.3506 8.61978H48.3351C48.261 9.0313 48.1583 9.43409 48.0263 9.82972L47.4975 11.4559H46.7063L45.5762 7.71094H46.4537L46.888 9.49129C46.9931 9.91234 47.0795 10.3135 47.1488 10.6933H47.1642C47.2278 10.3803 47.3329 9.98146 47.4812 9.49923L48.0263 7.71173H48.7222L49.2445 9.4611C49.3708 9.88772 49.4734 10.2984 49.5525 10.6941H49.5761C49.6339 10.3088 49.7211 9.89804 49.8368 9.4611L50.3029 7.71173H51.1414V7.71094Z" fill="white"/>
<path d="M55.5699 11.4565H54.716V9.31147C54.716 8.6505 54.4585 8.32001 53.9419 8.32001C53.6885 8.32001 53.484 8.41057 53.3251 8.5925C53.1679 8.77443 53.088 8.98893 53.088 9.23441V11.4557H52.2341V8.78158C52.2341 8.45268 52.2235 8.09597 52.2031 7.70987H52.9536L52.9935 8.29538H53.0171C53.1165 8.11345 53.2648 7.9633 53.4596 7.84334C53.691 7.70352 53.9501 7.63281 54.2336 7.63281C54.5922 7.63281 54.8904 7.74562 55.1275 7.97204C55.4224 8.2493 55.5699 8.66321 55.5699 9.21296V11.4565Z" fill="white"/>
<path d="M57.9234 11.4556H57.0703V5.99219H57.9234V11.4556Z" fill="white"/>
<path d="M62.9495 9.55451C62.9495 10.1305 62.7808 10.6024 62.4435 10.9726C62.0899 11.3531 61.6205 11.543 61.0363 11.543C60.4717 11.543 60.0227 11.3611 59.6886 10.9956C59.3545 10.631 59.1875 10.171 59.1875 9.61647C59.1875 9.03653 59.3594 8.56066 59.7049 8.19124C60.0504 7.82182 60.5148 7.63672 61.0991 7.63672C61.6637 7.63672 62.1159 7.81865 62.4598 8.1833C62.7857 8.53762 62.9495 8.99522 62.9495 9.55451ZM62.063 9.58152C62.063 9.23593 61.9864 8.93961 61.834 8.69253C61.6556 8.39382 61.3997 8.24447 61.0689 8.24447C60.7251 8.24447 60.4643 8.39382 60.2859 8.69253C60.1327 8.93961 60.0569 9.2407 60.0569 9.59661C60.0569 9.9422 60.1335 10.2385 60.2859 10.4856C60.4708 10.7843 60.7283 10.9337 61.0608 10.9337C61.3867 10.9337 61.6417 10.7819 61.8259 10.4777C61.9848 10.2258 62.063 9.9271 62.063 9.58152Z" fill="white"/>
<path d="M67.083 11.458H66.3163L66.2527 11.0266H66.2291C65.9667 11.3706 65.5927 11.543 65.1071 11.543C64.7445 11.543 64.4512 11.4294 64.2304 11.2038C64.0299 10.9988 63.9297 10.7438 63.9297 10.4411C63.9297 9.98351 64.1252 9.63475 64.5188 9.39323C64.9115 9.15172 65.464 9.03335 66.1753 9.03891V8.969C66.1753 8.47565 65.9097 8.22937 65.3776 8.22937C64.9987 8.22937 64.6647 8.32232 64.3762 8.50664L64.2026 7.96006C64.5595 7.74476 65.0004 7.63672 65.5202 7.63672C66.5241 7.63672 67.0276 8.15311 67.0276 9.18588V10.565C67.0276 10.9392 67.0464 11.2371 67.083 11.458ZM66.1965 10.171V9.59344C65.2546 9.57755 64.7836 9.82939 64.7836 10.3482C64.7836 10.5436 64.8374 10.6898 64.9474 10.7875C65.0574 10.8852 65.1975 10.9337 65.3646 10.9337C65.552 10.9337 65.7272 10.8757 65.8869 10.7605C66.0474 10.6445 66.146 10.4975 66.1826 10.3172C66.1916 10.2767 66.1965 10.2274 66.1965 10.171Z" fill="white"/>
<path d="M71.9362 11.4556H71.1784L71.1385 10.8542H71.1149C70.8729 11.3118 70.4606 11.5406 69.8812 11.5406C69.4184 11.5406 69.033 11.3634 68.7275 11.0091C68.4219 10.6548 68.2695 10.1948 68.2695 9.62995C68.2695 9.02379 68.4349 8.53282 68.7674 8.15784C69.0892 7.80829 69.4836 7.63351 69.9529 7.63351C70.4687 7.63351 70.8297 7.80273 71.035 8.14195H71.0513V5.99219H71.906V10.4466C71.906 10.8113 71.9158 11.1473 71.9362 11.4556ZM71.0513 9.87623V9.25179C71.0513 9.14375 71.0432 9.05636 71.0277 8.98963C70.9796 8.78943 70.8761 8.621 70.7189 8.48515C70.56 8.3493 70.3685 8.28098 70.1477 8.28098C69.8291 8.28098 69.5797 8.40412 69.3964 8.65119C69.2147 8.89826 69.1226 9.21366 69.1226 9.59896C69.1226 9.96918 69.2098 10.2695 69.385 10.5007C69.57 10.7469 69.8193 10.8701 70.1314 10.8701C70.4117 10.8701 70.6357 10.7676 70.806 10.5618C70.9706 10.372 71.0513 10.1432 71.0513 9.87623Z" fill="white"/>
<path d="M79.2386 9.55451C79.2386 10.1305 79.0699 10.6024 78.7326 10.9726C78.3789 11.3531 77.9112 11.543 77.3254 11.543C76.7623 11.543 76.3134 11.3611 75.9777 10.9956C75.6436 10.631 75.4766 10.171 75.4766 9.61647C75.4766 9.03653 75.6485 8.56066 75.994 8.19124C76.3395 7.82182 76.8039 7.63672 77.3897 7.63672C77.9528 7.63672 78.4066 7.81865 78.7489 8.1833C79.0748 8.53762 79.2386 8.99522 79.2386 9.55451ZM78.3537 9.58152C78.3537 9.23593 78.2771 8.93961 78.1247 8.69253C77.9446 8.39382 77.6904 8.24447 77.358 8.24447C77.0158 8.24447 76.755 8.39382 76.5749 8.69253C76.4217 8.93961 76.346 9.2407 76.346 9.59661C76.346 9.9422 76.4226 10.2385 76.5749 10.4856C76.7599 10.7843 77.0174 10.9337 77.3498 10.9337C77.6757 10.9337 77.9324 10.7819 78.1166 10.4777C78.2738 10.2258 78.3537 9.9271 78.3537 9.58152Z" fill="white"/>
<path d="M83.8308 11.4565H82.9777V9.31147C82.9777 8.6505 82.7202 8.32001 82.2028 8.32001C81.9494 8.32001 81.7449 8.41057 81.5868 8.5925C81.4288 8.77443 81.3497 8.98893 81.3497 9.23441V11.4557H80.495V8.78158C80.495 8.45268 80.4852 8.09597 80.4648 7.70987H81.2145L81.2544 8.29538H81.278C81.3783 8.11345 81.5265 7.9633 81.7205 7.84334C81.9527 7.70352 82.211 7.63281 82.4954 7.63281C82.8531 7.63281 83.1513 7.74562 83.3884 7.97204C83.6842 8.2493 83.8308 8.66321 83.8308 9.21296V11.4565Z" fill="white"/>
<path d="M89.5776 8.33366H88.6373V10.1529C88.6373 10.6153 88.8043 10.8465 89.1352 10.8465C89.2883 10.8465 89.4155 10.8338 89.5157 10.8076L89.5377 11.4391C89.369 11.5011 89.1474 11.5321 88.8744 11.5321C88.5371 11.5321 88.2747 11.432 88.0849 11.2318C87.8942 11.0316 87.7997 10.6947 87.7997 10.2221V8.33366H87.2383V7.71002H87.7997V7.02362L88.6365 6.77734V7.70923H89.5768V8.33366H89.5776Z" fill="white"/>
<path d="M94.0976 11.4556H93.2428V9.32647C93.2428 8.65517 92.9854 8.31911 92.4696 8.31911C92.0736 8.31911 91.8031 8.51375 91.6548 8.90303C91.6295 8.98486 91.6148 9.08496 91.6148 9.20254V11.4548H90.7617V5.99219H91.6148V8.2492H91.6311C91.9 7.83848 92.2854 7.63351 92.7849 7.63351C93.1385 7.63351 93.4311 7.74632 93.6633 7.97274C93.9525 8.25477 94.0976 8.67423 94.0976 9.22875V11.4556Z" fill="white"/>
<path d="M98.7606 9.40767C98.7606 9.55702 98.7492 9.68254 98.7288 9.78503H96.1679C96.1793 10.1552 96.3015 10.4373 96.5386 10.6327C96.7553 10.8075 97.0348 10.8949 97.377 10.8949C97.7559 10.8949 98.1014 10.8361 98.4127 10.7177L98.5463 11.2961C98.1821 11.4502 97.7535 11.5272 97.2573 11.5272C96.6624 11.5272 96.1939 11.3564 95.855 11.0148C95.5144 10.6732 95.3457 10.2148 95.3457 9.63964C95.3457 9.0748 95.503 8.60448 95.8199 8.22951C96.1507 7.82911 96.5981 7.62891 97.1627 7.62891C97.7152 7.62891 98.1348 7.82911 98.4184 8.22951C98.6473 8.54728 98.7606 8.94053 98.7606 9.40767ZM97.9458 9.19237C97.9523 8.9453 97.8961 8.73239 97.7804 8.55285C97.6321 8.32166 97.4064 8.20567 97.1008 8.20567C96.8221 8.20567 96.5948 8.31848 96.4213 8.5449C96.2795 8.72524 96.1956 8.94053 96.1679 9.19237H97.9458Z" fill="white"/>
<path d="M43.7111 25.8107H41.8606L40.847 22.7053H37.3238L36.3582 25.8107H34.5566L38.0473 15.2383H40.2033L43.7111 25.8107ZM40.5415 21.4024L39.6248 18.6417C39.5278 18.3597 39.3461 17.6955 39.078 16.65H39.0455C38.9387 17.0997 38.7668 17.7638 38.5305 18.6417L37.6301 21.4024H40.5415Z" fill="white"/>
<path d="M52.6879 21.9058C52.6879 23.2023 52.3286 24.2271 51.6099 24.9795C50.9662 25.6492 50.1669 25.9836 49.2127 25.9836C48.1828 25.9836 47.4429 25.623 46.9924 24.9016H46.9598V28.9175H45.2226V20.6974C45.2226 19.8823 45.2006 19.0458 45.1582 18.1878H46.686L46.7829 19.3961H46.8155C47.3949 18.4857 48.2741 18.0312 49.4539 18.0312C50.3763 18.0312 51.1463 18.3864 51.7623 19.0974C52.3799 19.8092 52.6879 20.7451 52.6879 21.9058ZM50.9181 21.9677C50.9181 21.2257 50.747 20.614 50.4032 20.1326C50.0275 19.6305 49.5232 19.3794 48.8909 19.3794C48.4623 19.3794 48.0728 19.5192 47.7249 19.7949C47.3761 20.073 47.148 20.436 47.0412 20.8857C46.9875 21.0954 46.9606 21.267 46.9606 21.4021V22.6732C46.9606 23.2277 47.1349 23.6956 47.4837 24.0778C47.8324 24.4599 48.2855 24.6506 48.8428 24.6506C49.4971 24.6506 50.0064 24.4043 50.3706 23.9133C50.7356 23.4216 50.9181 22.7733 50.9181 21.9677Z" fill="white"/>
<path d="M61.6812 21.9058C61.6812 23.2023 61.3219 24.2271 60.6024 24.9795C59.9595 25.6492 59.1602 25.9836 58.206 25.9836C57.1761 25.9836 56.4363 25.623 55.9865 24.9016H55.9539V28.9175H54.2167V20.6974C54.2167 19.8823 54.1947 19.0458 54.1523 18.1878H55.6801L55.7771 19.3961H55.8097C56.3882 18.4857 57.2674 18.0312 58.4481 18.0312C59.3696 18.0312 60.1396 18.3864 60.7572 19.0974C61.3724 19.8092 61.6812 20.7451 61.6812 21.9058ZM59.9115 21.9677C59.9115 21.2257 59.7395 20.614 59.3957 20.1326C59.02 19.6305 58.5173 19.3794 57.8842 19.3794C57.4548 19.3794 57.0661 19.5192 56.7174 19.7949C56.3686 20.073 56.1413 20.436 56.0346 20.8857C55.9816 21.0954 55.9539 21.267 55.9539 21.4021V22.6732C55.9539 23.2277 56.1283 23.6956 56.4754 24.0778C56.8241 24.4591 57.2772 24.6506 57.8361 24.6506C58.4904 24.6506 58.9997 24.4043 59.3639 23.9133C59.7289 23.4216 59.9115 22.7733 59.9115 21.9677Z" fill="white"/>
<path d="M71.7349 22.8445C71.7349 23.7439 71.4147 24.4755 70.7718 25.0404C70.0654 25.6577 69.0819 25.9659 67.8181 25.9659C66.6513 25.9659 65.7159 25.7467 65.0078 25.3073L65.4103 23.8956C66.173 24.3453 67.0098 24.5709 67.9216 24.5709C68.5759 24.5709 69.0851 24.4263 69.451 24.1387C69.8152 23.8511 69.9969 23.465 69.9969 22.9836C69.9969 22.5546 69.847 22.1931 69.5463 21.9C69.2473 21.6068 68.7478 21.3343 68.0503 21.0825C66.1518 20.3921 65.2034 19.3808 65.2034 18.0509C65.2034 17.1817 65.5358 16.4691 66.2015 15.9146C66.8648 15.3593 67.7497 15.082 68.8562 15.082C69.8429 15.082 70.6626 15.2497 71.3169 15.5841L70.8826 16.9649C70.2715 16.6407 69.5806 16.4787 68.8073 16.4787C68.1962 16.4787 67.7187 16.6256 67.3765 16.918C67.0872 17.1794 66.9422 17.4979 66.9422 17.8753C66.9422 18.2932 67.1076 18.6388 67.44 18.9105C67.7293 19.1615 68.2549 19.4332 69.0175 19.7264C69.9505 20.0926 70.6357 20.5208 71.0766 21.0118C71.5157 21.5011 71.7349 22.1137 71.7349 22.8445Z" fill="white"/>
<path d="M77.4786 19.4597H75.5638V23.161C75.5638 24.1024 75.9011 24.5727 76.5774 24.5727C76.8878 24.5727 77.1453 24.5465 77.349 24.4941L77.3971 25.7803C77.0549 25.905 76.6043 25.9678 76.0461 25.9678C75.3601 25.9678 74.8239 25.7636 74.4369 25.3561C74.0515 24.9477 73.8575 24.2629 73.8575 23.3008V19.4581H72.7168V18.187H73.8575V16.7912L75.5638 16.2891V18.187H77.4786V19.4597Z" fill="white"/>
<path d="M86.1174 21.9359C86.1174 23.1078 85.7736 24.0698 85.0875 24.8222C84.368 25.5967 83.4131 25.9828 82.2226 25.9828C81.0754 25.9828 80.1619 25.6118 79.4808 24.8698C78.7996 24.1278 78.459 23.1912 78.459 22.0623C78.459 20.8809 78.8094 19.9133 79.5125 19.161C80.2141 18.4078 81.1609 18.0312 82.3514 18.0312C83.4986 18.0312 84.4218 18.4023 85.1185 19.1451C85.785 19.8656 86.1174 20.7959 86.1174 21.9359ZM84.3151 21.9908C84.3151 21.2877 84.1611 20.6847 83.849 20.1818C83.4848 19.5733 82.9641 19.2698 82.2894 19.2698C81.5911 19.2698 81.0607 19.5741 80.6965 20.1818C80.3844 20.6855 80.2304 21.298 80.2304 22.0225C80.2304 22.7256 80.3844 23.3286 80.6965 23.8307C81.0721 24.4392 81.5968 24.7427 82.2739 24.7427C82.9372 24.7427 83.4579 24.4329 83.8335 23.8148C84.1537 23.3024 84.3151 22.693 84.3151 21.9908Z" fill="white"/>
<path d="M91.7653 19.6773C91.5934 19.6464 91.41 19.6305 91.2177 19.6305C90.6066 19.6305 90.134 19.8553 89.8016 20.3057C89.5123 20.703 89.3673 21.2051 89.3673 21.8112V25.8112H87.6309L87.6472 20.5886C87.6472 19.7099 87.6252 18.9099 87.582 18.1885H89.0952L89.1587 19.6472H89.2068C89.3901 19.1459 89.6794 18.7423 90.0754 18.4396C90.4624 18.1671 90.8804 18.0312 91.331 18.0312C91.4915 18.0312 91.6366 18.0424 91.7653 18.0622V19.6773Z" fill="white"/>
<path d="M99.5347 21.6375C99.5347 21.941 99.5143 22.1968 99.4711 22.4057H94.2596C94.2799 23.1589 94.5317 23.7348 95.0157 24.1321C95.4549 24.4872 96.0228 24.6651 96.7203 24.6651C97.4919 24.6651 98.1959 24.5452 98.829 24.3044L99.1012 25.4802C98.3613 25.7948 97.4879 25.9513 96.4799 25.9513C95.2675 25.9513 94.3158 25.6034 93.6232 24.9082C92.9322 24.2131 92.5859 23.2796 92.5859 22.1086C92.5859 20.959 92.9078 20.0017 93.5523 19.2383C94.227 18.4232 95.1387 18.0156 96.286 18.0156C97.4129 18.0156 98.266 18.4232 98.8453 19.2383C99.3041 19.8857 99.5347 20.6865 99.5347 21.6375ZM97.8782 21.1982C97.8896 20.6961 97.7763 20.2623 97.5408 19.8961C97.2402 19.425 96.7782 19.1898 96.1565 19.1898C95.5885 19.1898 95.1265 19.4194 94.7737 19.8802C94.4845 20.2464 94.3125 20.6858 94.2596 21.1974H97.8782V21.1982Z" fill="white"/>
</svg>
