<svg width="160" height="34" viewBox="0 0 160 34" fill="none" xmlns="http://www.w3.org/2000/svg">
<g clip-path="url(#clip0_2201_34085)">
<path d="M-0.00195312 3.11671C-0.000442105 2.87596 0.0962567 2.64559 0.267032 2.47588C0.437807 2.30618 0.668787 2.21093 0.909543 2.21094H3.64403C3.88578 2.21094 4.11762 2.30697 4.28856 2.47791C4.4595 2.64885 4.55553 2.88069 4.55553 3.12243V19.5217C4.55553 19.7635 4.65156 19.9953 4.8225 20.1663C4.99344 20.3372 5.22528 20.4332 5.46702 20.4332H17.3184C17.5601 20.4332 17.792 20.3372 17.9629 20.1663C18.1338 19.9953 18.2299 19.7635 18.2299 19.5217V16.7911C18.2299 16.5493 18.1338 16.3175 17.9629 16.1465C17.792 15.9756 17.5601 15.8796 17.3184 15.8796H11.8494C11.1242 15.8796 10.4286 15.5915 9.91583 15.0787C9.40301 14.5658 9.11492 13.8703 9.11492 13.1451V4.94543C9.11492 4.22019 9.40301 3.52467 9.91583 3.01185C10.4286 2.49904 11.1242 2.21094 11.8494 2.21094H20.0491C20.7743 2.21094 21.4698 2.49904 21.9826 3.01185C22.4954 3.52467 22.7835 4.22019 22.7835 4.94543V22.2658C22.7835 22.991 22.4954 23.6865 21.9826 24.1993C21.4698 24.7122 20.7743 25.0003 20.0491 25.0003H2.73254C2.0073 25.0003 1.31178 24.7122 0.79896 24.1993C0.286144 23.6865 -0.00195312 22.991 -0.00195312 22.2658V3.11671ZM18.2299 7.67419C18.2299 7.43245 18.1338 7.20061 17.9629 7.02967C17.792 6.85873 17.5601 6.7627 17.3184 6.7627H13.6724V10.4106C13.6724 10.6523 13.7684 10.8842 13.9394 11.0551C14.1103 11.2261 14.3421 11.3221 14.5839 11.3221H18.2299V7.67419Z" fill="url(#paint0_linear_2201_34085)"/>
<path d="M32.5254 0.6875V26.0302H36.9113V0.6875H32.5254ZM58.5049 18.6733C59.1933 11.3127 55.4539 7.61335 49.4777 7.61335C43.6769 7.61335 39.9794 11.5282 39.9794 16.9667C39.9794 22.6874 43.6407 26.5012 49.8038 26.5012C52.523 26.5012 55.6046 25.5591 57.4905 23.6008L54.6625 20.8091C53.6481 21.8598 51.5085 22.4776 49.8762 22.4776C46.7585 22.4776 44.8363 20.8815 44.5465 18.6638L58.5049 18.6733ZM44.6189 15.0121C45.2711 12.6914 47.2295 11.532 49.6226 11.532C52.1607 11.532 53.9722 12.6914 54.264 15.0121H44.6189ZM79.496 26.032V16.6425C79.496 11.0229 76.1247 7.87078 71.918 7.87078C69.6698 7.87078 67.8583 8.77655 66.0448 10.5538L65.7569 8.12439H61.8039V26.034H66.1897V16.8961C66.1897 14.1769 68.0394 11.8924 70.7663 11.8924C73.5942 11.8924 75.0816 13.9595 75.0816 16.6787V26.032H79.496ZM91.9614 11.8562C94.7531 11.8562 97.1463 13.9538 97.1463 17.0773C97.1463 20.3037 94.7531 22.3346 91.9614 22.3346C89.1335 22.3346 86.8853 20.195 86.8853 17.0773C86.8872 13.8451 89.1354 11.8562 91.9614 11.8562ZM97.438 0.6875V10.5862C96.3873 8.73651 93.4507 7.72585 91.5648 7.72585C86.3437 7.72585 82.4651 10.9161 82.4651 17.0792C82.4651 22.9524 86.4162 26.4325 91.6735 26.4325C93.8493 26.4325 96.0593 25.7079 97.438 23.5722L97.7279 26.0378H101.862V0.6875H97.438ZM119.85 10.0084C117.783 8.19495 115.681 7.65148 112.888 7.65148C109.625 7.65148 105.346 9.10263 105.346 13.2349C105.346 17.2947 109.371 18.5284 112.743 18.782C115.281 18.927 116.295 19.4342 116.295 20.668C116.295 21.9723 114.735 22.8437 113.069 22.8075C111.074 22.7713 108.174 21.7206 106.906 20.3056L104.738 23.4577C107.348 26.177 110.176 26.648 113.004 26.648C118.116 26.648 120.691 23.9288 120.691 20.7747C120.691 16.0247 116.412 15.2638 113.04 15.0541C110.752 14.9091 109.705 14.257 109.705 13.0957C109.705 11.9725 110.864 11.3184 112.968 11.3184C114.673 11.3184 116.122 11.717 117.39 12.9145L119.85 10.0084ZM132.147 22.1897C129.138 22.1897 127.071 19.9014 127.071 17.1135C127.071 14.3256 128.957 12.0373 132.147 12.0373C135.338 12.0373 137.224 14.3256 137.224 17.1135C137.224 19.9014 135.156 22.1897 132.147 22.1897ZM142.046 33.5014V8.15872H137.918L137.628 10.6243C136.251 8.62972 133.858 7.76399 131.827 7.76399C126.316 7.76399 122.655 11.86 122.655 17.1173C122.655 22.3384 125.954 26.4706 131.682 26.4706C133.568 26.4706 136.36 25.8986 137.628 23.9326V33.5033L142.046 33.5014ZM145.927 8.15872V26.032H150.351V16.6063C150.351 13.3073 152.49 12.0736 154.811 12.0736C156.262 12.0736 157.099 12.4721 158.001 13.233L159.996 9.39058C159.017 8.41234 157.24 7.68581 155.391 7.68581C153.577 7.68581 151.729 8.01189 150.351 10.2239L150.024 8.15681L145.927 8.15872Z" fill="#213F7D"/>
</g>
<defs>
<linearGradient id="paint0_linear_2201_34085" x1="-1.90313" y1="35.0172" x2="21.9121" y2="-4.52231" gradientUnits="userSpaceOnUse">
<stop stop-color="#213F7D"/>
<stop offset="1" stop-color="#39CDCC"/>
</linearGradient>
<clipPath id="clip0_2201_34085">
<rect width="160" height="32.812" fill="white" transform="translate(0 0.691406)"/>
</clipPath>
</defs>
</svg>
