<svg width="40" height="40" viewBox="0 0 40 40" fill="none" xmlns="http://www.w3.org/2000/svg">
<g clip-path="url(#clip0_1383_31441)">
<path d="M20 40C31.0457 40 40 31.0457 40 20C40 8.95431 31.0457 0 20 0C8.95431 0 0 8.95431 0 20C0 31.0457 8.95431 40 20 40Z" fill="#007AB9"/>
<path d="M31.948 21.6065V29.8521H27.1674V22.1591C27.1674 20.2275 26.4772 18.9084 24.7463 18.9084C23.4254 18.9084 22.6407 19.7965 22.2942 20.6564C22.1683 20.9637 22.1359 21.3905 22.1359 21.8215V29.8517H17.3549C17.3549 29.8517 17.4191 16.8224 17.3549 15.4737H22.1362V17.5112C22.1266 17.5272 22.1131 17.5429 22.1045 17.5583H22.1362V17.5112C22.7715 16.5336 23.9046 15.1361 26.4448 15.1361C29.59 15.1361 31.948 17.191 31.948 21.6065ZM12.3537 8.54297C10.7183 8.54297 9.64844 9.61645 9.64844 11.0268C9.64844 12.4073 10.6873 13.5118 12.291 13.5118H12.322C13.9894 13.5118 15.0262 12.4073 15.0262 11.0268C14.9944 9.61645 13.9894 8.54297 12.3537 8.54297ZM9.93258 29.8521H14.7117V15.4737H9.93258V29.8521Z" fill="#F1F2F2"/>
</g>
<defs>
<clipPath id="clip0_1383_31441">
<rect width="40" height="40" fill="white"/>
</clipPath>
</defs>
</svg>
