<svg width="101" height="29" viewBox="0 0 101 29" fill="none" xmlns="http://www.w3.org/2000/svg">
<path d="M10.1673 28.0612C8.91023 28.0612 7.75606 27.8982 6.70474 27.5722C5.67627 27.2462 4.76208 26.7948 3.96215 26.218C3.18509 25.6412 2.53373 25.0017 2.00806 24.2996C1.50526 23.5724 1.15101 22.82 0.945312 22.0426L4.8535 20.7261C5.15061 21.654 5.73341 22.469 6.60189 23.1711C7.47038 23.8733 8.54456 24.2369 9.82443 24.262C11.31 24.262 12.487 23.9234 13.3555 23.2464C14.224 22.5693 14.6582 21.679 14.6582 20.5756C14.6582 19.5726 14.2926 18.7575 13.5612 18.1306C12.8298 17.4786 11.8471 16.9771 10.6129 16.626L7.66464 15.7984C6.54476 15.4724 5.52771 14.996 4.61352 14.369C3.72218 13.7421 3.01368 12.9522 2.48802 11.9993C1.98521 11.0463 1.73381 9.91786 1.73381 8.61385C1.73381 6.15629 2.46516 4.25043 3.92787 2.89626C5.39058 1.51702 7.4818 0.827401 10.2015 0.827401C11.7328 0.827401 13.0698 1.09071 14.2126 1.61733C15.3782 2.11887 16.3381 2.82103 17.0923 3.72381C17.8465 4.60151 18.4064 5.60459 18.7721 6.73306L14.9325 8.08723C14.5897 7.08414 13.9954 6.2566 13.1498 5.60459C12.3042 4.95259 11.2529 4.62659 9.99584 4.62659C8.69311 4.62659 7.66464 4.96513 6.91043 5.64221C6.17908 6.31929 5.8134 7.25968 5.8134 8.46339C5.8134 9.44139 6.09909 10.2062 6.67046 10.7579C7.26468 11.2846 8.0646 11.6858 9.07022 11.9616L12.0185 12.7516C14.1669 13.3283 15.8353 14.3189 17.0237 15.7232C18.2122 17.1275 18.8064 18.6823 18.8064 20.3876C18.8064 21.8922 18.475 23.2213 17.8122 24.3748C17.1494 25.5284 16.1667 26.4311 14.8639 27.0831C13.5841 27.7352 12.0185 28.0612 10.1673 28.0612Z" fill="#2A8851"/>
<path d="M29.1031 28.0612C27.4347 28.0612 25.9492 27.6474 24.6464 26.8198C23.3666 25.9672 22.3495 24.8011 21.5953 23.3216C20.864 21.842 20.4983 20.1368 20.4983 18.2058C20.4983 16.2749 20.8754 14.5697 21.6296 13.0901C22.3838 11.6106 23.4123 10.457 24.715 9.62947C26.0406 8.77685 27.549 8.35054 29.2403 8.35054C30.7715 8.35054 32.1428 8.78939 33.3541 9.66709C34.5883 10.5197 35.5711 11.761 36.3024 13.391C37.0338 15.0211 37.3995 16.9645 37.3995 19.2215H33.5256C33.5256 17.5915 33.3427 16.2498 32.977 15.1966C32.6342 14.1434 32.1314 13.366 31.4686 12.8644C30.8287 12.3378 30.0402 12.0745 29.1031 12.0745C28.1204 12.0745 27.2747 12.3127 26.5662 12.7892C25.8577 13.2657 25.3207 13.9678 24.955 14.8957C24.5893 15.7984 24.4065 16.9395 24.4065 18.3187C24.4065 19.5475 24.6236 20.6007 25.0578 21.4784C25.5149 22.3561 26.1206 23.0332 26.8748 23.5097C27.6519 23.9611 28.5089 24.1867 29.446 24.1867C30.4744 24.1867 31.3201 23.936 31.9829 23.4344C32.6456 22.9078 33.1599 22.2433 33.5256 21.4408L37.0566 23.0959C36.5767 24.099 35.9596 24.9767 35.2054 25.729C34.474 26.4813 33.5941 27.0581 32.5656 27.4593C31.56 27.8605 30.4059 28.0612 29.1031 28.0612ZM23.0352 19.2215V15.8737H35.3768V19.2215H23.0352Z" fill="#2A8851"/>
<path d="M46.9567 28.0612C45.2883 28.0612 43.8027 27.6474 42.5 26.8198C41.2201 25.9672 40.2031 24.8011 39.4489 23.3216C38.7175 21.842 38.3519 20.1368 38.3519 18.2058C38.3519 16.2749 38.729 14.5697 39.4832 13.0901C40.2374 11.6106 41.2659 10.457 42.5686 9.62947C43.8942 8.77685 45.4026 8.35054 47.0938 8.35054C48.6251 8.35054 49.9964 8.78939 51.2077 9.66709C52.4419 10.5197 53.4246 11.761 54.156 13.391C54.8874 15.0211 55.253 16.9645 55.253 19.2215H51.3791C51.3791 17.5915 51.1963 16.2498 50.8306 15.1966C50.4878 14.1434 49.985 13.366 49.3222 12.8644C48.6823 12.3378 47.8938 12.0745 46.9567 12.0745C45.974 12.0745 45.1283 12.3127 44.4198 12.7892C43.7113 13.2657 43.1742 13.9678 42.8086 14.8957C42.4429 15.7984 42.26 16.9395 42.26 18.3187C42.26 19.5475 42.4772 20.6007 42.9114 21.4784C43.3685 22.3561 43.9742 23.0332 44.7284 23.5097C45.5054 23.9611 46.3625 24.1867 47.2995 24.1867C48.328 24.1867 49.1736 23.936 49.8364 23.4344C50.4992 22.9078 51.0135 22.2433 51.3791 21.4408L54.9102 23.0959C54.4303 24.099 53.8132 24.9767 53.059 25.729C52.3276 26.4813 51.4477 27.0581 50.4192 27.4593C49.4136 27.8605 48.2594 28.0612 46.9567 28.0612ZM40.8887 19.2215V15.8737H53.2304V19.2215H40.8887Z" fill="#2A8851"/>
<path d="M69.5413 27.6098L69.3698 24.1115V1.27879H73.1752V27.6098H69.5413ZM63.9532 28.0612C62.3991 28.0612 61.0392 27.6599 59.8736 26.8575C58.7309 26.0299 57.8281 24.8764 57.1653 23.3968C56.5254 21.9173 56.2054 20.1869 56.2054 18.2058C56.2054 16.1997 56.5254 14.4694 57.1653 13.0149C57.8281 11.5353 58.7309 10.3943 59.8736 9.59186C61.0392 8.76431 62.3991 8.35054 63.9532 8.35054C65.3931 8.35054 66.6273 8.76431 67.6557 9.59186C68.7071 10.3943 69.507 11.5353 70.0555 13.0149C70.604 14.4694 70.8783 16.1997 70.8783 18.2058C70.8783 20.1869 70.604 21.9173 70.0555 23.3968C69.507 24.8764 68.7071 26.0299 67.6557 26.8575C66.6273 27.6599 65.3931 28.0612 63.9532 28.0612ZM64.9131 24.2244C65.7816 24.2244 66.5473 23.9736 67.2101 23.472C67.8957 22.9454 68.4214 22.2307 68.787 21.328C69.1756 20.4252 69.3698 19.3845 69.3698 18.2058C69.3698 17.0272 69.1756 15.9865 68.787 15.0837C68.4214 14.181 67.8957 13.4788 67.2101 12.9773C66.5473 12.4757 65.7702 12.225 64.8789 12.225C63.9647 12.225 63.1533 12.4757 62.4448 12.9773C61.7363 13.4788 61.1764 14.181 60.765 15.0837C60.3765 15.9865 60.1708 17.0272 60.1479 18.2058C60.1708 19.3845 60.3765 20.4252 60.765 21.328C61.1764 22.2307 61.7363 22.9454 62.4448 23.472C63.1762 23.9736 63.999 24.2244 64.9131 24.2244Z" fill="#2A8851"/>
<path d="M75.6716 27.6098L79.6827 1.27879H83.6594L79.6484 27.6098H75.6716ZM80.6426 16.626L81.2596 12.6387H91.2701L90.653 16.626H80.6426ZM82.391 5.26605L82.9738 1.27879H94.5955L94.0127 5.26605H82.391Z" fill="#2A8851"/>
<path d="M93.0118 27.6098L95.9258 8.80193H99.7311L96.8171 27.6098H93.0118ZM98.7369 5.22844C98.1427 5.22844 97.617 4.9902 97.1599 4.51374C96.7028 4.0122 96.4743 3.42288 96.4743 2.7458C96.4743 2.06872 96.7028 1.49194 97.1599 1.01548C97.617 0.539013 98.1427 0.300781 98.7369 0.300781C99.354 0.300781 99.8797 0.539013 100.314 1.01548C100.771 1.49194 101 2.06872 101 2.7458C101 3.42288 100.771 4.0122 100.314 4.51374C99.8797 4.9902 99.354 5.22844 98.7369 5.22844Z" fill="#2A8851"/>
</svg>
