<svg width="82" height="15" viewBox="0 0 82 15" fill="none" xmlns="http://www.w3.org/2000/svg">
<path d="M30.2749 14.4249C29.5591 14.4249 28.9018 14.3402 28.3031 14.1708C27.7175 14.0014 27.1969 13.7669 26.7414 13.4672C26.2989 13.1675 25.928 12.8352 25.6286 12.4703C25.3423 12.0924 25.1406 11.7015 25.0234 11.2976L27.2489 10.6135C27.4181 11.0956 27.75 11.5191 28.2446 11.8839C28.7391 12.2488 29.3508 12.4377 30.0796 12.4508C30.9256 12.4508 31.5959 12.2749 32.0904 11.923C32.585 11.5712 32.8322 11.1086 32.8322 10.5353C32.8322 10.014 32.624 9.59055 32.2075 9.26478C31.7911 8.92598 31.2314 8.66537 30.5286 8.48294L28.8498 8.05293C28.212 7.88353 27.6329 7.63595 27.1123 7.31019C26.6047 6.98442 26.2013 6.57396 25.9019 6.07879C25.6156 5.58363 25.4724 4.99725 25.4724 4.31966C25.4724 3.04265 25.8889 2.05232 26.7219 1.34867C27.5548 0.631986 28.7456 0.273643 30.2944 0.273643C31.1664 0.273643 31.9277 0.410465 32.5785 0.684108C33.2422 0.944721 33.7888 1.30958 34.2183 1.77868C34.6478 2.23475 34.9667 2.75598 35.1749 3.34236L32.9884 4.04601C32.7932 3.52479 32.4548 3.09478 31.9733 2.75598C31.4917 2.41718 30.8931 2.24779 30.1773 2.24779C29.4354 2.24779 28.8498 2.4237 28.4203 2.77552C28.0038 3.12735 27.7956 3.616 27.7956 4.24147C27.7956 4.74967 27.9582 5.1471 28.2836 5.43377C28.622 5.70742 29.0775 5.91591 29.6502 6.05925L31.3291 6.46971C32.5524 6.76941 33.5025 7.28412 34.1793 8.01384C34.856 8.74356 35.1944 9.55146 35.1944 10.4375C35.1944 11.2194 35.0057 11.91 34.6283 12.5094C34.2508 13.1088 33.6912 13.5779 32.9494 13.9167C32.2206 14.2555 31.3291 14.4249 30.2749 14.4249Z" fill="white"/>
<path d="M41.0579 14.4249C40.1078 14.4249 39.2619 14.2099 38.52 13.7799C37.7912 13.3369 37.212 12.7309 36.7826 11.9621C36.3661 11.1933 36.1579 10.3072 36.1579 9.30387C36.1579 8.30051 36.3726 7.41443 36.8021 6.64562C37.2316 5.87682 37.8172 5.27741 38.5591 4.8474C39.3139 4.40435 40.1729 4.18283 41.136 4.18283C42.008 4.18283 42.7888 4.41087 43.4786 4.86694C44.1814 5.30998 44.741 5.955 45.1575 6.80199C45.574 7.64898 45.7822 8.65886 45.7822 9.83161H43.5762C43.5762 8.98462 43.4721 8.28748 43.2639 7.7402C43.0687 7.19291 42.7823 6.78896 42.4049 6.52835C42.0405 6.2547 41.5915 6.11788 41.0579 6.11788C40.4983 6.11788 40.0167 6.24167 39.6133 6.48926C39.2098 6.73684 38.904 7.1017 38.6957 7.58383C38.4875 8.05293 38.3834 8.64583 38.3834 9.36251C38.3834 10.001 38.507 10.5483 38.7543 11.0044C39.0146 11.4604 39.3595 11.8123 39.789 12.0599C40.2315 12.2944 40.7195 12.4117 41.2531 12.4117C41.8388 12.4117 42.3203 12.2814 42.6977 12.0208C43.0752 11.7471 43.368 11.4018 43.5762 10.9848L45.587 11.8448C45.3137 12.3661 44.9623 12.8221 44.5328 13.2131C44.1163 13.604 43.6153 13.9037 43.0296 14.1122C42.457 14.3207 41.7997 14.4249 41.0579 14.4249ZM37.6025 9.83161V8.09202H44.6304V9.83161H37.6025Z" fill="white"/>
<path d="M51.2246 14.4249C50.2745 14.4249 49.4286 14.2099 48.6867 13.7799C47.9579 13.3369 47.3788 12.7309 46.9493 11.9621C46.5328 11.1933 46.3246 10.3072 46.3246 9.30387C46.3246 8.30051 46.5393 7.41443 46.9688 6.64562C47.3983 5.87682 47.9839 5.27741 48.7258 4.8474C49.4806 4.40435 50.3396 4.18283 51.3027 4.18283C52.1747 4.18283 52.9555 4.41087 53.6453 4.86694C54.3481 5.30998 54.9077 5.955 55.3242 6.80199C55.7407 7.64898 55.9489 8.65886 55.9489 9.83161H53.7429C53.7429 8.98462 53.6388 8.28748 53.4306 7.7402C53.2354 7.19291 52.949 6.78896 52.5716 6.52835C52.2072 6.2547 51.7582 6.11788 51.2246 6.11788C50.665 6.11788 50.1834 6.24167 49.78 6.48926C49.3765 6.73684 49.0707 7.1017 48.8624 7.58383C48.6542 8.05293 48.5501 8.64583 48.5501 9.36251C48.5501 10.001 48.6737 10.5483 48.921 11.0044C49.1813 11.4604 49.5262 11.8123 49.9557 12.0599C50.3982 12.2944 50.8862 12.4117 51.4198 12.4117C52.0055 12.4117 52.487 12.2814 52.8644 12.0208C53.2419 11.7471 53.5347 11.4018 53.7429 10.9848L55.7537 11.8448C55.4804 12.3661 55.129 12.8221 54.6995 13.2131C54.283 13.604 53.782 13.9037 53.1963 14.1122C52.6237 14.3207 51.9664 14.4249 51.2246 14.4249ZM47.7692 9.83161V8.09202H54.7971V9.83161H47.7692Z" fill="white"/>
<path d="M64.0853 14.1904L63.9877 12.3726V0.508194H66.1547V14.1904H64.0853ZM60.9032 14.4249C60.0182 14.4249 59.2439 14.2164 58.5801 13.7994C57.9294 13.3694 57.4153 12.77 57.0379 12.0012C56.6735 11.2324 56.4913 10.3333 56.4913 9.30387C56.4913 8.26142 56.6735 7.36231 57.0379 6.60653C57.4153 5.83772 57.9294 5.24483 58.5801 4.82785C59.2439 4.39784 60.0182 4.18283 60.9032 4.18283C61.7232 4.18283 62.426 4.39784 63.0116 4.82785C63.6103 5.24483 64.0658 5.83772 64.3782 6.60653C64.6905 7.36231 64.8467 8.26142 64.8467 9.30387C64.8467 10.3333 64.6905 11.2324 64.3782 12.0012C64.0658 12.77 63.6103 13.3694 63.0116 13.7994C62.426 14.2164 61.7232 14.4249 60.9032 14.4249ZM61.4499 12.4312C61.9444 12.4312 62.3804 12.3009 62.7578 12.0403C63.1483 11.7667 63.4476 11.3953 63.6559 10.9262C63.8771 10.4571 63.9877 9.91631 63.9877 9.30387C63.9877 8.69143 63.8771 8.15066 63.6559 7.68156C63.4476 7.21246 63.1483 6.8476 62.7578 6.58699C62.3804 6.32637 61.9379 6.19607 61.4303 6.19607C60.9098 6.19607 60.4477 6.32637 60.0443 6.58699C59.6408 6.8476 59.322 7.21246 59.0877 7.68156C58.8665 8.15066 58.7493 8.69143 58.7363 9.30387C58.7493 9.91631 58.8665 10.4571 59.0877 10.9262C59.322 11.3953 59.6408 11.7667 60.0443 12.0403C60.4608 12.3009 60.9293 12.4312 61.4499 12.4312Z" fill="white"/>
<path d="M67.5763 14.1904L69.8604 0.508194H72.1249L69.8408 14.1904H67.5763ZM70.407 8.48294L70.7584 6.41107H76.4588L76.1074 8.48294H70.407ZM71.4026 2.58007L71.7345 0.508194H78.3524L78.0206 2.58007H71.4026Z" fill="white"/>
<path d="M77.4506 14.1904L79.11 4.41739H81.2769L79.6176 14.1904H77.4506ZM80.7108 2.56052C80.3724 2.56052 80.0731 2.43673 79.8128 2.18915C79.5525 1.92853 79.4223 1.62231 79.4223 1.27049C79.4223 0.91866 79.5525 0.618955 79.8128 0.371373C80.0731 0.123791 80.3724 0 80.7108 0C81.0622 0 81.3615 0.123791 81.6088 0.371373C81.8691 0.618955 81.9992 0.91866 81.9992 1.27049C81.9992 1.62231 81.8691 1.92853 81.6088 2.18915C81.3615 2.43673 81.0622 2.56052 80.7108 2.56052Z" fill="white"/>
<path d="M14.1465 0.261719C18.0514 0.261719 21.2176 3.42717 21.2178 7.33203C21.2178 11.2371 18.0515 14.4033 14.1465 14.4033L14.1445 14.4023V0.261719H14.1465Z" fill="white"/>
<path d="M7.08336 0.25C3.17133 0.25 6.9312e-08 3.42133 1.54813e-07 7.33336L3.09667e-07 14.4186L7.08527 14.4186C10.9973 14.4186 14.1686 11.2473 14.1686 7.33527C14.1686 3.42218 10.9965 0.25 7.08336 0.25Z" fill="white"/>
</svg>
