<svg width="168" height="26" viewBox="0 0 168 26" fill="none" xmlns="http://www.w3.org/2000/svg">
<g clip-path="url(#clip0_2201_34187)">
<path d="M81.2749 0.660684C79.374 0.629341 77.5216 1.26121 76.0362 2.44765C74.4697 3.74391 73.3835 5.52837 72.9516 7.51524C72.625 2.94554 70.4216 0.660684 66.3415 0.660684C64.5066 0.618077 62.7173 1.23475 61.2983 2.39877C59.8416 3.64575 58.8425 5.34307 58.4593 7.22194V6.87921C58.4759 5.5339 58.2764 4.19464 57.8683 2.91259C57.7307 2.33897 57.5337 1.78123 57.2807 1.24837H52.3353V24.9938H58.5571V12.1646C58.5896 10.0101 59.0792 8.34536 60.0257 7.17034C60.4866 6.59332 61.077 6.133 61.749 5.82669C62.4209 5.52038 63.1556 5.37669 63.8935 5.40728C65.1337 5.40691 66.0069 5.70909 66.5131 6.31379C67.0193 6.9185 67.2723 7.92224 67.2719 9.32502V24.9938H73.491V12.1684C73.5232 10.0139 74.0044 8.34916 74.9347 7.17414C75.3971 6.59265 75.9913 6.12951 76.668 5.82295C77.3448 5.51639 78.0848 5.37521 78.8269 5.41108C80.0671 5.41072 80.9403 5.71271 81.4465 6.31705C81.9524 6.92176 82.2055 7.9255 82.2058 9.32828V24.9982H88.4238V9.03281C88.4256 6.25803 87.789 4.16907 86.5141 2.76594C85.2388 1.36243 83.4924 0.660684 81.2749 0.660684ZM103.319 0.664486C99.7936 0.662314 96.9294 1.74626 94.726 3.91633C92.523 6.08676 91.4216 9.03281 91.422 12.7545V12.8522C91.4242 17.0302 92.5675 20.188 94.852 22.3259C97.198 24.392 100.217 25.5321 103.343 25.5328C106.469 25.5335 109.488 24.3947 111.835 22.3297C114.12 20.1922 115.262 17.0178 115.262 12.8066V12.7088C115.264 8.9879 114.156 6.05019 111.936 3.89569C109.717 1.74119 106.844 0.663943 103.319 0.663943V0.664486ZM108.952 13.5366C108.952 18.824 107.075 21.4677 103.322 21.4677V21.4693C99.5984 21.4693 97.7379 18.8254 97.7405 13.5377V11.7752C97.7408 9.5555 98.2385 7.84186 99.2336 6.63425C99.7283 6.03646 100.355 5.5617 101.065 5.24737C101.774 4.93303 102.547 4.78771 103.322 4.82285C104.1 4.78858 104.877 4.93416 105.59 5.2483C106.303 5.56244 106.934 6.03669 107.435 6.63425C108.446 7.84367 108.952 9.55731 108.952 11.7752V13.5366ZM132.855 0.660684C130.889 0.596566 128.964 1.22952 127.419 2.44765C125.913 3.7019 124.892 5.44215 124.531 7.36859V6.87921C124.55 5.534 124.351 4.19457 123.943 2.91259C123.804 2.33885 123.606 1.78111 123.352 1.24837H118.4V24.9938H124.627V12.1684C124.627 10.0465 125.157 8.3899 126.218 7.19859C126.734 6.61381 127.372 6.1503 128.088 5.84126C128.803 5.53222 129.578 5.38531 130.357 5.41108C133.001 5.41108 134.323 6.71681 134.323 9.32828V24.9982H140.493V9.03281C140.494 6.25803 139.824 4.16907 138.485 2.76594C137.145 1.36243 135.269 0.660684 132.855 0.660684ZM164 3.89569C161.781 1.74119 158.908 0.663943 155.383 0.663943C151.858 0.662133 148.994 1.74626 146.791 3.91633C144.587 6.08676 143.486 9.03281 143.486 12.7545V12.8522C143.486 17.0302 144.628 20.188 146.913 22.3259C149.26 24.3928 152.28 25.5331 155.408 25.5331C158.535 25.5331 161.556 24.3928 163.903 22.3259C166.188 20.1884 167.33 17.0142 167.33 12.8034V12.7056C167.33 8.98682 166.22 6.05019 164 3.89569ZM161.014 13.5366C161.014 18.824 159.137 21.4677 155.383 21.4677V21.4693C151.662 21.4693 149.802 18.8254 149.802 13.5377V11.7752C149.803 9.5555 150.301 7.84186 151.296 6.63425C151.79 6.03644 152.417 5.56166 153.126 5.24731C153.836 4.93298 154.608 4.78767 155.383 4.82285C156.162 4.78858 156.938 4.93416 157.651 5.2483C158.365 5.56244 158.996 6.03669 159.496 6.63425C160.508 7.84367 161.014 9.55731 161.014 11.7752V13.5366ZM31.0655 0.826345C30.9366 0.732647 30.7843 0.676429 30.6255 0.663912C30.4666 0.651396 30.3074 0.683069 30.1655 0.755427C30.0235 0.827785 29.9043 0.938006 29.8211 1.0739C29.7379 1.20978 29.6939 1.36604 29.694 1.52538V10.7101L16.2185 0.826345C16.0896 0.732647 15.9373 0.676429 15.7785 0.663912C15.6196 0.651396 15.4604 0.683069 15.3184 0.755427C15.1765 0.827785 15.0573 0.938006 14.9741 1.0739C14.8909 1.20978 14.8469 1.36604 14.847 1.52538V10.7101L1.37146 0.826345C1.24258 0.732647 1.09029 0.676429 0.931448 0.663912C0.772602 0.651396 0.613391 0.683069 0.47143 0.755427C0.32947 0.827785 0.210295 0.938006 0.127092 1.0739C0.0438893 1.20978 -9.69953e-05 1.36604 1.60598e-07 1.52538V14.5029C0.000455353 14.6387 0.0328448 14.7724 0.0945518 14.8934C0.156259 15.0144 0.245553 15.1191 0.355221 15.1992L14.2175 25.367C14.3464 25.4608 14.4987 25.5172 14.6577 25.5298C14.8166 25.5424 14.9759 25.5107 15.118 25.4383C15.26 25.366 15.3793 25.2557 15.4625 25.1197C15.5457 24.9837 15.5897 24.8274 15.5895 24.6679V15.4833L29.0651 25.367C29.1938 25.4608 29.3461 25.5171 29.5049 25.5296C29.6637 25.5422 29.8229 25.5105 29.9648 25.4381C30.1068 25.3657 30.2259 25.2555 30.3089 25.1195C30.392 24.9836 30.4358 24.8273 30.4354 24.6679V15.4827L43.9137 25.367C44.0425 25.4609 44.1948 25.5174 44.3537 25.53C44.5126 25.5427 44.6719 25.511 44.8139 25.4386C44.9559 25.3662 45.0751 25.2558 45.1582 25.1198C45.2413 24.9838 45.285 24.8273 45.2846 24.6679V11.6921C45.2842 11.5558 45.2517 11.4215 45.1897 11.3002C45.1277 11.1788 45.038 11.0738 44.9278 10.9936L31.0655 0.826345Z" fill="black"/>
</g>
<defs>
<clipPath id="clip0_2201_34187">
<rect width="167.33" height="24.8725" fill="white" transform="translate(0 0.660156)"/>
</clipPath>
</defs>
</svg>
