<svg width="36" height="42" viewBox="0 0 36 42" fill="none" xmlns="http://www.w3.org/2000/svg">
<g clip-path="url(#clip0_2201_34202)">
<mask id="mask0_2201_34202" style="mask-type:luminance" maskUnits="userSpaceOnUse" x="0" y="0" width="115" height="42">
<path d="M114.126 0.769531H0.326172V41.4124H114.126V0.769531Z" fill="white"/>
</mask>
<g mask="url(#mask0_2201_34202)">
<path d="M26.4716 25.9039C28.4295 23.1889 29.5308 19.9391 29.5308 16.5659C29.5308 16.4425 29.5308 16.3191 29.5308 16.1957C29.4084 12.0409 27.7361 8.1741 24.7993 5.25341C21.8625 2.37385 17.9876 0.769531 13.868 0.769531C10.0746 0.769531 6.44445 2.16817 3.58925 4.6775C2.97743 5.21227 2.93664 6.15842 3.50768 6.73433L5.955 9.20252L2.12087 13.0693C1.59062 13.6041 1.59062 14.5091 2.12087 15.0439L3.38531 16.3191C1.38668 18.993 0.326172 22.2839 0.326172 25.6571C0.326172 29.8119 1.91692 33.7199 4.77212 36.6817C7.62731 39.6435 11.5022 41.3301 15.5811 41.4124C15.7034 41.4124 15.8258 41.4124 15.989 41.4124C19.7823 41.4124 23.4125 40.0138 26.2677 37.5044C26.8795 36.9697 26.9203 36.0235 26.3493 35.4476L23.902 32.9794L27.7361 29.1126C28.2663 28.5778 28.2663 27.6728 27.7361 27.138L26.4716 25.9039ZM20.9244 34.0078L23.2494 36.3526C21.1284 37.8335 18.5995 38.6151 15.989 38.6151C15.9074 38.6151 15.785 38.6151 15.6627 38.6151C12.2772 38.5328 9.13648 37.1342 6.77076 34.7071C4.40503 32.2801 3.09979 29.0303 3.09979 25.616C3.09979 22.9832 3.87478 20.4328 5.34317 18.2937L16.0706 29.1126L17.3758 30.429L18.11 31.1694L20.0678 29.1948L19.3336 28.4544L5.18001 14.1389L5.09843 14.0566L8.93255 10.1898C9.46279 9.65502 9.46279 8.75001 8.93255 8.21525L6.60763 5.87046C8.72863 4.38954 11.2575 3.60795 13.868 3.60795C17.2534 3.60795 20.4349 4.92432 22.8822 7.31024C25.2888 9.69618 26.6756 12.8637 26.7571 16.278C26.7571 16.3603 26.7571 16.4837 26.7571 16.5659C26.7571 19.1987 25.9822 21.7491 24.5138 23.8883L18.681 18.0469L12.4404 11.753L11.7062 11.0125L9.70756 12.9871L17.906 21.2555L24.7585 28.1664L20.9244 32.0333C20.3941 32.568 20.3941 33.4319 20.9244 34.0078Z" fill="#009E74"/>
</g>
</g>
<defs>
<clipPath id="clip0_2201_34202">
<rect width="113.8" height="40.6429" fill="white" transform="translate(0.330078 0.773438)"/>
</clipPath>
</defs>
</svg>
