<svg width="157" height="29" viewBox="0 0 157 29" fill="none" xmlns="http://www.w3.org/2000/svg">
<g clip-path="url(#clip0_2201_34081)">
<path d="M22.319 2.76272H1.30505C0.593047 2.76272 -0.000952634 3.36272 -0.000952634 4.08472V6.45472C-0.000952634 7.19472 0.593047 7.77872 1.30605 7.77872H22.318C23.048 7.77872 23.625 7.17672 23.642 6.45572V4.10172C23.642 3.36372 23.048 2.76172 22.319 2.76172V2.76272ZM22.319 15.9547H1.30505C1.13302 15.955 0.962768 15.9895 0.804157 16.0561C0.645546 16.1227 0.501731 16.2201 0.381047 16.3427C0.135355 16.5919 -0.00225292 16.9278 -0.00195263 17.2777V19.6477C-0.00195263 20.3877 0.592047 20.9707 1.30505 20.9707H22.317C23.047 20.9707 23.624 20.3867 23.641 19.6487V17.2777C23.641 16.5387 23.048 15.9547 22.319 15.9547ZM13.136 22.5347H1.30605C0.959047 22.5347 0.626047 22.6737 0.382047 22.9217C0.136355 23.1709 -0.00125292 23.5068 -0.000952634 23.8567V26.2267C-0.000952634 26.9667 0.593047 27.5497 1.30605 27.5497H13.119C13.849 27.5497 14.426 26.9497 14.426 26.2277V23.8567C14.4305 23.6846 14.4003 23.5133 14.3375 23.3529C14.2746 23.1926 14.1803 23.0464 14.0601 22.9231C13.9399 22.7998 13.7962 22.7019 13.6375 22.635C13.4788 22.5681 13.3083 22.5347 13.136 22.5347ZM23.642 9.35772H1.30605C0.959047 9.35772 0.626047 9.49772 0.382047 9.74472C0.136112 9.99412 -0.00151625 10.3305 -0.000952634 10.6807V13.0507C-0.000952634 13.7897 0.593047 14.3737 1.30605 14.3737H23.626C24.356 14.3737 24.932 13.7727 24.932 13.0507V10.6807C24.935 10.5089 24.9038 10.3383 24.8404 10.1786C24.777 10.019 24.6827 9.87342 24.5627 9.75042C24.4428 9.62742 24.2997 9.52939 24.1417 9.46199C23.9836 9.39458 23.8138 9.35915 23.642 9.35772Z" fill="#00C3F7"/>
<path d="M48.0997 8.10278C47.4541 7.43455 46.6808 6.90301 45.8257 6.53978C44.9657 6.17834 44.0425 5.99139 43.1097 5.98978C42.2005 5.96878 41.2994 6.16307 40.4797 6.55678C39.9297 6.81978 39.4337 7.18678 39.0197 7.63878V7.22778C39.0164 7.01857 38.9383 6.81744 38.7997 6.66078C38.7312 6.57905 38.6455 6.51351 38.5486 6.4689C38.4518 6.42429 38.3463 6.4017 38.2397 6.40278H35.3027C35.1958 6.39995 35.0897 6.42175 34.9926 6.46649C34.8955 6.51123 34.81 6.57771 34.7427 6.66078C34.5968 6.81305 34.5173 7.01697 34.5217 7.22778V26.7938C34.5217 26.9998 34.6067 27.2058 34.7417 27.3598C34.8153 27.4326 34.9028 27.4899 34.999 27.5284C35.0952 27.5669 35.1981 27.5857 35.3017 27.5838H38.2727C38.4767 27.5838 38.6627 27.4978 38.8157 27.3598C38.8957 27.2897 38.9588 27.2023 39 27.1043C39.0413 27.0062 39.0596 26.9 39.0537 26.7938V20.1108C39.4777 20.5748 40.0207 20.9188 40.6147 21.1248C41.3957 21.4168 42.2107 21.5548 43.0417 21.5548C43.9917 21.5548 44.9257 21.3818 45.7917 21.0048C46.6613 20.6422 47.447 20.1044 48.0997 19.4248C48.7768 18.7165 49.3076 17.8815 49.6617 16.9678C50.0638 15.9452 50.2598 14.8533 50.2387 13.7548C50.2513 12.6517 50.0556 11.5562 49.6617 10.5258C49.2963 9.62773 48.7662 8.80593 48.0987 8.10278H48.0997ZM45.4187 15.1798C45.2633 15.5947 45.0267 15.9745 44.7227 16.2968C44.4214 16.6206 44.056 16.8779 43.6496 17.0524C43.2432 17.2268 42.8049 17.3145 42.3627 17.3098C41.9047 17.3098 41.4637 17.2238 41.0567 17.0348C40.6549 16.8616 40.2913 16.6108 39.9867 16.2968C39.6832 15.9708 39.4416 15.5923 39.2737 15.1798C38.9344 14.2952 38.9344 13.3164 39.2737 12.4318C39.4267 12.0198 39.6817 11.6418 39.9867 11.3318C40.2938 11.0164 40.6566 10.7604 41.0567 10.5768C41.4645 10.3844 41.9118 10.2902 42.3627 10.3018C42.8217 10.3018 43.2627 10.3878 43.6867 10.5758C44.0767 10.7658 44.4337 11.0058 44.7397 11.3158C45.0447 11.6418 45.2657 12.0018 45.4357 12.4148C45.761 13.3088 45.7549 14.2898 45.4187 15.1798ZM66.2267 6.40178H63.2737C63.1714 6.40139 63.0701 6.42256 62.9766 6.46391C62.883 6.50527 62.7992 6.56587 62.7307 6.64178C62.6546 6.7189 62.5945 6.81027 62.5538 6.91066C62.5132 7.01104 62.4927 7.11847 62.4937 7.22678V7.58678C62.1222 7.15491 61.6657 6.80427 61.1527 6.55678C60.3495 6.16664 59.4654 5.97234 58.5727 5.98978C56.671 5.99304 54.8474 6.7462 53.4977 8.08578C52.8019 8.79236 52.2485 9.62617 51.8677 10.5418C51.4439 11.5649 51.2363 12.6646 51.2577 13.7718C51.2395 14.8787 51.4471 15.9777 51.8677 17.0018C52.2466 17.9143 52.7938 18.7475 53.4807 19.4578C54.1369 20.1339 54.9235 20.6697 55.793 21.0327C56.6624 21.3958 57.5965 21.5785 58.5387 21.5698C59.4387 21.5878 60.3207 21.3988 61.1357 21.0028C61.6447 20.7458 62.1197 20.4028 62.4937 19.9728V20.3678C62.4937 20.5738 62.5777 20.7798 62.7307 20.9348C62.8837 21.0718 63.0707 21.1578 63.2737 21.1578H66.2267C66.4342 21.1539 66.6332 21.0746 66.7867 20.9348C66.8602 20.8603 66.9177 20.7716 66.9557 20.6741C66.9937 20.5766 67.0114 20.4724 67.0077 20.3678V7.22678C67.0123 7.01611 66.9331 6.81221 66.7877 6.65978C66.7204 6.5767 66.6348 6.51023 66.5377 6.46549C66.4406 6.42075 66.3335 6.39895 66.2267 6.40178ZM62.2387 15.1628C62.0833 15.5777 61.8467 15.9575 61.5427 16.2798C61.2374 16.5893 60.8816 16.8446 60.4907 17.0348C59.6587 17.4128 58.6907 17.4128 57.8597 17.0348C57.4595 16.8511 57.0968 16.5952 56.7897 16.2798C56.4859 15.9574 56.2496 15.5777 56.0947 15.1628C55.7722 14.281 55.7722 13.3136 56.0947 12.4318C56.2467 12.0198 56.4847 11.6588 56.7907 11.3318C57.0957 11.0228 57.4517 10.7658 57.8597 10.5768C58.2729 10.3901 58.7212 10.2935 59.1747 10.2935C59.6281 10.2935 60.0764 10.3901 60.4897 10.5768C60.8807 10.7658 61.2377 11.0058 61.5427 11.3148C61.8317 11.6418 62.0687 12.0018 62.2387 12.4148C62.5787 13.3078 62.5787 14.2868 62.2387 15.1628ZM95.6757 13.3928C95.2502 13.0181 94.7616 12.7218 94.2327 12.5178C93.6723 12.2942 93.093 12.1215 92.5017 12.0018L90.2437 11.5558C89.6667 11.4528 89.2597 11.2978 89.0387 11.1088C88.9468 11.0449 88.8714 10.9602 88.8184 10.8617C88.7654 10.7632 88.7364 10.6536 88.7337 10.5418C88.7337 10.3018 88.8697 10.0958 89.1576 9.92378C89.5476 9.71778 89.9727 9.61378 90.4137 9.64878C90.9907 9.64878 91.5677 9.76878 92.0937 9.99178C92.6037 10.2158 93.1127 10.4738 93.5707 10.7818C94.2327 11.1948 94.7927 11.1258 95.1827 10.6618L96.2697 9.42578C96.4727 9.21878 96.5917 8.94478 96.6097 8.65278C96.6005 8.50233 96.5594 8.35556 96.489 8.22227C96.4187 8.08897 96.3207 7.97221 96.2017 7.87978C95.7427 7.48478 95.0136 7.05478 94.0457 6.64278C93.0787 6.23078 91.8557 6.00678 90.4137 6.00678C89.5335 5.99499 88.657 6.12256 87.8167 6.38478C87.0983 6.60634 86.4256 6.95522 85.8307 7.41478C85.2947 7.83438 84.8597 8.36883 84.5577 8.97878C84.2699 9.57347 84.1192 10.2251 84.1166 10.8858C84.1166 12.1058 84.4897 13.1018 85.2197 13.8398C85.9497 14.5788 86.9177 15.0598 88.1227 15.2998L90.4647 15.8158C90.9747 15.9018 91.4827 16.0558 91.9587 16.2798C92.2127 16.3828 92.3827 16.6398 92.3827 16.9318C92.3827 17.1898 92.2467 17.4298 91.9587 17.6368C91.6697 17.8428 91.1947 17.9798 90.5837 17.9798C89.9431 17.9907 89.3091 17.8495 88.7337 17.5678C88.1882 17.3046 87.6803 16.9696 87.2237 16.5718C87.0234 16.4033 86.7925 16.2749 86.5437 16.1938C86.2727 16.1078 85.9497 16.1938 85.5937 16.4858L84.3037 17.4648C84.1281 17.5913 83.992 17.765 83.9109 17.9656C83.8299 18.1663 83.8072 18.3858 83.8457 18.5988C83.9127 19.0288 84.2697 19.4568 84.9317 19.9558C86.5587 21.0542 88.4849 21.6241 90.4477 21.5878C91.3613 21.5996 92.2714 21.4722 93.1467 21.2098C93.8973 20.9829 94.6033 20.6283 95.2337 20.1618C95.7937 19.7318 96.2697 19.1818 96.5917 18.5468C96.9022 17.9221 97.0647 17.2344 97.0667 16.5368C97.0808 15.9098 96.9533 15.2877 96.6937 14.7168C96.4371 14.2178 96.0922 13.7686 95.6757 13.3928ZM108.575 16.9668C108.508 16.8495 108.416 16.7494 108.304 16.6747C108.191 16.6 108.063 16.5527 107.93 16.5368C107.659 16.5368 107.387 16.6228 107.166 16.7768C106.806 17.0131 106.39 17.1498 105.961 17.1728C105.825 17.1728 105.673 17.1558 105.537 17.1208C105.389 17.0912 105.254 17.0197 105.147 16.9148C105.011 16.7884 104.901 16.637 104.824 16.4688C104.728 16.2167 104.682 15.9484 104.688 15.6788V10.3188H108.524C108.748 10.3135 108.961 10.2209 109.118 10.0608C109.197 9.98919 109.261 9.90179 109.305 9.80416C109.349 9.70653 109.372 9.60082 109.373 9.49378V7.22778C109.374 7.1179 109.352 7.00898 109.308 6.90828C109.264 6.80758 109.199 6.71741 109.118 6.64378C108.964 6.49193 108.757 6.40587 108.541 6.40378H104.705V2.74378C104.711 2.63496 104.693 2.52612 104.652 2.42513C104.611 2.32413 104.548 2.2335 104.468 2.15978C104.32 2.02027 104.126 1.94074 103.924 1.93678H100.937C100.723 1.93261 100.515 2.01269 100.36 2.15978C100.201 2.31344 100.11 2.52327 100.106 2.74378V6.40378H98.4076C98.3009 6.40083 98.1948 6.42248 98.0977 6.46704C98.0006 6.5116 97.9151 6.57789 97.8477 6.66078C97.709 6.81744 97.6309 7.01857 97.6277 7.22778V9.49478C97.6277 9.70078 97.7117 9.90778 97.8477 10.0618C97.9123 10.1478 97.9974 10.2164 98.0951 10.2614C98.1929 10.3064 98.3002 10.3265 98.4076 10.3198H100.106V16.6928C100.089 17.4493 100.24 18.2002 100.547 18.8918C100.82 19.4569 101.207 19.9597 101.684 20.3688C102.159 20.7638 102.719 21.0388 103.296 21.2108C103.895 21.3967 104.519 21.4895 105.147 21.4858C105.972 21.4841 106.791 21.3504 107.574 21.0898C108.3 20.8477 108.957 20.4356 109.492 19.8878C109.654 19.7209 109.753 19.5025 109.771 19.2705C109.79 19.0384 109.727 18.8072 109.593 18.6168L108.575 16.9668ZM124.75 6.40178H121.797C121.694 6.40139 121.593 6.42256 121.5 6.46391C121.406 6.50527 121.322 6.56587 121.254 6.64178C121.177 6.71878 121.117 6.81011 121.076 6.91051C121.035 7.01091 121.015 7.11839 121.016 7.22678V7.58678C120.644 7.15463 120.188 6.80395 119.675 6.55678C118.866 6.16482 117.977 5.97048 117.079 5.98978C116.139 5.98984 115.209 6.17497 114.341 6.53461C113.473 6.89425 112.685 7.42134 112.021 8.08578C111.32 8.78802 110.765 9.62295 110.391 10.5418C109.969 11.5591 109.761 12.6525 109.78 13.7538C109.762 14.8608 109.97 15.9597 110.391 16.9838C110.765 17.8938 111.325 18.7358 112.004 19.4398C112.658 20.1149 113.442 20.6514 114.308 21.0173C115.174 21.3833 116.104 21.5711 117.045 21.5698C117.941 21.5865 118.828 21.3984 119.641 21.0198C120.151 20.7628 120.626 20.4198 120.999 19.9898V20.3678C121.001 20.5778 121.083 20.7778 121.229 20.9248C121.374 21.0723 121.572 21.1561 121.78 21.1578H124.75C124.955 21.1581 125.153 21.077 125.299 20.9322C125.446 20.7874 125.529 20.5906 125.531 20.3848V7.22778C125.533 7.12339 125.514 7.01958 125.477 6.9223C125.439 6.82501 125.382 6.73615 125.31 6.66078C125.242 6.57765 125.157 6.51113 125.06 6.46638C124.963 6.42164 124.857 6.39888 124.75 6.40178ZM120.762 15.1628C120.606 15.5776 120.369 15.9573 120.066 16.2798C119.76 16.5894 119.404 16.8447 119.013 17.0348C118.599 17.2291 118.146 17.3233 117.69 17.3098C117.231 17.3098 116.79 17.2068 116.383 17.0348C115.983 16.8511 115.62 16.5952 115.313 16.2798C115.009 15.9573 114.772 15.5776 114.617 15.1628C114.295 14.2809 114.295 13.3137 114.617 12.4318C114.773 12.0222 115.009 11.6481 115.313 11.3318C115.619 11.0228 115.975 10.7658 116.383 10.5768C116.793 10.3905 117.239 10.2966 117.69 10.3018C118.148 10.3018 118.589 10.3878 119.013 10.5758C119.404 10.7658 119.76 11.0058 120.066 11.3158C120.371 11.6418 120.609 12.0018 120.762 12.4148C121.118 13.2962 121.118 14.2813 120.762 15.1628ZM140.96 16.7778L139.262 15.4718C138.94 15.2148 138.634 15.1458 138.363 15.2488C138.124 15.3512 137.91 15.5036 137.735 15.6958C137.363 16.1454 136.929 16.5389 136.445 16.8638C135.936 17.1558 135.375 17.2938 134.798 17.2588C134.134 17.2662 133.485 17.0651 132.943 16.6838C132.397 16.3003 131.984 15.757 131.76 15.1288C131.606 14.6987 131.525 14.2456 131.523 13.7888C131.523 13.3248 131.59 12.8608 131.76 12.4148C131.913 12.0018 132.134 11.6248 132.439 11.3148C132.745 11.0058 133.101 10.7478 133.491 10.5758C133.906 10.3846 134.358 10.2853 134.815 10.2848C135.392 10.264 135.963 10.4068 136.462 10.6968C136.95 11.0166 137.385 11.4107 137.752 11.8648C137.921 12.0538 138.125 12.2078 138.363 12.3118C138.634 12.4148 138.94 12.3458 139.245 12.0878L140.943 10.7998C141.146 10.6618 141.316 10.4558 141.384 10.2158C141.432 10.0873 141.451 9.94976 141.439 9.81311C141.427 9.67645 141.385 9.54413 141.316 9.42578C140.661 8.40344 139.763 7.5593 138.702 6.96878C137.582 6.33378 136.241 6.00678 134.747 6.00678C133.693 6.00706 132.65 6.21115 131.675 6.60778C130.743 6.98824 129.895 7.54896 129.18 8.25778C128.462 8.96003 127.896 9.80163 127.517 10.7308C126.719 12.6972 126.719 14.8973 127.517 16.8638C127.907 17.7908 128.467 18.6328 129.18 19.3198C130.665 20.7755 132.667 21.5843 134.747 21.5698C136.241 21.5698 137.582 21.2438 138.702 20.6078C139.772 20.0165 140.676 19.1662 141.333 18.1348C141.402 18.0195 141.444 17.89 141.456 17.7561C141.468 17.6222 141.449 17.4873 141.401 17.3618C141.32 17.1249 141.165 16.9201 140.96 16.7778ZM156.676 19.8348L152.009 12.9808L155.998 7.70778C156.091 7.58746 156.155 7.44707 156.184 7.29777C156.213 7.14848 156.207 6.99439 156.167 6.84778C156.099 6.64278 155.913 6.41878 155.421 6.41878H152.264C152.082 6.42391 151.903 6.46468 151.737 6.53878C151.542 6.63693 151.382 6.79307 151.279 6.98578L148.088 11.4528H147.324V0.887779C147.326 0.783449 147.308 0.679671 147.27 0.58238C147.232 0.485089 147.176 0.396194 147.104 0.320779C147.03 0.248319 146.942 0.191284 146.846 0.152999C146.75 0.114714 146.647 0.0959425 146.544 0.0977791H143.59C143.382 0.101758 143.183 0.181008 143.03 0.320779C142.951 0.391947 142.889 0.479693 142.848 0.577724C142.807 0.675754 142.788 0.781637 142.793 0.887779V20.3678C142.793 20.5908 142.877 20.7978 143.03 20.9348C143.103 21.0073 143.191 21.0644 143.287 21.1027C143.383 21.141 143.486 21.1597 143.59 21.1578H146.544C146.751 21.1538 146.95 21.0745 147.104 20.9348C147.176 20.8594 147.232 20.7705 147.27 20.6732C147.308 20.5759 147.326 20.4721 147.324 20.3678V15.2148H148.173L151.652 20.5568C151.856 20.9348 152.247 21.1748 152.671 21.1748H155.981C156.49 21.1748 156.693 20.9348 156.778 20.7288C156.837 20.5832 156.859 20.425 156.842 20.2687C156.824 20.1124 156.767 19.9631 156.676 19.8348ZM83.0137 6.40178H79.7037C79.5812 6.39461 79.4587 6.41395 79.3445 6.45848C79.2302 6.50301 79.1269 6.57167 79.0417 6.65978C78.892 6.81208 78.7866 7.00219 78.7367 7.20978L76.2917 16.3138H75.6987L73.0857 7.20978C73.0359 7.01732 72.9493 6.83632 72.8307 6.67678C72.7586 6.58936 72.6678 6.51926 72.565 6.47166C72.4621 6.42406 72.3499 6.40018 72.2367 6.40178H68.8077C68.3677 6.40178 68.0956 6.53978 67.9767 6.83178C67.8917 7.08878 67.8917 7.38178 67.9767 7.63878L72.1687 20.4368C72.2367 20.6258 72.3386 20.8148 72.4916 20.9518C72.6616 21.1068 72.8817 21.1918 73.1187 21.1748H74.8847L74.7317 21.5878L74.3417 22.7728C74.2217 23.1328 74.0017 23.4598 73.6967 23.6998C73.4145 23.9166 73.0674 24.0318 72.7117 24.0268C72.4067 24.0268 72.1017 23.9578 71.8297 23.8368C71.5509 23.7159 71.2885 23.5603 71.0487 23.3738C70.8306 23.2182 70.5695 23.1343 70.3017 23.1338H70.2677C70.1141 23.1414 69.9651 23.1879 69.8344 23.2689C69.7038 23.3499 69.5958 23.4627 69.5207 23.5968L68.4687 25.1428C68.0447 25.8128 68.2817 26.2428 68.5537 26.4828C69.1149 27.0012 69.7804 27.3936 70.5057 27.6338C71.3088 27.908 72.1519 28.0473 73.0007 28.0458C74.5107 28.0458 75.7837 27.6338 76.7507 26.8098C77.7605 25.9231 78.4966 24.7669 78.8727 23.4768L83.7276 7.63878C83.8297 7.36378 83.8467 7.07178 83.7447 6.79678C83.6597 6.60778 83.4717 6.40178 83.0137 6.40178Z" fill="#011B33"/>
</g>
<defs>
<clipPath id="clip0_2201_34081">
<rect width="157" height="28" fill="white" transform="translate(0 0.0976562)"/>
</clipPath>
</defs>
</svg>
