<svg width="119" height="38" viewBox="0 0 119 38" fill="none" xmlns="http://www.w3.org/2000/svg">
<path d="M116.06 31.1716C116 31.1514 115.982 31.1646 115.964 31.1956C115.519 31.9494 114.822 32.3588 113.998 32.5201C112.539 32.8094 111.18 32.5294 109.98 31.6361C108.99 30.8994 108.435 29.8827 108.274 28.6714C108.095 27.4463 108.287 26.1957 108.826 25.0809C109.612 23.4524 110.914 22.4715 112.671 22.0915C113.383 21.9278 114.118 21.891 114.842 21.9829C116.65 22.2303 117.88 23.2074 118.548 24.8941C118.781 25.4647 118.902 26.075 118.904 26.6916C118.891 28.507 118.969 30.3201 119 32.1347C119.015 32.851 118.893 33.5636 118.641 34.2339C118.059 35.7725 116.988 36.8209 115.43 37.3405C114.175 37.7639 112.822 37.799 111.546 37.4413C111.075 37.3178 110.631 37.11 110.234 36.8279C109.563 36.3456 109.185 35.7136 109.225 34.8629C109.239 34.5635 109.225 34.2626 109.229 33.9625C109.229 33.9036 109.243 33.8416 109.303 33.8222C109.332 33.816 109.361 33.8181 109.389 33.8281C109.416 33.8381 109.44 33.8557 109.458 33.8788C109.729 34.1341 110.04 34.3437 110.379 34.4992C110.845 34.7159 111.34 34.868 111.847 34.9513C112.365 35.0381 112.891 35.0673 113.415 35.0381C113.845 35.0242 114.268 34.9366 114.668 34.7791C115.431 34.4689 115.887 33.9005 116.047 33.101C116.132 32.6932 116.153 32.2744 116.107 31.8602C116.082 31.6299 116.075 31.3934 116.06 31.1716ZM116.005 27.2942C116.005 26.5916 115.927 26.1542 115.734 25.7261C115.353 24.8677 114.621 24.4714 113.707 24.518C112.793 24.5645 112.078 25.0189 111.632 25.8277C111.386 26.2567 111.239 26.735 111.201 27.228C111.163 27.721 111.236 28.2162 111.413 28.6776C111.783 29.6858 112.731 30.3899 114.094 30.1061C114.947 29.9277 115.49 29.3725 115.795 28.5729C115.944 28.1643 116.015 27.7314 116.005 27.2965V27.2942Z" fill="#686767"/>
<path d="M52.9829 22.8269C52.8759 22.8176 52.8278 22.7377 52.7681 22.6811C51.9818 21.9552 51.038 21.5954 49.9896 21.4667C49.365 21.39 48.7333 21.3913 48.109 21.4706C47.6814 21.5111 47.2642 21.6268 46.8768 21.8126C46.2417 22.1383 45.933 22.6547 45.954 23.3728C45.9561 23.5376 45.9939 23.7001 46.0647 23.8489C46.1355 23.9978 46.2377 24.1295 46.3642 24.2352C46.5613 24.401 46.7826 24.536 47.0203 24.6353C47.5597 24.8632 48.1188 25.0415 48.6907 25.1681C49.1761 25.2844 49.6662 25.3852 50.1478 25.5178C50.799 25.6902 51.4135 25.9792 51.9616 26.3708C52.7495 26.9431 53.28 27.6977 53.3963 28.6686C53.6576 30.8167 52.8023 32.8787 50.4394 33.7425C49.3754 34.1303 48.268 34.2233 47.1451 34.1349C46.5885 34.1036 46.0377 34.0047 45.505 33.8403C45.1369 33.7257 44.7866 33.5602 44.4643 33.3486C43.7253 32.8461 43.3406 32.1489 43.322 31.2548C43.3135 30.8547 43.322 30.4545 43.322 30.0544C43.322 29.9652 43.3949 29.9272 43.4639 29.9768C43.5554 30.0451 43.6415 30.1211 43.7315 30.1908C45.0979 31.2517 46.6418 31.6643 48.3557 31.4642C48.7263 31.4304 49.0901 31.3434 49.4359 31.2059C49.8174 31.0446 50.1292 30.8027 50.3037 30.4181C50.5138 29.9528 50.5185 29.4743 50.4021 28.992C50.3432 28.7484 50.1695 28.5693 49.9725 28.4196C49.7515 28.2611 49.5092 28.1345 49.2529 28.0435C48.5959 27.8055 47.9219 27.6173 47.2366 27.4805C46.7184 27.3772 46.2086 27.2357 45.7113 27.0571C45.1586 26.8595 44.6438 26.5689 44.189 26.1979C43.2987 25.4488 42.9219 24.4779 43.0134 23.3449C43.1793 21.3511 44.2875 20.0359 46.0819 19.2566C46.714 18.9854 47.3914 18.8352 48.0788 18.8138C48.9086 18.782 49.736 18.7967 50.5495 18.9945C50.9963 19.0944 51.425 19.2626 51.8205 19.4931C52.2331 19.7278 52.5704 20.075 52.7929 20.4942C52.9197 20.7196 52.9942 20.9706 53.0109 21.2286C53.024 21.728 53.0279 22.2282 53.0318 22.7284C53.0318 22.7594 53.0031 22.7951 52.9829 22.8269Z" fill="#686767"/>
<path d="M67.7999 29.2967C67.2718 29.2967 66.7429 29.2967 66.214 29.2967C66.0527 29.2967 66.0101 29.3525 66.0442 29.5084C66.1284 29.9013 66.3079 30.2674 66.5669 30.5747C67.0368 31.1338 67.6479 31.4486 68.3505 31.606C68.9306 31.7363 69.5137 31.7138 70.1 31.665C70.5418 31.6294 70.9781 31.5436 71.4005 31.4091C71.9068 31.2525 72.3776 30.9983 72.7862 30.6607C72.8746 30.5832 72.9623 30.6251 72.9623 30.7344C72.9623 31.1485 72.9871 31.5618 72.9188 31.9752C72.8762 32.2658 72.7735 32.5443 72.6171 32.7929C72.4607 33.0415 72.2542 33.2548 72.0108 33.4191C71.5954 33.7011 71.1249 33.8917 70.6304 33.9782C69.758 34.1488 68.8801 34.221 67.9891 34.1039C65.8589 33.8255 63.8387 32.2885 63.2067 29.9326C63.0107 29.2001 62.9435 28.4391 63.0082 27.6837C63.0517 27.0134 63.1796 26.3514 63.389 25.7132C63.8132 24.4864 64.5305 23.4806 65.6379 22.778C66.3753 22.3127 67.1849 22.0638 68.0512 21.966C68.9479 21.8518 69.8588 21.9817 70.6878 22.3422C72.0728 22.9532 72.9599 23.9932 73.2864 25.4821C73.4091 25.998 73.4268 26.5334 73.3384 27.0563C73.2244 27.6767 72.9188 28.1714 72.3861 28.5189C71.9967 28.7602 71.5682 28.9316 71.1197 29.0252C70.4363 29.1785 69.7394 29.2637 69.0391 29.2796C68.625 29.292 68.2109 29.2796 67.7984 29.2796L67.7999 29.2967ZM67.4525 27.2354C68.031 27.2292 68.6584 27.2354 69.2818 27.1463C69.5792 27.1119 69.8706 27.0376 70.1481 26.9252C70.3029 26.8658 70.4354 26.7597 70.5273 26.6216C70.6191 26.4835 70.6657 26.3202 70.6607 26.1544C70.67 25.4914 70.4063 24.9074 69.7301 24.6035C69.1258 24.3316 68.4461 24.2768 67.8061 24.4484C67.0345 24.6484 66.5297 25.168 66.2164 25.8861C66.0652 26.2312 66.0217 26.5995 65.9892 26.9718C65.969 27.1959 65.993 27.2285 66.2071 27.2308C66.6057 27.2385 67.005 27.2354 67.4525 27.2354Z" fill="#686767"/>
<path d="M106.414 30.0552C106.414 31.1408 106.414 32.2265 106.414 33.3122C106.414 33.3983 106.414 33.4843 106.414 33.5696C106.407 33.893 106.401 33.9 106.072 33.9031C105.729 33.9031 105.385 33.9155 105.048 33.8356C104.31 33.6611 103.789 33.2463 103.569 32.501C103.503 32.2785 103.512 32.0481 103.512 31.8194C103.512 30.3754 103.512 28.9318 103.512 27.4883C103.517 27.0447 103.469 26.602 103.368 26.17C103.31 25.9336 103.22 25.7064 103.099 25.4953C102.888 25.1166 102.547 24.8271 102.138 24.6803C101.64 24.4894 101.095 24.4577 100.578 24.5896C100.129 24.7007 99.7395 24.9778 99.487 25.3651C99.2647 25.6996 99.1227 26.081 99.0722 26.4794C99.0291 26.7909 99.0074 27.1049 99.007 27.4193C99.0106 29.4211 99.0106 31.4223 99.007 33.4231C99.007 33.9473 99.0411 33.9031 98.5154 33.9031C98.2299 33.9139 97.944 33.8952 97.6623 33.8473C96.7791 33.6674 96.2238 33.0718 96.1292 32.1831C96.1138 32.0267 96.1066 31.8695 96.1075 31.7124C96.1075 30.1821 96.1075 28.6526 96.1075 27.1238C96.1075 26.5035 96.1657 25.8955 96.3595 25.3053C96.862 23.7769 97.8647 22.7315 99.401 22.2329C100.556 21.8583 101.727 21.8048 102.905 22.1429C104.753 22.6757 105.851 23.9149 106.275 25.7745C106.373 26.252 106.42 26.7387 106.413 27.2262C106.418 28.1676 106.414 29.1114 106.414 30.0552Z" fill="#676767"/>
<path d="M55.4013 26.1835C55.4013 24.9962 55.4013 23.8097 55.4013 22.6232C55.3962 22.3946 55.4086 22.166 55.4385 21.9393C55.5866 20.9862 56.1496 20.3061 56.9119 19.7726C57.2857 19.512 57.7199 19.5175 58.1527 19.5523C58.189 19.5545 58.223 19.571 58.2473 19.5982C58.2715 19.6253 58.2841 19.661 58.2822 19.6974C58.2876 19.7974 58.2876 19.8974 58.2876 19.9975C58.2876 20.569 58.2876 21.1413 58.2876 21.7128C58.2876 21.8129 58.2876 21.9129 58.2876 22.0129C58.2848 22.0344 58.2868 22.0562 58.2934 22.0768C58.3001 22.0974 58.3112 22.1162 58.3261 22.132C58.3409 22.1477 58.3591 22.16 58.3793 22.1678C58.3995 22.1757 58.4211 22.1789 58.4427 22.1773C58.5575 22.1773 58.6715 22.182 58.7855 22.182H61.7881C61.8742 22.182 61.9595 22.182 62.0456 22.182C62.324 22.1882 62.3302 22.1929 62.3348 22.4759C62.3348 22.7194 62.3348 22.9621 62.3348 23.2049C62.3294 24.0315 61.8292 24.6139 61.0103 24.7326C60.7977 24.7601 60.5834 24.7733 60.369 24.7721C59.8401 24.7775 59.3112 24.7721 58.7824 24.7721C58.6823 24.7721 58.5823 24.7721 58.4822 24.7721C58.3434 24.7799 58.2985 24.821 58.2899 24.9474C58.2837 25.0327 58.2853 25.1187 58.2853 25.2048C58.2853 26.5624 58.2853 27.9206 58.2853 29.2792C58.2742 29.6081 58.3089 29.9369 58.3884 30.2563C58.5885 30.9542 59.0173 31.342 59.7664 31.4102C60.5675 31.4785 61.367 31.4366 62.1169 31.083C62.2759 31.0054 62.3302 31.0419 62.3325 31.2086C62.3325 31.5188 62.3441 31.8383 62.3325 32.1516C62.2961 32.9069 61.9324 33.4451 61.2375 33.756C60.9767 33.8746 60.6983 33.9495 60.4132 33.9778C59.6113 34.0554 58.8134 34.0244 58.0356 33.7871C56.7374 33.3923 55.9224 32.5285 55.5765 31.221C55.4539 30.7501 55.3934 30.2652 55.3966 29.7786C55.3966 28.5782 55.3966 27.3775 55.3966 26.1765L55.4013 26.1835Z" fill="#686868"/>
<path d="M83.0254 24.6912C83.0254 22.6904 83.0254 20.6902 83.0254 18.6905C83.0254 18.2795 83.0123 18.2958 83.4256 18.2973C83.6404 18.2973 83.8544 18.2973 84.0685 18.302C84.3118 18.3084 84.5522 18.3561 84.7796 18.4431C85.3651 18.6541 85.7156 19.0736 85.8652 19.6715C85.9205 19.9227 85.945 20.1797 85.9381 20.4369C85.9381 23.5512 85.9381 26.6655 85.9381 29.7799C85.9381 29.98 85.9381 30.1808 85.9513 30.3793C86.0002 30.9811 86.3135 31.3572 86.8904 31.5115C87.139 31.5783 87.3954 31.6117 87.6527 31.6108C87.9389 31.6108 88.2243 31.6108 88.5104 31.6154C88.6058 31.6154 88.6802 31.6527 88.6833 31.7597C88.6942 32.1474 88.7105 32.5352 88.6058 32.9089C88.5538 33.1255 88.4478 33.3253 88.2977 33.4898C88.1476 33.6543 87.9582 33.7781 87.7473 33.8496C87.5477 33.9238 87.3391 33.971 87.127 33.99C86.485 34.0488 85.8378 33.9816 85.2216 33.7922C84.0467 33.42 83.3783 32.6011 83.1278 31.413C83.0576 31.048 83.0259 30.6766 83.0332 30.3049C83.0285 28.4339 83.026 26.5627 83.0254 24.6912Z" fill="#686868"/>
<path d="M78.0182 30.1695C78.0182 31.2857 78.0182 32.4011 78.0182 33.5157C78.0182 33.9034 78.0135 33.9034 77.6452 33.9034C77.2768 33.9034 76.9015 33.9112 76.5355 33.8259C75.8771 33.6785 75.3847 33.3327 75.1753 32.6627C75.1084 32.4435 75.0752 32.2155 75.0768 31.9864C75.0768 30.185 75.0683 28.3836 75.0822 26.5821C75.0758 25.8214 75.2345 25.0684 75.5475 24.3751C76.1361 23.1111 77.1264 22.3821 78.4943 22.1549C79.0584 22.0502 79.6372 22.0526 80.2004 22.1619C80.4674 22.2136 80.7234 22.3118 80.9565 22.4519C81.2185 22.6025 81.4365 22.819 81.589 23.0799C81.7415 23.3408 81.8231 23.6371 81.8258 23.9393C81.8367 24.2247 81.8312 24.5108 81.8258 24.797C81.8258 25.0048 81.77 25.0374 81.5583 24.9707C81.4629 24.9412 81.3698 24.9032 81.2744 24.873C80.7274 24.6994 80.1489 24.6486 79.58 24.7241C78.9271 24.8109 78.4765 25.163 78.2346 25.7748C78.1255 26.0399 78.062 26.3215 78.0469 26.6077C78.0329 26.9357 78.0213 27.2645 78.0205 27.5933C78.0159 28.4518 78.0182 29.3095 78.0182 30.1695Z" fill="#686868"/>
<path d="M89.8097 26.7723C89.8097 25.456 89.8097 24.1405 89.8097 22.8258C89.8097 22.4451 89.8097 22.4443 90.1796 22.4381C90.5225 22.4236 90.866 22.4441 91.2048 22.4994C91.9725 22.6545 92.4455 23.1089 92.6309 23.8634C92.695 24.1431 92.7249 24.4296 92.72 24.7165C92.7164 26.4323 92.7164 28.1482 92.72 29.8641C92.72 30.0494 92.7154 30.2363 92.7332 30.4209C92.7883 30.9831 93.0388 31.4081 93.7204 31.5469C94.0304 31.5979 94.3447 31.6182 94.6587 31.6074C95.0411 31.6074 95.0395 31.6035 95.0372 31.9843C95.0483 32.2986 95.0252 32.6133 94.9682 32.9226C94.8456 33.4654 94.5285 33.8043 93.9818 33.9307C93.8011 33.973 93.6166 33.9969 93.4312 34.0021C92.9734 34.0169 92.5159 33.9646 92.0733 33.847C90.9876 33.5492 90.3021 32.845 89.9904 31.7733C89.8649 31.3326 89.8037 30.876 89.8089 30.4178C89.8089 29.2026 89.8089 27.9874 89.8089 26.773L89.8097 26.7723Z" fill="#686868"/>
<path d="M89.5491 19.6515C89.5501 19.2046 89.728 18.7763 90.0439 18.4603C90.3599 18.1442 90.7881 17.9661 91.235 17.9648C92.1748 17.9648 92.9813 18.7566 92.9519 19.6779C92.9458 20.1263 92.7645 20.5546 92.4466 20.8709C92.1288 21.1873 91.6997 21.3667 91.2513 21.3708C91.0258 21.3723 90.8024 21.3288 90.594 21.2428C90.3857 21.1567 90.1966 21.0299 90.038 20.8697C89.8794 20.7095 89.7545 20.5192 89.6705 20.31C89.5865 20.1008 89.5452 19.8769 89.5491 19.6515Z" fill="#686868"/>
<path d="M67.4542 27.2437C67.0068 27.2437 66.6074 27.2437 66.208 27.2437C65.994 27.2437 65.97 27.2088 65.9901 26.9847C66.0227 26.6148 66.0677 26.2464 66.2173 25.899C66.5275 25.1809 67.0355 24.6583 67.8071 24.4613C68.4471 24.2898 69.1267 24.3446 69.731 24.6164C70.408 24.9173 70.6717 25.5012 70.6616 26.1673C70.6667 26.3331 70.6201 26.4964 70.5282 26.6345C70.4364 26.7726 70.3039 26.8787 70.149 26.9382C69.8716 27.0489 69.5805 27.1216 69.2836 27.1545C68.6601 27.246 68.0327 27.2375 67.4542 27.2437Z" fill="#FCFCFC"/>
<path d="M36.9998 19.0283C37.0442 29.0079 28.9449 37.5099 18.5165 37.5234C8.34267 37.5353 -0.00792164 29.3338 5.63941e-06 19.0093C0.00793292 8.55002 8.525 0.490358 18.534 0.511761C28.7816 0.533165 37.0497 8.89882 36.9998 19.0283ZM19.2308 11.7217C19.1983 14.7071 21.7009 17.1265 24.634 17.1257C27.4379 17.1257 30.0325 14.8617 30.0388 11.7138C30.0452 8.53654 27.4498 6.28837 24.661 6.28282C21.7786 6.27727 19.1967 8.67923 19.2308 11.7217Z" fill="#DB353A"/>
<path d="M19.2308 11.7241C19.1967 8.68158 21.7786 6.27962 24.661 6.28517C27.4498 6.29071 30.0452 8.53889 30.0388 11.7161C30.0325 14.8641 27.4379 17.1281 24.634 17.1281C21.7009 17.1281 19.1983 14.7095 19.2308 11.7241Z" fill="#FFFEFE"/>
</svg>
