<svg width="139" height="75" viewBox="0 0 139 75" fill="none" xmlns="http://www.w3.org/2000/svg">
<path opacity="0.998" fill-rule="evenodd" clip-rule="evenodd" d="M118.732 47.453C118.626 47.448 118.556 47.4943 118.523 47.5921C118.523 47.6385 118.5 47.6616 118.454 47.6616C118.348 47.6566 118.278 47.703 118.245 47.8007C118.139 47.7956 118.069 47.842 118.037 47.9398C117.238 48.4899 116.427 49.0231 115.603 49.5391C115.444 49.5833 115.328 49.676 115.255 49.8172C114.235 50.4894 113.216 51.1615 112.196 51.8337C112.079 51.8188 112.009 51.8652 111.987 51.9728C111.451 52.3686 110.895 52.7395 110.318 53.0854C110.212 53.0803 110.142 53.1267 110.11 53.2244C110.003 53.2194 109.934 53.2657 109.901 53.3635C109.868 53.4613 109.799 53.5076 109.693 53.5026C109.586 53.4975 109.517 53.5439 109.484 53.6416C108.884 54.0347 108.281 54.4288 107.676 54.8237C107.528 54.8275 107.435 54.897 107.398 55.0323C107.336 55.0747 107.266 55.0979 107.189 55.1019C107.072 55.0869 107.003 55.1333 106.981 55.2409C106.958 55.2409 106.934 55.2409 106.911 55.2409C106.586 55.2813 106.285 55.374 106.007 55.5191C105.812 55.576 105.603 55.6108 105.381 55.6234C77.8922 55.6698 50.4025 55.6698 22.9131 55.6234C22.2348 55.6093 21.609 55.4355 21.0357 55.1019C21.0028 55.0041 20.9333 54.9577 20.8271 54.9628C20.7581 54.9748 20.7118 54.9515 20.688 54.8933C20.6551 54.7955 20.5856 54.7491 20.4794 54.7542C19.9683 54.4053 19.5511 53.9648 19.2278 53.433C19.2021 53.2406 19.1093 53.1016 18.9497 53.0158C18.9072 52.9539 18.8841 52.8843 18.8801 52.8072C18.904 52.6693 18.8576 52.5766 18.741 52.5291C18.6388 52.2125 18.5576 51.888 18.4977 51.5556C18.4513 41.8903 18.4513 32.2249 18.4977 22.5596C18.7852 20.8136 19.7239 19.5736 21.3138 18.8395C21.761 18.6619 22.2246 18.5461 22.7045 18.4918C53.8793 18.4454 85.0543 18.4454 116.229 18.4918C117.955 18.7352 119.218 19.6276 120.018 21.1689C120.233 21.6814 120.372 22.2146 120.436 22.7682C120.482 29.9303 120.482 37.0924 120.436 44.2544C120.285 45.5522 119.717 46.6184 118.732 47.453Z" fill="#46B1C7"/>
<path fill-rule="evenodd" clip-rule="evenodd" d="M56.7773 27.8475C57.3673 27.7784 57.9699 27.7553 58.5852 27.7779C58.5852 27.8706 58.5852 27.9634 58.5852 28.0561C58.5224 28.0068 58.4992 27.9372 58.5157 27.8475C57.9363 27.8475 57.3568 27.8475 56.7773 27.8475Z" fill="#BFE4EC"/>
<path fill-rule="evenodd" clip-rule="evenodd" d="M64.9798 27.9859C64.4282 27.8491 63.8487 27.8027 63.2414 27.8469C63.26 27.9581 63.2368 28.0508 63.1719 28.125C63.1719 28.0091 63.1719 27.8933 63.1719 27.7773C63.7977 27.7773 64.4235 27.7773 65.0493 27.7773C65.0658 27.8671 65.0426 27.9366 64.9798 27.9859Z" fill="#BBE2EA"/>
<path fill-rule="evenodd" clip-rule="evenodd" d="M81.6694 27.8481C80.2536 27.8282 78.84 27.8514 77.4277 27.9176C77.4806 27.8642 77.5501 27.8295 77.6363 27.8133C78.9923 27.7557 80.3371 27.7673 81.6694 27.8481Z" fill="#DAF0F4"/>
<path fill-rule="evenodd" clip-rule="evenodd" d="M32.3682 39.2509C32.2988 41.58 32.2756 43.921 32.2987 46.2739C31.7424 46.2739 31.1861 46.2739 30.6299 46.2739C30.6529 43.8978 30.6297 41.5336 30.5603 39.1813C29.4649 35.384 28.3523 31.5827 27.2227 27.7776C27.8659 27.7555 28.5033 27.7787 29.1349 27.8472C29.8803 30.5705 30.6684 33.2824 31.499 35.9827C32.3156 33.2648 33.1616 30.5529 34.0371 27.8472C34.6629 27.7545 35.2887 27.7545 35.9145 27.8472C34.7312 31.6518 33.5491 35.4529 32.3682 39.2509Z" fill="#C5E7EF"/>
<path fill-rule="evenodd" clip-rule="evenodd" d="M39.2544 27.7764C40.6946 27.7457 42.1317 27.7805 43.5656 27.8807C44.4703 28.1828 45.0382 28.797 45.2692 29.7234C45.3156 34.5908 45.3156 39.4582 45.2692 44.3257C45.0258 45.4035 44.3652 46.064 43.2875 46.3074C41.8468 46.3737 40.4098 46.3505 38.9763 46.2379C38.1417 45.9132 37.597 45.3222 37.3422 44.4647C37.2275 39.5998 37.2043 34.7324 37.2727 29.8624C37.5451 28.7906 38.2057 28.0952 39.2544 27.7764Z" fill="#C5E7EF"/>
<path fill-rule="evenodd" clip-rule="evenodd" d="M48.9864 44.2579C49.0465 44.3405 49.116 44.4216 49.195 44.5012C50.5393 44.5476 51.8837 44.5476 53.228 44.5012C53.307 44.4216 53.3766 44.3405 53.4366 44.2579C53.5061 38.7995 53.5293 33.3294 53.5062 27.8477C54.0625 27.8477 54.6187 27.8477 55.175 27.8477C55.175 33.4568 55.175 39.0659 55.175 44.6751C54.9197 45.5904 54.3172 46.135 53.3671 46.3091C51.93 46.3555 50.493 46.3555 49.056 46.3091C48.0805 46.1333 47.4779 45.5654 47.248 44.6055C47.248 39.0196 47.248 33.4336 47.248 27.8477C47.8043 27.8477 48.3606 27.8477 48.9169 27.8477C48.8937 33.3294 48.917 38.7995 48.9864 44.2579Z" fill="#C6E7EF"/>
<path fill-rule="evenodd" clip-rule="evenodd" d="M48.9865 44.2571C48.917 38.7987 48.8938 33.3287 48.917 27.8469C48.3607 27.8469 47.8044 27.8469 47.2481 27.8469C47.2481 33.4328 47.2481 39.0188 47.2481 44.6048C47.1787 39.0073 47.1554 33.3982 47.1786 27.7773C47.7813 27.7773 48.3838 27.7773 48.9865 27.7773C48.9865 33.2706 48.9865 38.7638 48.9865 44.2571Z" fill="#A4D9E5"/>
<path fill-rule="evenodd" clip-rule="evenodd" d="M55.1759 44.6743C55.1759 39.0651 55.1759 33.456 55.1759 27.8469C54.6196 27.8469 54.0633 27.8469 53.507 27.8469C53.5302 33.3287 53.507 38.7987 53.4375 44.2571C53.4375 38.7638 53.4375 33.2706 53.4375 27.7773C54.0402 27.7773 54.6427 27.7773 55.2454 27.7773C55.2686 33.4213 55.2453 39.0537 55.1759 44.6743Z" fill="#ABDCE6"/>
<path fill-rule="evenodd" clip-rule="evenodd" d="M56.7773 27.8482C57.3568 27.8482 57.9363 27.8482 58.5157 27.8482C58.4992 27.938 58.5224 28.0075 58.5852 28.0568C59.2229 33.4594 59.8835 38.8599 60.567 44.2584C60.6828 44.4586 60.8567 44.5165 61.0885 44.4322C61.1279 44.363 61.1742 44.3051 61.2276 44.2584C61.3442 43.906 61.3906 43.5351 61.3666 43.1458C61.3454 42.9452 61.3685 42.7598 61.4362 42.5896C61.5529 42.2372 61.5992 41.8663 61.5752 41.477C62.1083 37.0268 62.6414 32.5766 63.1745 28.1263C63.2395 28.0521 63.2627 27.9594 63.2441 27.8482C63.8514 27.804 64.4308 27.8504 64.9824 27.9873C64.797 29.5866 64.6116 31.1859 64.4262 32.7852C64.3351 33.1876 64.2887 33.6048 64.2871 34.0368C63.9943 35.9071 63.7625 37.7846 63.5918 39.6691C63.4853 39.9994 63.4389 40.3471 63.4527 40.7121C63.3443 42.1631 63.1473 43.6002 62.8616 45.0233C62.1336 46.2626 61.1021 46.5987 59.7673 46.0315C59.0934 45.5764 58.7341 44.9391 58.6895 44.1193C58.5391 43.0089 58.4116 41.8964 58.3071 40.7817C58.311 40.4179 58.2646 40.0702 58.168 39.7386C58.1719 39.2899 58.1255 38.8494 58.029 38.4175C58.0215 38.0552 57.9751 37.7075 57.8899 37.3744C57.5321 34.1973 57.1612 31.0219 56.7773 27.8482Z" fill="#FDFEFE"/>
<path fill-rule="evenodd" clip-rule="evenodd" d="M66.6505 27.7773C66.6505 33.9428 66.6505 40.1082 66.6505 46.2736C69.0147 46.2736 71.3788 46.2736 73.743 46.2736C71.3677 46.343 68.9802 46.3662 66.5809 46.3431C66.5578 40.1428 66.581 33.9543 66.6505 27.7773Z" fill="#B7E1EA"/>
<path fill-rule="evenodd" clip-rule="evenodd" d="M66.6504 27.7773C69.0146 27.7773 71.3788 27.7773 73.7429 27.7773C73.7429 28.38 73.7429 28.9826 73.7429 29.5852C71.958 29.5852 70.1737 29.5852 68.3888 29.5852C68.3888 32.4826 68.3888 35.3798 68.3888 38.2771C69.4782 38.2771 70.5673 38.2771 71.6569 38.2771C71.6569 38.8565 71.6569 39.436 71.6569 40.0155C70.5673 40.0155 69.4782 40.0155 68.3888 40.0155C68.3888 41.5221 68.3888 43.0286 68.3888 44.5352C70.1737 44.5352 71.958 44.5352 73.7429 44.5352C73.7429 45.1147 73.7429 45.6942 73.7429 46.2736C71.3788 46.2736 69.0146 46.2736 66.6504 46.2736C66.6504 40.1082 66.6504 33.9428 66.6504 27.7773Z" fill="#FDFEFE"/>
<path fill-rule="evenodd" clip-rule="evenodd" d="M81.6694 27.8467C82.613 28.0237 83.2736 28.5568 83.6512 29.446C83.7047 31.0113 83.6936 32.5759 83.6164 34.1396C83.3091 35.844 82.4976 37.2578 81.1827 38.3813C80.7398 38.695 80.2996 39.0079 79.8615 39.32C81.3913 41.6378 82.9211 43.9556 84.4508 46.2734C83.7325 46.3661 83.0136 46.3661 82.2953 46.2734C80.9393 44.2106 79.5834 42.1477 78.2275 40.0849C78.1127 39.9786 77.9737 39.9322 77.8103 39.9458C77.6914 39.9463 77.5871 39.9696 77.4974 40.0153C77.4278 42.0895 77.4049 44.1755 77.4278 46.2734C76.8486 46.2734 76.2687 46.2734 75.6895 46.2734C75.6895 40.8497 75.6895 35.426 75.6895 30.0023C75.8132 28.9279 76.3931 28.2326 77.4278 27.9163C78.8401 27.85 80.2537 27.8268 81.6694 27.8467Z" fill="#FDFEFE"/>
<path fill-rule="evenodd" clip-rule="evenodd" d="M86.3262 27.7773C86.3262 33.9428 86.3262 40.1082 86.3262 46.2736C86.9054 46.2736 87.4853 46.2736 88.0645 46.2736C87.4749 46.3426 86.872 46.3658 86.2566 46.3431C86.2337 40.1428 86.2566 33.9543 86.3262 27.7773Z" fill="#97D4DF"/>
<path fill-rule="evenodd" clip-rule="evenodd" d="M86.3262 27.7773C86.9054 27.7773 87.4853 27.7773 88.0645 27.7773C88.0645 33.9428 88.0645 40.1082 88.0645 46.2736C87.4853 46.2736 86.9054 46.2736 86.3262 46.2736C86.3262 40.1082 86.3262 33.9428 86.3262 27.7773Z" fill="#FEFEFE"/>
<path fill-rule="evenodd" clip-rule="evenodd" d="M90.2207 27.7773C90.2207 27.8005 90.2207 27.8237 90.2207 27.8469C90.2207 33.9891 90.2207 40.1314 90.2207 46.2736C90.7999 46.2736 91.3799 46.2736 91.9591 46.2736C91.9591 46.2967 91.9591 46.32 91.9591 46.3431C91.3562 46.3431 90.754 46.3431 90.1512 46.3431C90.1282 40.1428 90.1512 33.9543 90.2207 27.7773Z" fill="#BDE3EB"/>
<path fill-rule="evenodd" clip-rule="evenodd" d="M90.2207 27.8477C92.5849 27.8477 94.9491 27.8477 97.3132 27.8477C97.3132 28.4039 97.3132 28.9602 97.3132 29.5165C95.5394 29.4935 93.7781 29.5166 92.0286 29.586C91.9591 32.4715 91.9361 35.3687 91.9591 38.2779C93.0487 38.2779 94.1376 38.2779 95.2272 38.2779C95.2272 38.8573 95.2272 39.4368 95.2272 40.0162C94.1376 40.0162 93.0487 40.0162 91.9591 40.0162C91.9591 42.1023 91.9591 44.1883 91.9591 46.2744C91.3798 46.2744 90.7999 46.2744 90.2207 46.2744C90.2207 40.1322 90.2207 33.9899 90.2207 27.8477Z" fill="#FEFEFE"/>
<path fill-rule="evenodd" clip-rule="evenodd" d="M103.503 39.2509C103.433 41.58 103.411 43.921 103.433 46.2739C102.854 46.2739 102.274 46.2739 101.695 46.2739C101.707 43.9096 101.695 41.5454 101.66 39.1813C100.581 35.374 99.4797 31.5728 98.3574 27.7776C99.0006 27.7555 99.6383 27.7787 100.27 27.8472C101.003 30.574 101.792 33.2859 102.634 35.9827C103.436 33.262 104.27 30.5502 105.137 27.8472C105.745 27.7787 106.359 27.7556 106.98 27.7776C106.681 28.8224 106.391 29.8654 106.111 30.9067C105.22 33.683 104.351 36.4644 103.503 39.2509Z" fill="#FDFEFE"/>
<path fill-rule="evenodd" clip-rule="evenodd" d="M90.2207 27.8469C90.2207 27.8237 90.2207 27.8005 90.2207 27.7773C92.6078 27.7773 94.9957 27.7773 97.3828 27.7773C97.3828 28.38 97.3828 28.9826 97.3828 29.5852C95.5978 29.5852 93.8136 29.5852 92.0286 29.5852C93.7781 29.5159 95.5394 29.4927 97.3132 29.5157C97.3132 28.9594 97.3132 28.4032 97.3132 27.8469C94.9491 27.8469 92.5849 27.8469 90.2207 27.8469Z" fill="#D2ECF1"/>
<path fill-rule="evenodd" clip-rule="evenodd" d="M81.5971 29.6489C80.2961 29.6275 78.9979 29.6507 77.7031 29.7184C77.7108 29.6755 77.7337 29.6407 77.7727 29.6141C79.0591 29.5565 80.3343 29.5681 81.5971 29.6489Z" fill="#78C6D7"/>
<path fill-rule="evenodd" clip-rule="evenodd" d="M39.3926 29.5864C40.6444 29.5748 41.8961 29.5864 43.1475 29.6212C43.2329 29.7275 43.3373 29.8086 43.4604 29.8645C43.4836 29.9341 43.5068 30.0036 43.5299 30.0731C43.5763 34.732 43.5763 39.3908 43.5299 44.0496C43.4286 44.2207 43.3011 44.3714 43.1475 44.5016C41.8952 44.5595 40.6436 44.5479 39.3926 44.4668C39.2517 44.3839 39.1474 44.268 39.0797 44.1192C39.0333 39.3908 39.0333 34.6624 39.0797 29.9341C39.1852 29.8131 39.2895 29.6972 39.3926 29.5864Z" fill="#47B2C8"/>
<path fill-rule="evenodd" clip-rule="evenodd" d="M81.5982 29.6522C81.7372 29.7338 81.8415 29.8497 81.9111 29.9999C81.9716 31.2767 81.9486 32.5515 81.8415 33.8243C81.3374 36.148 79.9349 37.585 77.6347 38.1355C77.4963 35.4478 77.4497 32.736 77.4956 29.9999C77.5123 29.8675 77.5818 29.7748 77.7042 29.7218C78.9989 29.654 80.2972 29.6308 81.5982 29.6522Z" fill="#46B2C8"/>
<path fill-rule="evenodd" clip-rule="evenodd" d="M92.0313 29.582C92.0313 32.4561 92.0313 35.3303 92.0313 38.2043C93.1097 38.1814 94.1757 38.2046 95.2299 38.2739C94.1402 38.2739 93.0513 38.2739 91.9617 38.2739C91.9388 35.3648 91.9617 32.4675 92.0313 29.582Z" fill="#A1D8E4"/>
<path fill-rule="evenodd" clip-rule="evenodd" d="M75.6895 30.0039C75.6895 35.4276 75.6895 40.8513 75.6895 46.275C76.2687 46.275 76.8486 46.275 77.4278 46.275C77.4049 44.1771 77.4278 42.0911 77.4974 40.0169C77.4974 42.1261 77.4974 44.2354 77.4974 46.3446C76.8715 46.3446 76.2457 46.3446 75.6199 46.3446C75.597 40.886 75.6199 35.4391 75.6895 30.0039Z" fill="#BEE4EB"/>
<path fill-rule="evenodd" clip-rule="evenodd" d="M77.4961 30.0039C77.4502 32.74 77.4968 35.4518 77.6352 38.1395C77.5858 38.2023 77.5163 38.2255 77.4266 38.209C77.4036 35.4621 77.4266 32.7271 77.4961 30.0039Z" fill="#B3E0E9"/>
<path fill-rule="evenodd" clip-rule="evenodd" d="M64.4242 32.7852C64.432 33.2181 64.3857 33.6353 64.2852 34.0368C64.2868 33.6048 64.3331 33.1876 64.4242 32.7852Z" fill="#8DCFDD"/>
<path fill-rule="evenodd" clip-rule="evenodd" d="M57.888 37.3672C57.9732 37.7003 58.0195 38.0479 58.027 38.4102C57.9127 38.081 57.8663 37.7334 57.888 37.3672Z" fill="#8DCFDD"/>
<path fill-rule="evenodd" clip-rule="evenodd" d="M30.5625 39.1797C30.6319 41.532 30.6551 43.8962 30.632 46.2722C31.1883 46.2722 31.7446 46.2722 32.3009 46.2722C32.2778 43.9194 32.301 41.5784 32.3704 39.2492C32.3704 41.6134 32.3704 43.9776 32.3704 46.3418C31.7677 46.3418 31.1652 46.3418 30.5625 46.3418C30.5625 43.9544 30.5625 41.567 30.5625 39.1797Z" fill="#A1D8E4"/>
<path fill-rule="evenodd" clip-rule="evenodd" d="M103.501 39.25C103.501 41.6142 103.501 43.9784 103.501 46.3425C102.886 46.3652 102.283 46.3421 101.693 46.273C102.273 46.273 102.853 46.273 103.432 46.273C103.409 43.9202 103.432 41.5791 103.501 39.25Z" fill="#B4E0E9"/>
<path fill-rule="evenodd" clip-rule="evenodd" d="M95.2271 38.2773C95.296 38.8673 95.3196 39.4699 95.2967 40.0852C94.207 40.0852 93.1181 40.0852 92.0285 40.0852C92.0515 42.1832 92.0285 44.2692 91.959 46.3434C91.959 46.3202 91.959 46.297 91.959 46.2738C91.959 44.1878 91.959 42.1018 91.959 40.0157C93.0486 40.0157 94.1375 40.0157 95.2271 40.0157C95.2271 39.4363 95.2271 38.8568 95.2271 38.2773Z" fill="#A8DBE6"/>
<path fill-rule="evenodd" clip-rule="evenodd" d="M63.5887 39.668C63.6103 40.0341 63.564 40.3818 63.4496 40.711C63.4359 40.3459 63.4822 39.9983 63.5887 39.668Z" fill="#AADBE5"/>
<path fill-rule="evenodd" clip-rule="evenodd" d="M58.1645 39.7383C58.2611 40.0699 58.3074 40.4176 58.3035 40.7813C58.1971 40.451 58.1507 40.1033 58.1645 39.7383Z" fill="#9DD6E2"/>
<path fill-rule="evenodd" clip-rule="evenodd" d="M61.5717 41.4727C61.5956 41.8619 61.5493 42.2328 61.4327 42.5852C61.424 42.198 61.4704 41.8271 61.5717 41.4727Z" fill="#C5E6ED"/>
<path fill-rule="evenodd" clip-rule="evenodd" d="M61.3666 43.1445C61.3906 43.5338 61.3443 43.9047 61.2276 44.2571C61.219 43.8698 61.2653 43.499 61.3666 43.1445Z" fill="#B9E1EA"/>
<path opacity="0.024" fill-rule="evenodd" clip-rule="evenodd" d="M118.73 47.4535C118.697 47.5513 118.628 47.5976 118.521 47.5926C118.554 47.4948 118.624 47.4484 118.73 47.4535Z" fill="#173C44"/>
<path opacity="0.024" fill-rule="evenodd" clip-rule="evenodd" d="M118.455 47.6605C118.422 47.7583 118.352 47.8047 118.246 47.7996C118.279 47.7018 118.348 47.6555 118.455 47.6605Z" fill="#173B43"/>
<path opacity="0.024" fill-rule="evenodd" clip-rule="evenodd" d="M118.244 47.7973C118.211 47.895 118.142 47.9414 118.035 47.9363C118.068 47.8386 118.137 47.7922 118.244 47.7973Z" fill="#1A434C"/>
<path opacity="0.024" fill-rule="evenodd" clip-rule="evenodd" d="M115.602 49.543C115.526 49.685 115.41 49.7777 115.254 49.8211C115.326 49.6799 115.442 49.5872 115.602 49.543Z" fill="#1C464F"/>
<path opacity="0.333" fill-rule="evenodd" clip-rule="evenodd" d="M112.195 51.8309C112.14 51.8935 112.07 51.9399 111.986 51.9699C112.009 51.8623 112.078 51.8159 112.195 51.8309Z" fill="#26626E"/>
<path opacity="0.757" fill-rule="evenodd" clip-rule="evenodd" d="M18.7402 52.5312C18.8568 52.5787 18.9032 52.6715 18.8793 52.8094C18.8205 52.728 18.7742 52.6352 18.7402 52.5312Z" fill="#276471"/>
<path opacity="0.757" fill-rule="evenodd" clip-rule="evenodd" d="M18.9473 53.0195C19.1069 53.1053 19.1997 53.2443 19.2254 53.4367C19.0991 53.3242 19.0064 53.1852 18.9473 53.0195Z" fill="#2A6A79"/>
<path opacity="0.1" fill-rule="evenodd" clip-rule="evenodd" d="M110.316 53.0863C110.283 53.1841 110.214 53.2305 110.107 53.2254C110.14 53.1276 110.21 53.0812 110.316 53.0863Z" fill="#15373E"/>
<path opacity="0.024" fill-rule="evenodd" clip-rule="evenodd" d="M110.109 53.223C110.076 53.3208 110.007 53.3672 109.9 53.3621C109.933 53.2643 110.003 53.218 110.109 53.223Z" fill="#173B43"/>
<path opacity="0.024" fill-rule="evenodd" clip-rule="evenodd" d="M109.689 53.5082C109.656 53.606 109.587 53.6523 109.48 53.6473C109.513 53.5495 109.583 53.5031 109.689 53.5082Z" fill="#183E46"/>
<path opacity="0.659" fill-rule="evenodd" clip-rule="evenodd" d="M20.4785 54.7543C20.5847 54.7492 20.6542 54.7956 20.6871 54.8934C20.5809 54.8984 20.5114 54.852 20.4785 54.7543Z" fill="#245D68"/>
<path opacity="0.357" fill-rule="evenodd" clip-rule="evenodd" d="M107.677 54.8203C107.611 54.9228 107.519 54.9923 107.398 55.0289C107.435 54.8936 107.528 54.8241 107.677 54.8203Z" fill="#245D68"/>
<path opacity="0.357" fill-rule="evenodd" clip-rule="evenodd" d="M20.8262 54.9652C20.9324 54.9601 21.0019 55.0065 21.0348 55.1043C20.9286 55.1094 20.8591 55.063 20.8262 54.9652Z" fill="#26616D"/>
<path opacity="0.467" fill-rule="evenodd" clip-rule="evenodd" d="M107.187 55.1004C107.132 55.163 107.063 55.2094 106.979 55.2395C107.001 55.1318 107.07 55.0854 107.187 55.1004Z" fill="#235B67"/>
<path opacity="0.4" fill-rule="evenodd" clip-rule="evenodd" d="M106.912 55.2422C106.634 55.3918 106.333 55.4844 106.008 55.5203C106.285 55.3752 106.586 55.2825 106.912 55.2422Z" fill="#1F505A"/>
</svg>
