<svg width="28" height="28" viewBox="0 0 28 28" fill="none" xmlns="http://www.w3.org/2000/svg">
<circle cx="14" cy="14" r="14" fill="#EAF3EE"/>
<path d="M14.5827 19.8346H9.91602C8.74935 19.8346 8.16602 19.2513 8.16602 18.0846V13.418C8.16602 12.2513 8.74935 11.668 9.91602 11.668H12.8327V18.0846C12.8327 19.2513 13.416 19.8346 14.5827 19.8346Z" stroke="#2A8851" stroke-width="0.875" stroke-miterlimit="10" stroke-linecap="round" stroke-linejoin="round"/>
<path d="M12.8968 9.33203C12.8502 9.50703 12.8327 9.69953 12.8327 9.91536V11.6654H9.91602V10.4987C9.91602 9.85703 10.441 9.33203 11.0827 9.33203H12.8968Z" stroke="#2A8851" stroke-width="0.875" stroke-miterlimit="10" stroke-linecap="round" stroke-linejoin="round"/>
<path d="M15.166 11.668V14.5846" stroke="#2A8851" stroke-width="0.875" stroke-miterlimit="10" stroke-linecap="round" stroke-linejoin="round"/>
<path d="M17.5 11.668V14.5846" stroke="#2A8851" stroke-width="0.875" stroke-miterlimit="10" stroke-linecap="round" stroke-linejoin="round"/>
<path d="M16.916 16.918H15.7493C15.4285 16.918 15.166 17.1805 15.166 17.5013V19.8346H17.4993V17.5013C17.4993 17.1805 17.2368 16.918 16.916 16.918Z" stroke="#2A8851" stroke-width="0.875" stroke-miterlimit="10" stroke-linecap="round" stroke-linejoin="round"/>
<path d="M10.5 14.582V16.9154" stroke="#2A8851" stroke-width="0.875" stroke-miterlimit="10" stroke-linecap="round" stroke-linejoin="round"/>
<path d="M12.834 18.0846V9.91797C12.834 8.7513 13.4173 8.16797 14.584 8.16797H18.084C19.2507 8.16797 19.834 8.7513 19.834 9.91797V18.0846C19.834 19.2513 19.2507 19.8346 18.084 19.8346H14.584C13.4173 19.8346 12.834 19.2513 12.834 18.0846Z" stroke="#2A8851" stroke-width="0.875" stroke-miterlimit="10" stroke-linecap="round" stroke-linejoin="round"/>
</svg>
