<svg width="24" height="30" viewBox="0 0 24 30" fill="none" xmlns="http://www.w3.org/2000/svg">
<path d="M20.0475 16.2014C20.0139 12.5679 23.0989 10.8001 23.24 10.7178C21.4928 8.23422 18.7848 7.89488 17.8332 7.86782C15.5587 7.63445 13.3526 9.19474 12.194 9.19474C11.0122 9.19474 9.22808 7.89037 7.30517 7.9287C4.83072 7.9659 2.51583 9.36272 1.24623 11.5318C-1.37392 15.9545 0.580207 22.4539 3.09051 26.0288C4.34623 27.7796 5.81356 29.7345 7.73415 29.6657C9.61312 29.5902 10.315 28.4977 12.5825 28.4977C14.8291 28.4977 15.4882 29.6657 17.447 29.6217C19.4635 29.5902 20.7331 27.863 21.9449 26.0964C23.3961 24.0897 23.9788 22.1134 24.002 22.0119C23.9545 21.9961 20.0856 20.5565 20.0475 16.2014Z" fill="#1A201D"/>
<path d="M16.3473 5.5161C17.3579 4.28388 18.0494 2.60747 17.8574 0.90625C16.3947 0.969383 14.5655 1.89271 13.5121 3.09788C12.5802 4.15987 11.7476 5.90054 11.9627 7.5375C13.6058 7.657 15.2928 6.72917 16.3473 5.5161Z" fill="#1A201D"/>
</svg>
