<svg width="28" height="28" viewBox="0 0 28 28" fill="none" xmlns="http://www.w3.org/2000/svg">
<circle cx="14" cy="14" r="14" fill="#EAF3EE"/>
<rect x="7.35" y="7.35" width="13.3" height="13.3" rx="3.65" stroke="#2A8851" stroke-width="0.7"/>
<path d="M17.75 11.6875H10.25C10.0792 11.6875 9.9375 11.5458 9.9375 11.375C9.9375 11.2042 10.0792 11.0625 10.25 11.0625H17.75C17.9208 11.0625 18.0625 11.2042 18.0625 11.375C18.0625 11.5458 17.9208 11.6875 17.75 11.6875Z" fill="#2A8851"/>
<path d="M17.75 13.7695H10.25C10.0792 13.7695 9.9375 13.6279 9.9375 13.457C9.9375 13.2862 10.0792 13.1445 10.25 13.1445H17.75C17.9208 13.1445 18.0625 13.2862 18.0625 13.457C18.0625 13.6279 17.9208 13.7695 17.75 13.7695Z" fill="#2A8851"/>
<path d="M17.75 15.8555H10.25C10.0792 15.8555 9.9375 15.7138 9.9375 15.543C9.9375 15.3721 10.0792 15.2305 10.25 15.2305H17.75C17.9208 15.2305 18.0625 15.3721 18.0625 15.543C18.0625 15.7138 17.9208 15.8555 17.75 15.8555Z" fill="#2A8851"/>
<path d="M17.75 17.9375H10.25C10.0792 17.9375 9.9375 17.7958 9.9375 17.625C9.9375 17.4542 10.0792 17.3125 10.25 17.3125H17.75C17.9208 17.3125 18.0625 17.4542 18.0625 17.625C18.0625 17.7958 17.9208 17.9375 17.75 17.9375Z" fill="#2A8851"/>
</svg>
