<svg width="28" height="28" viewBox="0 0 28 28" fill="none" xmlns="http://www.w3.org/2000/svg">
<circle cx="14" cy="14" r="14" fill="#EAF3EE"/>
<path d="M12.6667 20.6654H15.3333C18.6667 20.6654 20 19.332 20 15.9987V11.9987C20 8.66536 18.6667 7.33203 15.3333 7.33203H12.6667C9.33333 7.33203 8 8.66536 8 11.9987V15.9987C8 19.332 9.33333 20.6654 12.6667 20.6654Z" stroke="#2A8851" stroke-linecap="round" stroke-linejoin="round"/>
<path d="M17 11.0508V11.7174C17 12.2641 16.5533 12.7174 16 12.7174H12C11.4533 12.7174 11 12.2708 11 11.7174V11.0508C11 10.5041 11.4467 10.0508 12 10.0508H16C16.5533 10.0508 17 10.4974 17 11.0508Z" stroke="#2A8851" stroke-linecap="round" stroke-linejoin="round"/>
<path d="M11.4241 15.3333H11.4318" stroke="#2A8851" stroke-width="1.33333" stroke-linecap="round" stroke-linejoin="round"/>
<path d="M13.9963 15.3333H14.004" stroke="#2A8851" stroke-width="1.33333" stroke-linecap="round" stroke-linejoin="round"/>
<path d="M16.5706 15.3333H16.5783" stroke="#2A8851" stroke-width="1.33333" stroke-linecap="round" stroke-linejoin="round"/>
<path d="M11.4241 17.6654H11.4318" stroke="#2A8851" stroke-width="1.33333" stroke-linecap="round" stroke-linejoin="round"/>
<path d="M13.9963 17.6654H14.004" stroke="#2A8851" stroke-width="1.33333" stroke-linecap="round" stroke-linejoin="round"/>
<path d="M16.5706 17.6654H16.5783" stroke="#2A8851" stroke-width="1.33333" stroke-linecap="round" stroke-linejoin="round"/>
</svg>
