<svg width="28" height="28" viewBox="0 0 28 28" fill="none" xmlns="http://www.w3.org/2000/svg">
<circle cx="14" cy="14" r="14" fill="#EAF3EE"/>
<path d="M8.16602 19.832H19.8327" stroke="#2A8851" stroke-width="0.875" stroke-miterlimit="10" stroke-linecap="round" stroke-linejoin="round"/>
<path d="M12.6875 9.33464V19.8346H15.3125V9.33464C15.3125 8.69297 15.05 8.16797 14.2625 8.16797H13.7375C12.95 8.16797 12.6875 8.69297 12.6875 9.33464Z" stroke="#2A8851" stroke-width="0.875" stroke-linecap="round" stroke-linejoin="round"/>
<path d="M8.75 12.8346V19.8346H11.0833V12.8346C11.0833 12.193 10.85 11.668 10.15 11.668H9.68333C8.98333 11.668 8.75 12.193 8.75 12.8346Z" stroke="#2A8851" stroke-width="0.875" stroke-linecap="round" stroke-linejoin="round"/>
<path d="M16.916 15.7487V19.832H19.2493V15.7487C19.2493 15.107 19.016 14.582 18.316 14.582H17.8493C17.1493 14.582 16.916 15.107 16.916 15.7487Z" stroke="#2A8851" stroke-width="0.875" stroke-linecap="round" stroke-linejoin="round"/>
</svg>
