<svg width="28" height="28" viewBox="0 0 28 28" fill="none" xmlns="http://www.w3.org/2000/svg">
<circle cx="14" cy="14" r="14" fill="#EAF3EE"/>
<path d="M19.8152 17.6938C19.8152 17.9038 19.7685 18.1196 19.6693 18.3296C19.5702 18.5396 19.4419 18.738 19.2727 18.9246C18.9869 19.2396 18.6718 19.4671 18.316 19.613C17.966 19.7588 17.5869 19.8346 17.1785 19.8346C16.5835 19.8346 15.9477 19.6946 15.2768 19.4088C14.606 19.123 13.9352 18.738 13.2702 18.2538C12.5993 17.7638 11.9635 17.2213 11.3568 16.6205C10.756 16.0138 10.2135 15.378 9.72935 14.713C9.25102 14.048 8.86602 13.383 8.58602 12.7238C8.30602 12.0588 8.16602 11.423 8.16602 10.8163C8.16602 10.4196 8.23602 10.0405 8.37602 9.69047C8.51602 9.33464 8.73768 9.00797 9.04685 8.7163C9.42018 8.3488 9.82852 8.16797 10.2602 8.16797C10.4235 8.16797 10.5868 8.20297 10.7327 8.27297C10.8843 8.34297 11.0185 8.44797 11.1235 8.59964L12.4768 10.5071C12.5818 10.653 12.6577 10.7871 12.7102 10.9155C12.7627 11.038 12.7918 11.1605 12.7918 11.2713C12.7918 11.4113 12.751 11.5513 12.6693 11.6855C12.5935 11.8196 12.4827 11.9596 12.3427 12.0996L11.8993 12.5605C11.8352 12.6246 11.806 12.7005 11.806 12.7938C11.806 12.8405 11.8118 12.8813 11.8235 12.928C11.841 12.9746 11.8585 13.0096 11.8702 13.0446C11.9752 13.2371 12.156 13.488 12.4127 13.7913C12.6752 14.0946 12.9552 14.4038 13.2585 14.713C13.5735 15.0221 13.8768 15.308 14.186 15.5705C14.4893 15.8271 14.7402 16.0021 14.9385 16.1071C14.9677 16.1188 15.0027 16.1363 15.0435 16.1538C15.0902 16.1713 15.1368 16.1771 15.1893 16.1771C15.2885 16.1771 15.3643 16.1421 15.4285 16.078L15.8718 15.6405C16.0177 15.4946 16.1577 15.3838 16.2918 15.3138C16.426 15.2321 16.5602 15.1913 16.706 15.1913C16.8168 15.1913 16.9335 15.2146 17.0618 15.2671C17.1902 15.3196 17.3244 15.3955 17.4702 15.4946L19.401 16.8655C19.5527 16.9705 19.6577 17.093 19.7218 17.2388C19.7802 17.3846 19.8152 17.5305 19.8152 17.6938Z" stroke="#2A8851" stroke-width="0.875" stroke-miterlimit="10"/>
</svg>
