<svg width="28" height="28" viewBox="0 0 28 28" fill="none" xmlns="http://www.w3.org/2000/svg">
<circle cx="14" cy="14" r="14" fill="#EAF3EE"/>
<path d="M19.6345 13.0878L19.0628 15.5262C18.5728 17.632 17.6045 18.4837 15.7845 18.3087C15.4928 18.2853 15.1778 18.2328 14.8395 18.1512L13.8595 17.9178C11.427 17.3403 10.6745 16.1387 11.2461 13.7003L11.8178 11.2562C11.9345 10.7603 12.0745 10.3287 12.2495 9.97285C12.932 8.56118 14.0928 8.18201 16.0411 8.64285L17.0153 8.87035C19.4595 9.44201 20.2061 10.6495 19.6345 13.0878Z" stroke="#2A8851" stroke-width="0.875" stroke-linecap="round" stroke-linejoin="round"/>
<path d="M15.7847 18.3124C15.423 18.5574 14.968 18.7616 14.4139 18.9424L13.4922 19.2457C11.1764 19.9924 9.95721 19.3682 9.20471 17.0524L8.45804 14.7482C7.71138 12.4324 8.32971 11.2074 10.6455 10.4607L11.5672 10.1574C11.8064 10.0816 12.0339 10.0174 12.2497 9.97656C12.0747 10.3324 11.9347 10.7641 11.818 11.2599L11.2464 13.7041C10.6747 16.1424 11.4272 17.3441 13.8597 17.9216L14.8397 18.1549C15.178 18.2366 15.493 18.2891 15.7847 18.3124Z" stroke="#2A8851" stroke-width="0.875" stroke-linecap="round" stroke-linejoin="round"/>
<path d="M14.373 11.9766L17.2022 12.6941" stroke="#2A8851" stroke-width="0.875" stroke-linecap="round" stroke-linejoin="round"/>
<path d="M13.8027 14.2344L15.4944 14.666" stroke="#2A8851" stroke-width="0.875" stroke-linecap="round" stroke-linejoin="round"/>
</svg>
