<svg width="16" height="16" viewBox="0 0 16 16" fill="none" xmlns="http://www.w3.org/2000/svg">
<path d="M7.99902 5.5C9.56372 5.5 10.8328 6.76835 10.833 8.33301C10.833 9.89781 9.56383 11.167 7.99902 11.167C6.43437 11.1668 5.16602 9.89771 5.16602 8.33301C5.16619 6.76846 6.43447 5.50018 7.99902 5.5Z" stroke="#FFEC89"/>
<path d="M8.00098 1.83203C9.25596 1.83203 10.1638 1.83303 10.875 1.89746C11.5792 1.96129 12.0417 2.0842 12.417 2.30078C12.949 2.60796 13.3911 3.05 13.6982 3.58203C13.9149 3.95735 14.0387 4.4196 14.1025 5.12402C14.167 5.83531 14.167 6.74371 14.167 7.99902C14.167 9.25397 14.167 10.1619 14.1025 10.873C14.0387 11.5774 13.9149 12.0398 13.6982 12.415C13.3911 12.9471 12.9491 13.3891 12.417 13.6963C12.0417 13.9129 11.5793 14.0368 10.875 14.1006C10.1638 14.165 9.25593 14.165 8.00098 14.165C6.74567 14.165 5.83726 14.165 5.12598 14.1006C4.42155 14.0367 3.9593 13.913 3.58398 13.6963C3.05195 13.3891 2.60991 12.9471 2.30273 12.415C2.08616 12.0398 1.96324 11.5773 1.89941 10.873C1.83498 10.1619 1.83398 9.25401 1.83398 7.99902C1.83398 6.74368 1.83495 5.83532 1.89941 5.12402C1.96325 4.41964 2.08607 3.95734 2.30273 3.58203C2.60992 3.04996 3.05192 2.60797 3.58398 2.30078C3.95929 2.08412 4.4216 1.9613 5.12598 1.89746C5.83727 1.833 6.74563 1.83203 8.00098 1.83203Z" stroke="#FFEC89"/>
<path d="M11 3.83203C11.2761 3.83203 11.5 4.05589 11.5 4.33203C11.5 4.60817 11.2761 4.83203 11 4.83203C10.7239 4.83203 10.5 4.60817 10.5 4.33203C10.5 4.05589 10.7239 3.83203 11 3.83203Z" stroke="#FFEC89"/>
</svg>
