<svg width="16" height="16" viewBox="0 0 16 16" fill="none" xmlns="http://www.w3.org/2000/svg">
<path d="M5.05798 6.16508V13.4053H2.68164V6.16508H5.05798Z" fill="#FFEC89"/>
<path d="M8.84746 7.71081V13.4053H6.47816V6.16508H8.69982L8.84746 7.71081ZM8.56624 9.53758L8.01082 9.55096C8.01082 8.9978 8.08113 8.50486 8.22174 8.07215C8.36235 7.63497 8.56155 7.26471 8.81934 6.96136C9.07713 6.65802 9.38413 6.42828 9.74035 6.27214C10.1013 6.11155 10.502 6.03125 10.9426 6.03125C11.2941 6.03125 11.6152 6.08032 11.9058 6.17846C12.2011 6.2766 12.4542 6.43497 12.6651 6.65356C12.8807 6.87214 13.0447 7.16211 13.1572 7.52345C13.2744 7.88033 13.333 8.32196 13.333 8.84836V13.4053H10.9496V8.84167C10.9496 8.5517 10.9074 8.33089 10.8231 8.17921C10.7387 8.02308 10.6168 7.91601 10.4575 7.85802C10.2981 7.80003 10.1036 7.77103 9.87393 7.77103C9.6302 7.77103 9.42397 7.81564 9.25524 7.90486C9.0865 7.99408 8.95058 8.11899 8.84746 8.27958C8.74904 8.43572 8.67639 8.62085 8.62952 8.83498C8.58733 9.0491 8.56624 9.28331 8.56624 9.53758Z" fill="#FFEC89"/>
<ellipse cx="3.91054" cy="3.90078" rx="1.31093" ry="1.31093" fill="#FFEC89"/>
</svg>
