<svg width="26" height="26" viewBox="0 0 26 26" fill="none" xmlns="http://www.w3.org/2000/svg">
<path d="M18.207 4.14648H7.79036C4.66536 4.14648 2.58203 5.70898 2.58203 9.35482V16.6465C2.58203 20.2923 4.66536 21.8548 7.79036 21.8548H18.207C21.332 21.8548 23.4154 20.2923 23.4154 16.6465V9.35482C23.4154 5.70898 21.332 4.14648 18.207 4.14648ZM18.6966 10.4902L15.4362 13.0944C14.7487 13.6465 13.8737 13.9173 12.9987 13.9173C12.1237 13.9173 11.2383 13.6465 10.5612 13.0944L7.30078 10.4902C6.96745 10.2194 6.91536 9.7194 7.17578 9.38607C7.44661 9.05273 7.9362 8.99023 8.26953 9.26107L11.5299 11.8652C12.3216 12.5007 13.6654 12.5007 14.457 11.8652L17.7174 9.26107C18.0508 8.99023 18.5508 9.04232 18.8112 9.38607C19.082 9.7194 19.0299 10.2194 18.6966 10.4902Z" fill="#2A8851"/>
</svg>
