<svg width="28" height="28" viewBox="0 0 28 28" fill="none" xmlns="http://www.w3.org/2000/svg">
<circle cx="14" cy="14" r="14" fill="#EAF3EE"/>
<path d="M17.5009 11.178C17.4659 11.1721 17.425 11.1721 17.39 11.178C16.585 11.1488 15.9434 10.4896 15.9434 9.67297C15.9434 8.8388 16.6142 8.16797 17.4484 8.16797C18.2825 8.16797 18.9534 8.84464 18.9534 9.67297C18.9475 10.4896 18.3059 11.1488 17.5009 11.178Z" stroke="#2A8851" stroke-width="0.875" stroke-linecap="round" stroke-linejoin="round"/>
<path d="M16.8984 15.4247C17.6975 15.5589 18.5784 15.4189 19.1967 15.0047C20.0192 14.4564 20.0192 13.5581 19.1967 13.0097C18.5725 12.5956 17.68 12.4556 16.8809 12.5956" stroke="#2A8851" stroke-width="0.875" stroke-linecap="round" stroke-linejoin="round"/>
<path d="M10.4818 11.178C10.5168 11.1721 10.5576 11.1721 10.5926 11.178C11.3976 11.1488 12.0393 10.4896 12.0393 9.67297C12.0393 8.8388 11.3685 8.16797 10.5343 8.16797C9.70013 8.16797 9.0293 8.84464 9.0293 9.67297C9.03513 10.4896 9.6768 11.1488 10.4818 11.178Z" stroke="#2A8851" stroke-width="0.875" stroke-linecap="round" stroke-linejoin="round"/>
<path d="M11.0832 15.4247C10.284 15.5589 9.40318 15.4189 8.78484 15.0047C7.96234 14.4564 7.96234 13.5581 8.78484 13.0097C9.40901 12.5956 10.3015 12.4556 11.1007 12.5956" stroke="#2A8851" stroke-width="0.875" stroke-linecap="round" stroke-linejoin="round"/>
<path d="M14.0009 15.5334C13.9659 15.5276 13.925 15.5276 13.89 15.5334C13.085 15.5043 12.4434 14.8451 12.4434 14.0284C12.4434 13.1943 13.1142 12.5234 13.9484 12.5234C14.7825 12.5234 15.4534 13.2001 15.4534 14.0284C15.4475 14.8451 14.8059 15.5101 14.0009 15.5334Z" stroke="#2A8851" stroke-width="0.875" stroke-linecap="round" stroke-linejoin="round"/>
<path d="M12.3024 17.37C11.4799 17.9183 11.4799 18.8167 12.3024 19.365C13.2358 19.9892 14.7641 19.9892 15.6974 19.365C16.5199 18.8167 16.5199 17.9183 15.6974 17.37C14.7699 16.7517 13.2358 16.7517 12.3024 17.37Z" stroke="#2A8851" stroke-width="0.875" stroke-linecap="round" stroke-linejoin="round"/>
</svg>
