<svg width="28" height="28" viewBox="0 0 28 28" fill="none" xmlns="http://www.w3.org/2000/svg">
<circle cx="14" cy="14" r="14" fill="#EAF3EE"/>
<path d="M17.524 14.9029C17.279 15.142 17.139 15.4862 17.174 15.8537C17.2265 16.4837 17.804 16.9445 18.434 16.9445H19.5423V17.6387C19.5423 18.8462 18.5565 19.832 17.349 19.832H10.6523C9.44482 19.832 8.45898 18.8462 8.45898 17.6387V13.7129C8.45898 12.5054 9.44482 11.5195 10.6523 11.5195H17.349C18.5565 11.5195 19.5423 12.5054 19.5423 13.7129V14.5529H18.364C18.0373 14.5529 17.7398 14.6812 17.524 14.9029Z" stroke="#2A8851" stroke-width="0.875" stroke-linecap="round" stroke-linejoin="round"/>
<path d="M8.45898 14.2412V11.5754C8.45898 10.8812 8.88482 10.2629 9.53232 10.0179L14.164 8.26788C14.8873 7.99372 15.6632 8.5304 15.6632 9.30623V11.5229" stroke="#2A8851" stroke-width="0.875" stroke-linecap="round" stroke-linejoin="round"/>
<path d="M20.16 15.1497V16.3514C20.16 16.6722 19.9033 16.9347 19.5766 16.9463H18.4333C17.8033 16.9463 17.2258 16.4855 17.1733 15.8555C17.1383 15.488 17.2783 15.1438 17.5233 14.9047C17.7391 14.683 18.0366 14.5547 18.3633 14.5547H19.5766C19.9033 14.5664 20.16 14.8288 20.16 15.1497Z" stroke="#2A8851" stroke-width="0.875" stroke-linecap="round" stroke-linejoin="round"/>
<path d="M11.084 14H15.1673" stroke="#2A8851" stroke-width="0.875" stroke-linecap="round" stroke-linejoin="round"/>
</svg>
