<svg width="26" height="26" viewBox="0 0 26 26" fill="none" xmlns="http://www.w3.org/2000/svg">
<path d="M12.013 16.0755L10.0859 18.0026C9.67969 18.4089 9.03385 18.4089 8.61719 18.013C8.5026 17.8984 8.38802 17.7943 8.27344 17.6797C7.20052 16.5964 6.23177 15.4609 5.36719 14.2734C4.51302 13.0859 3.82552 11.8984 3.32552 10.7214C2.83594 9.53385 2.58594 8.39844 2.58594 7.3151C2.58594 6.60677 2.71094 5.92969 2.96094 5.30469C3.21094 4.66927 3.60677 4.08594 4.15885 3.5651C4.82552 2.90885 5.55469 2.58594 6.32552 2.58594C6.61719 2.58594 6.90885 2.64844 7.16927 2.77344C7.4401 2.89844 7.67969 3.08594 7.86719 3.35677L10.2839 6.76302C10.4714 7.02344 10.6068 7.26302 10.7005 7.49219C10.7943 7.71094 10.8464 7.92969 10.8464 8.1276C10.8464 8.3776 10.7734 8.6276 10.6276 8.86719C10.4922 9.10677 10.2943 9.35677 10.0443 9.60677L9.2526 10.4297C9.13802 10.5443 9.08594 10.6797 9.08594 10.8464C9.08594 10.9297 9.09635 11.0026 9.11719 11.0859C9.14844 11.1693 9.17969 11.2318 9.20052 11.2943C9.38802 11.638 9.71094 12.0859 10.1693 12.6276C10.638 13.1693 11.138 13.7214 11.6797 14.2734C11.7839 14.3776 11.8984 14.4818 12.0026 14.5859C12.4193 14.9922 12.4297 15.6589 12.013 16.0755Z" fill="#2A8851"/>
<path d="M23.3854 19.5938C23.3854 19.8854 23.3333 20.1875 23.2292 20.4792C23.1979 20.5625 23.1667 20.6458 23.125 20.7292C22.9479 21.1042 22.7188 21.4583 22.4167 21.7917C21.9063 22.3542 21.3438 22.7604 20.7083 23.0208C20.6979 23.0208 20.6875 23.0313 20.6771 23.0313C20.0625 23.2813 19.3958 23.4167 18.6771 23.4167C17.6146 23.4167 16.4792 23.1667 15.2812 22.6563C14.0833 22.1458 12.8854 21.4583 11.6979 20.5938C11.2917 20.2917 10.8854 19.9896 10.5 19.6667L13.9062 16.2604C14.1979 16.4792 14.4583 16.6458 14.6771 16.7604C14.7292 16.7812 14.7917 16.8125 14.8646 16.8437C14.9479 16.875 15.0312 16.8854 15.125 16.8854C15.3021 16.8854 15.4375 16.8229 15.5521 16.7083L16.3438 15.9271C16.6042 15.6667 16.8542 15.4688 17.0938 15.3438C17.3333 15.1979 17.5729 15.125 17.8333 15.125C18.0312 15.125 18.2396 15.1667 18.4688 15.2604C18.6979 15.3542 18.9375 15.4896 19.1979 15.6667L22.6458 18.1146C22.9167 18.3021 23.1042 18.5208 23.2188 18.7812C23.3229 19.0417 23.3854 19.3021 23.3854 19.5938Z" fill="#2A8851"/>
</svg>
