<svg width="30" height="33" viewBox="0 0 30 33" fill="none" xmlns="http://www.w3.org/2000/svg">
<path d="M0.602493 0.502903C0.220859 0.892413 0 1.49884 0 2.2842V30.2973C0 31.0826 0.220859 31.689 0.602493 32.0786L0.696684 32.1641L16.7968 16.4728V16.1023L0.696684 0.411067L0.602493 0.502903Z" fill="url(#paint0_linear_2188_29800)"/>
<path d="M22.1576 21.7031L16.7969 16.4701V16.0996L22.1641 10.8665L22.2843 10.9346L28.6405 14.4608C30.4545 15.4615 30.4545 17.1082 28.6405 18.1152L22.2843 21.635L22.1576 21.7031Z" fill="url(#paint1_linear_2188_29800)"/>
<path d="M22.2832 21.6353L16.7958 16.2851L0.601562 32.0761C1.20406 32.6936 2.18656 32.768 3.30385 32.1505L22.2832 21.6353Z" fill="url(#paint2_linear_2188_29800)"/>
<path d="M22.2832 10.9388L3.30385 0.423654C2.18656 -0.18753 1.20406 -0.113112 0.601562 0.504404L16.7958 16.2891L22.2832 10.9388Z" fill="url(#paint3_linear_2188_29800)"/>
<defs>
<linearGradient id="paint0_linear_2188_29800" x1="15.3673" y1="30.589" x2="-5.88419" y2="8.79264" gradientUnits="userSpaceOnUse">
<stop stop-color="#00A0FF"/>
<stop offset="0.0066" stop-color="#00A1FF"/>
<stop offset="0.2601" stop-color="#00BEFF"/>
<stop offset="0.5122" stop-color="#00D2FF"/>
<stop offset="0.7604" stop-color="#00DFFF"/>
<stop offset="1" stop-color="#00E3FF"/>
</linearGradient>
<linearGradient id="paint1_linear_2188_29800" x1="31.0026" y1="16.283" x2="-0.433484" y2="16.283" gradientUnits="userSpaceOnUse">
<stop stop-color="#FFE000"/>
<stop offset="0.4087" stop-color="#FFBD00"/>
<stop offset="0.7754" stop-color="#FFA500"/>
<stop offset="1" stop-color="#FF9C00"/>
</linearGradient>
<linearGradient id="paint2_linear_2188_29800" x1="19.2993" y1="13.3766" x2="-9.51935" y2="-16.181" gradientUnits="userSpaceOnUse">
<stop stop-color="#FF3A44"/>
<stop offset="1" stop-color="#C31162"/>
</linearGradient>
<linearGradient id="paint3_linear_2188_29800" x1="-3.47487" y1="41.3999" x2="9.39397" y2="28.2012" gradientUnits="userSpaceOnUse">
<stop stop-color="#32A071"/>
<stop offset="0.0685" stop-color="#2DA771"/>
<stop offset="0.4762" stop-color="#15CF74"/>
<stop offset="0.8009" stop-color="#06E775"/>
<stop offset="1" stop-color="#00F076"/>
</linearGradient>
</defs>
</svg>
