<svg width="32" height="32" viewBox="0 0 32 32" fill="none" xmlns="http://www.w3.org/2000/svg">
<rect width="32" height="32" fill="#F5F5F5"/>
<path d="M-5132 -6305C-5132 -6306.1 -5131.1 -6307 -5130 -6307H47704C47705.1 -6307 47706 -6306.1 47706 -6305V6969C47706 6970.1 47705.1 6971 47704 6971H-5130C-5131.1 6971 -5132 6970.1 -5132 6969V-6305Z" fill="#E9EFEB"/>
<path d="M-5130 -6307V-6306H47704V-6307V-6308H-5130V-6307ZM47706 -6305H47705V6969H47706H47707V-6305H47706ZM47704 6971V6970H-5130V6971V6972H47704V6971ZM-5132 6969H-5131V-6305H-5132H-5133V6969H-5132ZM-5130 6971V6970C-5130.55 6970 -5131 6969.55 -5131 6969H-5132H-5133C-5133 6970.66 -5131.66 6972 -5130 6972V6971ZM47706 6969H47705C47705 6969.55 47704.6 6970 47704 6970V6971V6972C47705.7 6972 47707 6970.66 47707 6969H47706ZM47704 -6307V-6306C47704.6 -6306 47705 -6305.55 47705 -6305H47706H47707C47707 -6306.66 47705.7 -6308 47704 -6308V-6307ZM-5130 -6307V-6308C-5131.66 -6308 -5133 -6306.66 -5133 -6305H-5132H-5131C-5131 -6305.55 -5130.55 -6306 -5130 -6306V-6307Z" fill="black" fill-opacity="0.1"/>
<g clip-path="url(#clip0_0_1)">
<rect width="1440" height="5290" transform="translate(-1301 -3993)" fill="white"/>
<rect width="32" height="32" rx="16" fill="#EAF3EE"/>
<path d="M12.9102 23.9181L19.4302 17.3981C20.2002 16.6281 20.2002 15.3681 19.4302 14.5981L12.9102 8.07812" stroke="#2A8851" stroke-width="1.5" stroke-miterlimit="10" stroke-linecap="round" stroke-linejoin="round"/>
</g>
<defs>
<clipPath id="clip0_0_1">
<rect width="1440" height="5290" fill="white" transform="translate(-1301 -3993)"/>
</clipPath>
</defs>
</svg>
