<svg width="28" height="28" viewBox="0 0 28 28" fill="none" xmlns="http://www.w3.org/2000/svg">
<circle cx="14" cy="14" r="14" fill="#EAF3EE"/>
<path d="M10.4993 9.33464C11.4735 8.60547 12.6868 8.16797 13.9993 8.16797C17.2193 8.16797 19.8327 10.7813 19.8327 14.0013C19.8327 17.2213 17.2193 19.8346 13.9993 19.8346C10.7793 19.8346 8.16602 17.2213 8.16602 14.0013C8.16602 12.9455 8.44601 11.9538 8.94184 11.0963L13.9993 14.0013" stroke="#2A8851" stroke-width="0.875" stroke-miterlimit="10" stroke-linecap="round" stroke-linejoin="round"/>
<path d="M10.9842 12.2267C10.675 12.7458 10.5 13.3525 10.5 14C10.5 15.9308 12.0692 17.5 14 17.5C15.9308 17.5 17.5 15.9308 17.5 14C17.5 12.0692 15.9308 10.5 14 10.5C13.4692 10.5 12.9617 10.6167 12.5125 10.8325" stroke="#2A8851" stroke-width="0.875" stroke-miterlimit="10" stroke-linecap="round" stroke-linejoin="round"/>
</svg>
