<svg width="56" height="56" viewBox="0 0 56 56" fill="none" xmlns="http://www.w3.org/2000/svg">
<rect width="56" height="56" rx="28" fill="white"/>
<circle cx="28" cy="28" r="20" fill="#2A8851"/>
<path d="M27.999 15.418C34.9485 15.418 40.5828 21.0515 40.583 28.001C40.583 34.9506 34.9486 40.585 27.999 40.585C21.0496 40.5848 15.416 34.9505 15.416 28.001C15.4162 21.0517 21.0497 15.4181 27.999 15.418ZM31.999 29.918C30.1122 29.9181 28.583 31.4481 28.583 33.335C28.5832 35.2217 30.1123 36.7508 31.999 36.751C33.8859 36.751 35.4158 35.2218 35.416 33.335C35.416 31.448 33.886 29.918 31.999 29.918ZM34.5703 21.4307C33.8869 20.7473 32.7791 20.7474 32.0957 21.4307L20.7812 32.7441C20.098 33.4275 20.0982 34.5353 20.7812 35.2188C21.4647 35.9022 22.5734 35.9022 23.2568 35.2188L34.5703 23.9053C35.2535 23.2219 35.2535 22.114 34.5703 21.4307ZM32.083 33.335C32.0828 33.3808 32.0449 33.418 31.999 33.418C31.9647 33.4178 31.9355 33.3969 31.9229 33.3672L31.916 33.335C31.916 33.289 31.9531 33.2512 31.999 33.251C32.045 33.251 32.083 33.2889 32.083 33.335ZM23.999 19.251C22.1122 19.2512 20.583 20.7811 20.583 22.668C20.583 24.5548 22.1122 26.0848 23.999 26.085C25.886 26.085 27.416 24.5549 27.416 22.668C27.416 20.781 25.886 19.251 23.999 19.251ZM24.083 22.668C24.083 22.714 24.045 22.751 23.999 22.751C23.9531 22.7508 23.916 22.7139 23.916 22.668C23.916 22.6221 23.9531 22.5851 23.999 22.585L24.0322 22.5908C24.062 22.6035 24.083 22.6335 24.083 22.668Z" fill="white" stroke="white" stroke-width="1.5"/>
</svg>
