<svg width="16" height="16" viewBox="0 0 16 16" fill="none" xmlns="http://www.w3.org/2000/svg">
<path fill-rule="evenodd" clip-rule="evenodd" d="M13.0449 2.995C13.2255 2.78611 13.2026 2.47036 12.9937 2.28975C12.7848 2.10914 12.469 2.13207 12.2884 2.34095L8.76735 6.41336L5.77331 2.42131C5.6537 2.26183 5.46599 2.16798 5.26664 2.16798H2.93331C2.41142 2.16798 2.11351 2.76379 2.42664 3.18131L6.62157 8.77455L2.95537 13.0073C2.77458 13.216 2.79723 13.5318 3.00596 13.7126C3.21469 13.8934 3.53046 13.8707 3.71125 13.662L7.23551 9.59314L10.2266 13.5813C10.3463 13.7408 10.534 13.8346 10.7333 13.8346H13.0666C13.5885 13.8346 13.8865 13.2388 13.5733 12.8213L9.38141 7.2321L13.0449 2.995ZM10.9166 12.8346L3.66664 3.16798H5.08331L12.3333 12.8346H10.9166Z" fill="#FFEC89"/>
</svg>
