<svg width="64" height="64" viewBox="0 0 64 64" fill="none" xmlns="http://www.w3.org/2000/svg">
<rect x="1" y="1" width="62" height="62" rx="15" stroke="#C9D9F1" stroke-width="2"/>
<path d="M48.6167 15.8807C47.4167 14.5141 45.6333 13.6641 43.6667 13.6641C41.8 13.6641 40.1 14.4307 38.8833 15.6807C38.1833 16.3974 37.65 17.2641 37.3333 18.2307C37.1167 18.8974 37 19.5974 37 20.3307C37 21.5807 37.35 22.7641 37.9667 23.7641C38.3 24.3307 38.7333 24.8474 39.2333 25.2807C40.4 26.3474 41.95 26.9974 43.6667 26.9974C44.4 26.9974 45.1 26.8807 45.75 26.6474C47.2833 26.1641 48.5667 25.1141 49.3667 23.7641C49.7167 23.1974 49.9833 22.5474 50.1333 21.8807C50.2667 21.3807 50.3333 20.8641 50.3333 20.3307C50.3333 18.6307 49.6833 17.0641 48.6167 15.8807ZM46.15 21.5474H44.9167V22.8474C44.9167 23.5307 44.35 24.0974 43.6667 24.0974C42.9833 24.0974 42.4167 23.5307 42.4167 22.8474V21.5474H41.1833C40.5 21.5474 39.9333 20.9807 39.9333 20.2974C39.9333 19.6141 40.5 19.0474 41.1833 19.0474H42.4167V17.8641C42.4167 17.1807 42.9833 16.6141 43.6667 16.6141C44.35 16.6141 44.9167 17.1807 44.9167 17.8641V19.0474H46.15C46.8333 19.0474 47.4 19.6141 47.4 20.2974C47.4 20.9807 46.85 21.5474 46.15 21.5474Z" fill="#5285D1"/>
<path d="M48.6693 32.0026C48.6693 29.8193 48.2526 27.7193 47.4693 25.8026C46.9526 26.1693 46.3693 26.4526 45.7526 26.6526C45.5693 26.7193 45.3859 26.7693 45.1859 26.8193C45.8193 28.4193 46.1693 30.1693 46.1693 32.0026C46.1693 35.8693 44.6026 39.3859 42.0693 41.9526C41.5859 41.3359 40.9693 40.7693 40.2359 40.2859C35.7193 37.2526 28.3193 37.2526 23.7693 40.2859C23.0359 40.7693 22.4359 41.3359 21.9359 41.9526C19.4026 39.3859 17.8359 35.8693 17.8359 32.0026C17.8359 24.1859 24.1859 17.8359 32.0026 17.8359C33.8193 17.8359 35.5693 18.1859 37.1693 18.8193C37.2193 18.6193 37.2693 18.4359 37.3359 18.2359C37.5359 17.6193 37.8193 17.0526 38.2026 16.5359C36.2859 15.7526 34.1859 15.3359 32.0026 15.3359C22.8193 15.3359 15.3359 22.8193 15.3359 32.0026C15.3359 36.8359 17.4193 41.1859 20.7193 44.2359C20.7193 44.2526 20.7193 44.2526 20.7026 44.2693C20.8693 44.4359 21.0693 44.5693 21.2359 44.7193C21.3359 44.8026 21.4193 44.8859 21.5193 44.9526C21.8193 45.2026 22.1526 45.4359 22.4693 45.6693C22.5859 45.7526 22.6859 45.8193 22.8026 45.9026C23.1193 46.1193 23.4526 46.3193 23.8026 46.5026C23.9193 46.5693 24.0526 46.6526 24.1693 46.7193C24.5026 46.9026 24.8526 47.0693 25.2193 47.2193C25.3526 47.2859 25.4859 47.3526 25.6193 47.4026C25.9859 47.5526 26.3526 47.6859 26.7193 47.8026C26.8526 47.8526 26.9859 47.9026 27.1193 47.9359C27.5193 48.0526 27.9193 48.1526 28.3193 48.2526C28.4359 48.2859 28.5526 48.3193 28.6859 48.3359C29.1526 48.4359 29.6193 48.5026 30.1026 48.5526C30.1693 48.5526 30.2359 48.5693 30.3026 48.5859C30.8693 48.6359 31.4359 48.6693 32.0026 48.6693C32.5693 48.6693 33.1359 48.6359 33.6859 48.5859C33.7526 48.5859 33.8193 48.5693 33.8859 48.5526C34.3693 48.5026 34.8359 48.4359 35.3026 48.3359C35.4193 48.3193 35.5359 48.2693 35.6693 48.2526C36.0693 48.1526 36.4859 48.0693 36.8693 47.9359C37.0026 47.8859 37.1359 47.8359 37.2693 47.8026C37.6359 47.6693 38.0193 47.5526 38.3693 47.4026C38.5026 47.3526 38.6359 47.2859 38.7693 47.2193C39.1193 47.0693 39.4693 46.9026 39.8193 46.7193C39.9526 46.6526 40.0693 46.5693 40.1859 46.5026C40.5193 46.3026 40.8526 46.1193 41.1859 45.9026C41.3026 45.8359 41.4026 45.7526 41.5193 45.6693C41.8526 45.4359 42.1693 45.2026 42.4693 44.9526C42.5693 44.8693 42.6526 44.7859 42.7526 44.7193C42.9359 44.5693 43.1193 44.4193 43.2859 44.2693C43.2859 44.2526 43.2859 44.2526 43.2693 44.2359C46.5859 41.1859 48.6693 36.8359 48.6693 32.0026Z" fill="#5285D1"/>
<path d="M32 23.5469C28.55 23.5469 25.75 26.3469 25.75 29.7969C25.75 33.1802 28.4 35.9302 31.9167 36.0302C31.9667 36.0302 32.0333 36.0302 32.0667 36.0302C32.1 36.0302 32.15 36.0302 32.1833 36.0302C32.2 36.0302 32.2167 36.0302 32.2167 36.0302C35.5833 35.9135 38.2333 33.1802 38.25 29.7969C38.25 26.3469 35.45 23.5469 32 23.5469Z" fill="#5285D1"/>
</svg>
