<svg width="64" height="64" viewBox="0 0 64 64" fill="none" xmlns="http://www.w3.org/2000/svg">
<rect x="1" y="1" width="62" height="62" rx="15" stroke="#BDDAC9" stroke-width="2"/>
<path d="M33.5708 11.8008C33.5708 11.3864 33.4062 10.989 33.1132 10.6959C32.8202 10.4029 32.4227 10.2383 32.0083 10.2383C31.5939 10.2383 31.1965 10.4029 30.9035 10.6959C30.6105 10.989 30.4458 11.3864 30.4458 11.8008V14.8841C30.4458 15.2985 30.6105 15.6959 30.9035 15.989C31.1965 16.282 31.5939 16.4466 32.0083 16.4466C32.4227 16.4466 32.8202 16.282 33.1132 15.989C33.4062 15.6959 33.5708 15.2985 33.5708 14.8841V11.8008ZM44.2188 28.4466C43.7846 26.7584 42.9963 25.1819 41.9062 23.8216C40.8256 22.4518 39.4701 21.3235 37.9271 20.5091C36.3879 19.7012 34.7014 19.2122 32.9688 19.0716C31.2312 18.9411 29.4855 19.1752 27.8438 19.7591C26.1929 20.3348 24.6812 21.2503 23.4062 22.4466C22.145 23.6227 21.132 25.0394 20.4271 26.6133C19.7381 28.2113 19.3904 29.9356 19.4062 31.6758C19.358 33.6857 19.788 35.6783 20.6609 37.4894C21.5339 39.3004 22.8247 40.8782 24.4271 42.0924L25.1562 42.7799C25.7812 43.4258 25.7812 43.4258 25.7604 44.8633V45.5299C25.7353 45.9909 25.8063 46.452 25.9687 46.8841C26.1146 47.3466 26.3729 47.7695 26.7188 48.1133C26.8771 48.2758 27.0507 48.4216 27.2396 48.5508V50.6341C27.2053 51.0119 27.2461 51.3928 27.3597 51.7548C27.4733 52.1168 27.6574 52.4527 27.9014 52.7432C28.1454 53.0337 28.4445 53.273 28.7815 53.4474C29.1184 53.6217 29.4865 53.7277 29.8646 53.7591H34.0312C34.7965 53.6954 35.5051 53.3305 36.0012 52.7445C36.4974 52.1584 36.7405 51.3993 36.6771 50.6341V48.5508C36.8652 48.4231 37.0397 48.2765 37.1979 48.1133C37.525 47.7674 37.775 47.3549 37.9271 46.9049C38.0867 46.4649 38.1575 45.9975 38.1354 45.5299V44.7591C38.1354 43.6133 38.1354 43.6133 38.7812 42.8841L39.5729 42.1549C42.2439 40.0776 43.9881 37.0309 44.4271 33.6758C44.7338 31.938 44.6628 30.1545 44.2188 28.4466ZM33.6562 50.5924H30.3646V49.2799H33.6562V50.5924ZM32.0104 28.5924C31.3308 28.5924 30.679 28.8624 30.1985 29.343C29.7179 29.8235 29.4479 30.4753 29.4479 31.1549C29.4479 31.7075 29.2284 32.2374 28.8377 32.6281C28.447 33.0188 27.9171 33.2383 27.3646 33.2383C26.812 33.2383 26.2821 33.0188 25.8914 32.6281C25.5007 32.2374 25.2812 31.7075 25.2812 31.1549C25.2757 30.2697 25.446 29.3922 25.7822 28.5733C26.1184 27.7544 26.6139 27.0103 27.2398 26.3844C27.8658 25.7584 28.6098 25.263 29.4287 24.9267C30.2477 24.5905 31.1252 24.4202 32.0104 24.4258C32.563 24.4258 33.0929 24.6453 33.4836 25.036C33.8743 25.4267 34.0938 25.9566 34.0938 26.5091C34.0938 27.0616 33.8743 27.5916 33.4836 27.9823C33.0929 28.373 32.563 28.5924 32.0104 28.5924ZM51.0938 33.8008H47.2812C46.8668 33.8008 46.4694 33.6362 46.1764 33.3431C45.8834 33.0501 45.7188 32.6527 45.7188 32.2383C45.7188 31.8239 45.8834 31.4265 46.1764 31.1334C46.4694 30.8404 46.8668 30.6758 47.2812 30.6758H51.0938C51.5082 30.6758 51.9056 30.8404 52.1986 31.1334C52.4916 31.4265 52.6563 31.8239 52.6563 32.2383C52.6563 32.6527 52.4916 33.0501 52.1986 33.3431C51.9056 33.6362 51.5082 33.8008 51.0938 33.8008ZM43.4271 21.2799C43.2218 21.2809 43.0184 21.2409 42.8288 21.1622C42.6392 21.0835 42.4672 20.9677 42.3229 20.8216C42.0303 20.5286 41.866 20.1315 41.866 19.7174C41.866 19.3034 42.0303 18.9062 42.3229 18.6133L45.0312 15.9049C45.3274 15.6289 45.7192 15.4787 46.124 15.4858C46.5288 15.493 46.915 15.657 47.2013 15.9432C47.4876 16.2295 47.6516 16.6157 47.6587 17.0205C47.6658 17.4253 47.5156 17.8171 47.2396 18.1133L44.5312 20.8216C44.3877 20.9686 44.2159 21.0851 44.0261 21.1638C43.8363 21.2426 43.6325 21.2821 43.4271 21.2799ZM48.2188 47.1966C47.8067 47.1856 47.4133 47.0224 47.1146 46.7383L44.4062 44.0299C44.2232 43.8485 44.0879 43.6246 44.0123 43.3782C43.9368 43.1318 43.9234 42.8705 43.9733 42.6176C44.0232 42.3648 44.1349 42.1282 44.2984 41.929C44.4619 41.7297 44.6722 41.5741 44.9104 41.4758C45.1963 41.3553 45.5119 41.3238 45.8159 41.3855C46.12 41.4472 46.3983 41.5992 46.6146 41.8216L49.3229 44.5299C49.4703 44.6736 49.5875 44.8453 49.6675 45.0349C49.7475 45.2246 49.7887 45.4283 49.7887 45.6341C49.7887 45.8399 49.7475 46.0437 49.6675 46.2333C49.5875 46.4229 49.4703 46.5946 49.3229 46.7383C49.0302 47.0314 48.633 47.1962 48.2188 47.1966ZM20.6146 21.2799C20.2003 21.2796 19.8032 21.1147 19.5104 20.8216L16.8021 18.1133C16.5092 17.8177 16.3458 17.4178 16.3478 17.0017C16.3497 16.5857 16.5169 16.1874 16.8125 15.8945C17.1081 15.6017 17.5079 15.4383 17.924 15.4402C18.3401 15.4422 18.7384 15.6093 19.0312 15.9049L21.7188 18.6133C21.937 18.8318 22.0856 19.1101 22.1458 19.413C22.2059 19.7159 22.175 20.0299 22.0568 20.3152C21.9387 20.6005 21.7386 20.8445 21.4819 21.0162C21.2252 21.1879 20.9234 21.2797 20.6146 21.2799ZM15.8437 47.1966C15.6378 47.2026 15.4329 47.1648 15.2425 47.0858C15.0522 47.0068 14.8808 46.8884 14.7396 46.7383C14.447 46.4453 14.2826 46.0482 14.2826 45.6341C14.2826 45.22 14.447 44.8229 14.7396 44.5299L17.4479 41.8216C17.7441 41.5456 18.1359 41.3954 18.5407 41.4025C18.9455 41.4096 19.3317 41.5736 19.618 41.8599C19.9042 42.1462 20.0682 42.5324 20.0754 42.9372C20.0825 43.342 19.9322 43.7337 19.6562 44.0299L16.9687 46.7591C16.6616 47.0404 16.2602 47.1965 15.8437 47.1966ZM16.7187 33.8008H12.9062C12.4918 33.8008 12.0944 33.6362 11.8014 33.3431C11.5084 33.0501 11.3438 32.6527 11.3438 32.2383C11.3438 31.8239 11.5084 31.4265 11.8014 31.1334C12.0944 30.8404 12.4918 30.6758 12.9062 30.6758H16.7187C17.1332 30.6758 17.5306 30.8404 17.8236 31.1334C18.1166 31.4265 18.2812 31.8239 18.2812 32.2383C18.2812 32.6527 18.1166 33.0501 17.8236 33.3431C17.5306 33.6362 17.1332 33.8008 16.7187 33.8008Z" fill="#2A8851"/>
</svg>
