<svg width="64" height="64" viewBox="0 0 64 64" fill="none" xmlns="http://www.w3.org/2000/svg">
<rect x="1" y="1" width="62" height="62" rx="15" stroke="#F7CECC" stroke-width="2"/>
<path d="M44.9824 19.0312C40.0491 14.1146 32.0491 14.1146 27.1491 19.0312C23.6991 22.4479 22.6658 27.3646 23.9991 31.6979L16.1658 39.5312C15.6158 40.0979 15.2324 41.2146 15.3491 42.0146L15.8491 45.6479C16.0324 46.8479 17.1491 47.9813 18.3491 48.1479L21.9824 48.6479C22.7824 48.7646 23.8991 48.3979 24.4658 47.8146L25.8324 46.4479C26.1658 46.1313 26.1658 45.5979 25.8324 45.2646L22.5991 42.0312C22.1158 41.5479 22.1158 40.7479 22.5991 40.2646C23.0824 39.7812 23.8824 39.7812 24.3658 40.2646L27.6158 43.5146C27.9324 43.8312 28.4658 43.8312 28.7824 43.5146L32.3158 39.9979C36.6324 41.3479 41.5491 40.2979 44.9824 36.8813C49.8991 31.9646 49.8991 23.9479 44.9824 19.0312ZM36.1658 31.9979C33.8658 31.9979 31.9991 30.1313 31.9991 27.8313C31.9991 25.5312 33.8658 23.6646 36.1658 23.6646C38.4658 23.6646 40.3324 25.5312 40.3324 27.8313C40.3324 30.1313 38.4658 31.9979 36.1658 31.9979Z" fill="#E46159"/>
</svg>
